<svg width="25" height="24" viewBox="0 0 25 24" fill="none" xmlns="http://www.w3.org/2000/svg">
<g clip-path="url(#clip0_262_17493)">
<rect x="0.709229" width="24" height="24" rx="12" fill="white"/>
<path fill-rule="evenodd" clip-rule="evenodd" d="M24.7092 12C24.7092 18.6274 19.3367 24 12.7092 24C6.08182 24 0.709229 18.6274 0.709229 12C0.709229 5.37259 6.08182 0 12.7092 0C19.3367 0 24.7092 5.37259 24.7092 12ZM12.7092 5.57143C13.4193 5.57143 13.9949 6.14707 13.9949 6.85714V10.7143H17.8521C18.5621 10.7143 19.1378 11.2899 19.1378 12C19.1378 12.7101 18.5621 13.2857 17.8521 13.2857H13.9949V17.1429C13.9949 17.8529 13.4193 18.4286 12.7092 18.4286C11.9992 18.4286 11.4235 17.8529 11.4235 17.1429V13.2857H7.56637C6.8563 13.2857 6.28066 12.7101 6.28066 12C6.28066 11.2899 6.8563 10.7143 7.56637 10.7143H11.4235V6.85714C11.4235 6.14707 11.9992 5.57143 12.7092 5.57143Z" fill="#A5E22B"/>
</g>
<defs>
<clipPath id="clip0_262_17493">
<rect x="0.709229" width="24" height="24" rx="12" fill="white"/>
</clipPath>
</defs>
</svg>
