<svg width="20" height="20" viewBox="0 0 20 20" fill="none" xmlns="http://www.w3.org/2000/svg">
<path fill-rule="evenodd" clip-rule="evenodd" d="M11.4286 4.28571C11.4286 6.65264 9.50979 8.57143 7.14286 8.57143C4.77593 8.57143 2.85714 6.65264 2.85714 4.28571C2.85714 1.91879 4.77593 0 7.14286 0C9.50979 0 11.4286 1.91879 11.4286 4.28571ZM15.3571 10.7143C15.9489 10.7143 16.4286 11.194 16.4286 11.7857V14.2857H18.9286C19.5203 14.2857 20 14.7654 20 15.3571C20 15.9489 19.5203 16.4286 18.9286 16.4286H16.4286V18.9286C16.4286 19.5203 15.9489 20 15.3571 20C14.7654 20 14.2857 19.5203 14.2857 18.9286V16.4286H11.7857C11.194 16.4286 10.7143 15.9489 10.7143 15.3571C10.7143 14.7654 11.194 14.2857 11.7857 14.2857H14.2857V11.7857C14.2857 11.194 14.7654 10.7143 15.3571 10.7143ZM7.14286 9.99996C9.27624 9.99996 11.1912 10.9352 12.5 12.4181V12.5H11.7857C10.2078 12.5 8.92857 13.7792 8.92857 15.3571C8.92857 16.4329 9.52303 17.3697 10.4014 17.8571H0.714286C0.319797 17.8571 0 17.5373 0 17.1429C0 13.1979 3.19797 9.99996 7.14286 9.99996Z" fill="white"/>
</svg>
