<svg width="22" height="22" viewBox="0 0 22 22" fill="none" xmlns="http://www.w3.org/2000/svg">
<g clip-path="url(#clip0_262_21349)">
<path fill-rule="evenodd" clip-rule="evenodd" d="M15.0236 1.03149C15.3182 -0.337076 17.2555 -0.346852 17.5623 1.02042L17.6019 1.1976C17.9768 2.8688 19.2984 4.1371 20.9418 4.42783C22.3528 4.67742 22.3528 6.71544 20.9418 6.96503C19.2984 7.25576 17.9768 8.52406 17.6019 10.1953L17.5623 10.3724C17.2555 11.7397 15.3182 11.7299 15.0236 10.3614L14.9909 10.2093C14.6297 8.53165 13.3095 7.25376 11.6632 6.96253C10.2551 6.71341 10.2551 4.67945 11.6632 4.43034C13.3095 4.1391 14.6297 2.86121 14.9909 1.18352L15.0236 1.03149ZM13.0706 10.6227C12.9089 9.87162 12.4004 9.28908 11.7548 9.02306L11.7547 20.7433C12.636 21.5248 13.7835 22 15.0482 22C17.8708 22 20.1091 19.6333 20.1091 16.7763C20.1091 16.74 20.1088 16.7037 20.108 16.6675L20.1415 16.6229C20.0582 16.3226 19.9441 16.0103 19.8061 15.7196C19.5879 15.2592 19.352 14.9413 19.1642 14.7877C18.7445 14.4441 18.6827 13.8253 19.0264 13.4056C19.3699 12.9859 19.9887 12.9241 20.4085 13.2677C20.7265 13.5281 20.9981 13.8656 21.2245 14.2253C21.4311 13.4471 21.5454 12.6212 21.5454 11.8508C21.5454 10.8666 21.3559 9.87074 21.0064 8.96808C20.2838 9.1999 19.7007 9.81341 19.5186 10.6252L19.4788 10.8024C18.7104 14.2287 13.8402 14.1979 13.1033 10.7748L13.0706 10.6227ZM9.79041 20.7436L9.79052 8.21279C8.26031 6.95649 8.26029 4.43632 9.79055 3.18004L9.79057 2.53486C9.0316 1.93207 8.0793 1.57143 7.03708 1.57143C4.52474 1.57143 2.53497 3.66705 2.51601 6.19834C2.53267 6.2538 2.54465 6.3115 2.55143 6.37106C2.62515 7.01868 2.90222 7.49644 3.20985 7.82751C3.36551 7.99502 3.52633 8.12172 3.66591 8.20919C3.73538 8.25273 3.79588 8.28421 3.84367 8.30553C3.86736 8.31609 3.88639 8.32348 3.90044 8.32838C3.91364 8.333 3.92103 8.33487 3.92103 8.33487C4.44892 8.45964 4.7757 8.98871 4.65093 9.51659C4.52615 10.0445 3.99709 10.3713 3.4692 10.2465C2.94489 10.1226 2.30255 9.73676 1.77089 9.1646C1.47897 8.85043 1.20532 8.46441 0.992984 8.00652C0.356457 9.12969 0 10.5011 0 11.8508C0 12.5621 0.0974094 13.3207 0.274961 14.0453C0.61481 13.3602 1.06836 12.68 1.63482 12.2163C2.05453 11.8727 2.67333 11.9344 3.01692 12.3541C3.3605 12.7739 3.29879 13.3926 2.87906 13.7362C2.59433 13.9693 2.2713 14.4169 1.98372 15.0232C1.73267 15.5525 1.54063 16.1353 1.43214 16.6606L1.43736 16.6675C1.43664 16.7037 1.43628 16.74 1.43628 16.7763C1.43628 19.6333 3.67474 22 6.49723 22C7.76179 22 8.9091 21.525 9.79041 20.7436Z" fill="url(#paint0_linear_262_21349)"/>
</g>
<defs>
<linearGradient id="paint0_linear_262_21349" x1="21.9261" y1="22.0047" x2="-4.12657" y2="7.34957" gradientUnits="userSpaceOnUse">
<stop stop-color="#A5E22B"/>
<stop offset="1" stop-color="#83BD10"/>
</linearGradient>
<clipPath id="clip0_262_21349">
<rect width="22" height="22" fill="white"/>
</clipPath>
</defs>
</svg>
