<svg width="20" height="20" viewBox="0 0 20 20" fill="none" xmlns="http://www.w3.org/2000/svg">
<path d="M9.99983 19.1091C14.2422 19.1091 17.6813 15.6699 17.6813 11.4276C17.6813 7.18522 14.2422 3.74609 9.99983 3.74609C5.75747 3.74609 2.31836 7.18522 2.31836 11.4276C2.31836 15.6699 5.75747 19.1091 9.99983 19.1091Z" fill="#A5E22B"/>
<path fill-rule="evenodd" clip-rule="evenodd" d="M5.97352 2.04214C6.50949 1.79136 6.74068 1.15358 6.48991 0.617611C6.23912 0.0816453 5.60135 -0.149546 5.06538 0.101231C3.11719 1.01278 1.44407 2.41121 0.201562 4.13951C-0.143848 4.61997 -0.0343708 5.28947 0.446088 5.63488C0.926546 5.9803 1.59604 5.87081 1.94145 5.39036C2.97231 3.95647 4.36021 2.79701 5.97352 2.04214ZM13.5103 0.617611C13.761 0.0816453 14.3988 -0.149546 14.9348 0.101231C16.8829 1.01278 18.5561 2.41121 19.7987 4.13951C20.1441 4.61997 20.0345 5.28947 19.5541 5.63488C19.0737 5.9803 18.4041 5.87081 18.0587 5.39036C17.0278 3.95647 15.6399 2.79701 14.0266 2.04214C13.4907 1.79136 13.2595 1.15358 13.5103 0.617611ZM3.21145 11.4279C3.21145 7.67864 6.25082 4.63927 10.0001 4.63927C13.7493 4.63927 16.7887 7.67864 16.7887 11.4279C16.7887 15.1771 13.7493 18.2165 10.0001 18.2165C6.25082 18.2165 3.21145 15.1771 3.21145 11.4279ZM10.0001 2.85356C5.26459 2.85356 1.42573 6.69243 1.42573 11.4279C1.42573 16.1634 5.26459 20.0023 10.0001 20.0023C14.7355 20.0023 18.5744 16.1634 18.5744 11.4279C18.5744 6.69243 14.7355 2.85356 10.0001 2.85356ZM11.0715 7.14207C11.0715 6.55033 10.5918 6.07064 10.0001 6.07064C9.40835 6.07064 8.92865 6.55033 8.92865 7.14207V11.4278C8.92865 12.0195 9.40835 12.4992 10.0001 12.4992H13.5715C14.1632 12.4992 14.6429 12.0195 14.6429 11.4278C14.6429 10.836 14.1632 10.3564 13.5715 10.3564H11.0715V7.14207Z" fill="white"/>
</svg>
