<svg width="20" height="20" viewBox="0 0 20 20" fill="none" xmlns="http://www.w3.org/2000/svg">
<g clip-path="url(#clip0_143_1830)">
<rect width="20" height="20" rx="10" fill="white"/>
<path fill-rule="evenodd" clip-rule="evenodd" d="M5 0C2.23857 0 0 2.23857 0 5V15C0 17.7614 2.23857 20 5 20H15C17.7614 20 20 17.7614 20 15V5C20 2.23857 17.7614 0 15 0H5ZM15.004 7.45503C15.3736 6.99296 15.2987 6.31873 14.8366 5.94907C14.3746 5.57941 13.7003 5.65433 13.3307 6.1164L8.2651 12.4483L6.23873 10.9286C5.76534 10.5735 5.09377 10.6695 4.73873 11.1429C4.3837 11.6162 4.47963 12.2878 4.95301 12.6429L7.81016 14.7857C8.27313 15.133 8.92816 15.0497 9.28967 14.5979L15.004 7.45503Z" fill="#A5E22B"/>
</g>
<defs>
<clipPath id="clip0_143_1830">
<rect width="20" height="20" rx="10" fill="white"/>
</clipPath>
</defs>
</svg>
