<svg width="12" height="13" viewBox="0 0 12 13" fill="none" xmlns="http://www.w3.org/2000/svg">
<path fill-rule="evenodd" clip-rule="evenodd" d="M5.18365 1.95884C5.46138 1.6811 5.83807 1.52508 6.23085 1.52508C6.62363 1.52508 7.00032 1.6811 7.27805 1.95884C7.45354 2.13433 7.58043 2.34931 7.65008 2.58291H4.81162C4.88127 2.34931 5.00817 2.13433 5.18365 1.95884ZM3.51322 2.58291C3.60239 2.01016 3.87106 1.47622 4.28605 1.06124C4.80185 0.545446 5.50141 0.255676 6.23085 0.255676C6.96029 0.255676 7.65986 0.545446 8.17566 1.06124C8.59064 1.47622 8.85935 2.01016 8.94847 2.58291H11.3084C11.659 2.58291 11.9431 2.86708 11.9431 3.21761C11.9431 3.56815 11.659 3.85231 11.3084 3.85231H10.4622V10.834C10.4622 11.1706 10.3285 11.4936 10.0904 11.7316C9.85236 11.9697 9.52943 12.1034 9.19278 12.1034H3.26892C2.93225 12.1034 2.60937 11.9697 2.37132 11.7316C2.13326 11.4936 1.99952 11.1706 1.99952 10.834V3.85231H1.15325C0.802719 3.85231 0.518555 3.56815 0.518555 3.21761C0.518555 2.86708 0.802719 2.58291 1.15325 2.58291H3.51322ZM4.53832 5.22873C4.83043 5.22873 5.06724 5.46554 5.06724 5.75764V9.14401C5.06724 9.43606 4.83043 9.67293 4.53832 9.67293C4.2462 9.67293 4.0094 9.43606 4.0094 9.14401V5.75764C4.0094 5.46554 4.2462 5.22873 4.53832 5.22873ZM8.4523 5.75764C8.4523 5.46554 8.2155 5.22873 7.92338 5.22873C7.63127 5.22873 7.39447 5.46554 7.39447 5.75764V9.14401C7.39447 9.43606 7.63127 9.67293 7.92338 9.67293C8.2155 9.67293 8.4523 9.43606 8.4523 9.14401V5.75764Z" fill="#DA5858"/>
</svg>
