<svg width="24" height="24" viewBox="0 0 24 24" fill="none" xmlns="http://www.w3.org/2000/svg">
<path d="M12 24C18.6274 24 24 18.6274 24 12C24 5.37258 18.6274 0 12 0C5.37258 0 0 5.37258 0 12C0 18.6274 5.37258 24 12 24Z" fill="#FFC393"/>
<path fill-rule="evenodd" clip-rule="evenodd" d="M11.9999 6.64258C12.5916 6.64258 13.0713 7.12227 13.0713 7.71401V11.6118L17.1087 16.4567C17.4875 16.9113 17.4261 17.5869 16.9715 17.9656C16.5169 18.3445 15.8413 18.2831 15.4625 17.8285L11.1768 12.6856C11.0163 12.4931 10.9285 12.2504 10.9285 11.9997V7.71401C10.9285 7.12227 11.4082 6.64258 11.9999 6.64258Z" fill="#C84E00"/>
</svg>
