<svg width="24" height="18" viewBox="0 0 24 18" fill="none" xmlns="http://www.w3.org/2000/svg">
<path fill-rule="evenodd" clip-rule="evenodd" d="M8.81633 0.18457C3.94721 0.18457 0 4.13176 0 9.00088C0 13.87 3.94721 17.8172 8.81633 17.8172H16.7755C20.7655 17.8172 24 14.5827 24 10.5927C24 6.60275 20.7655 3.36824 16.7755 3.36824C16.3994 3.36824 16.0296 3.39704 15.6683 3.45268C14.0531 1.46031 11.5837 0.18457 8.81633 0.18457Z" fill="#A5E22B"/>
<path fill-rule="evenodd" clip-rule="evenodd" d="M17.1742 9.27065C16.464 9.27065 15.8884 8.69501 15.8884 7.98493C15.8884 7.27486 16.464 6.69922 17.1742 6.69922C17.8842 6.69922 18.4599 7.27486 18.4599 7.98493C18.4599 8.69501 17.8842 9.27065 17.1742 9.27065ZM7.16215 6.884C7.75389 6.884 8.23358 7.36369 8.23358 7.95543V9.39634H9.67449C10.2662 9.39634 10.7459 9.87603 10.7459 10.4678C10.7459 11.0595 10.2662 11.5392 9.67449 11.5392H8.23358V12.9801C8.23358 13.5718 7.75389 14.0515 7.16215 14.0515C6.57042 14.0515 6.09072 13.5718 6.09072 12.9801V11.5392H4.6498C4.05808 11.5392 3.57837 11.0595 3.57837 10.4678C3.57837 9.87603 4.05808 9.39634 4.6498 9.39634H6.09072V7.95543C6.09072 7.36369 6.57042 6.884 7.16215 6.884ZM16.0306 10.4141C16.0306 11.1241 15.455 11.6998 14.7449 11.6998C14.0348 11.6998 13.4592 11.1241 13.4592 10.4141C13.4592 9.70398 14.0348 9.12834 14.7449 9.12834C15.455 9.12834 16.0306 9.70398 16.0306 10.4141ZM19.6033 11.6998C20.3134 11.6998 20.889 11.1241 20.889 10.4141C20.889 9.70398 20.3134 9.12834 19.6033 9.12834C18.8932 9.12834 18.3176 9.70398 18.3176 10.4141C18.3176 11.1241 18.8932 11.6998 19.6033 11.6998ZM15.8884 12.8432C15.8884 13.5533 16.464 14.1289 17.1742 14.1289C17.8842 14.1289 18.4599 13.5533 18.4599 12.8432C18.4599 12.1331 17.8842 11.5575 17.1742 11.5575C16.464 11.5575 15.8884 12.1331 15.8884 12.8432Z" fill="#679A00"/>
</svg>
