<svg width="28" height="28" viewBox="0 0 28 28" fill="none" xmlns="http://www.w3.org/2000/svg">
<path fill-rule="evenodd" clip-rule="evenodd" d="M5.07456 7.11348C4.10668 7.1112 3.32275 6.32589 3.32275 5.35746C3.32275 4.38764 4.10896 3.60144 5.0788 3.60144H5.08083C6.04964 3.60263 6.83466 4.38837 6.83466 5.35746C6.83466 6.32728 6.04847 7.11348 5.07863 7.11348H5.07456ZM24.7587 11.895H13.8734C12.7803 11.895 11.8942 12.7811 11.8942 13.8742V24.7596C11.8942 25.8527 12.7803 26.7388 13.8734 26.7388H24.7587C25.8519 26.7388 26.738 25.8527 26.738 24.7596V13.8742C26.738 12.7811 25.8519 11.895 24.7587 11.895ZM5.08287 9.74898C6.05075 9.75126 6.83466 10.5366 6.83466 11.505C6.83466 12.4748 6.04847 13.261 5.07863 13.261L5.08287 9.74898ZM5.07456 13.261C4.10668 13.2587 3.32275 12.4734 3.32275 11.505C3.32275 10.5352 4.10896 9.74896 5.0788 9.74896L5.07456 13.261ZM11.7871 3.60144C12.755 3.60372 13.5389 4.38906 13.5389 5.35746C13.5389 6.32728 12.7527 7.11348 11.7829 7.11348M11.7788 7.11348C10.8109 7.1112 10.027 6.32587 10.027 5.35746C10.027 4.38764 10.8132 3.60144 11.783 3.60144" fill="#FFAA00"/>
<path fill-rule="evenodd" clip-rule="evenodd" d="M0 2.98816C0 1.33784 1.33784 0 2.98816 0H13.8736C15.5239 0 16.8617 1.33784 16.8617 2.98816V8.11131H13.8732C10.6904 8.11131 8.11032 10.6914 8.11032 13.8742V16.8617H2.98816C1.33784 16.8617 0 15.5239 0 13.8736V2.98816ZM3.32255 5.35744C3.32255 6.3205 4.09782 7.10248 5.05829 7.11336L5.07813 7.1135C6.04797 7.1135 6.83415 6.3273 6.83415 5.35748C6.83415 4.39442 6.05891 3.61244 5.09843 3.60156L5.0786 3.60142C4.10876 3.60142 3.32255 4.38762 3.32255 5.35744ZM3.32255 11.505C3.32255 12.4681 4.09788 13.2501 5.05842 13.2609L5.07813 13.261C6.04797 13.261 6.83415 12.4748 6.83415 11.505C6.83415 10.5419 6.05885 9.75991 5.09831 9.7491L5.0786 9.74893C4.10876 9.74893 3.32255 10.5351 3.32255 11.505ZM10.0268 5.35744C10.0268 6.3205 10.8021 7.10248 11.7626 7.11336L11.7824 7.1135C12.7522 7.1135 13.5384 6.3273 13.5384 5.35748C13.5384 4.39442 12.7631 3.61244 11.8027 3.60156L11.7828 3.60142C10.813 3.60142 10.0268 4.38762 10.0268 5.35744ZM13.8732 10.6338C12.0836 10.6338 10.6328 12.0846 10.6328 13.8742V24.7595C10.6328 26.5493 12.0836 28 13.8732 28H24.7585C26.5483 28 27.999 26.5493 27.999 24.7595V13.8742C27.999 12.0846 26.5483 10.6338 24.7585 10.6338H13.8732ZM13.1553 13.8742C13.1553 13.4777 13.4767 13.1562 13.8732 13.1562H24.7585C25.1551 13.1562 25.4765 13.4777 25.4765 13.8742V24.7595C25.4765 25.1561 25.1551 25.4775 24.7585 25.4775H13.8732C13.4767 25.4775 13.1553 25.1561 13.1553 24.7595V13.8742ZM20.0339 17.3372C20.0339 16.3674 20.82 15.5812 21.7899 15.5812C22.7597 15.5812 23.5459 16.3674 23.5459 17.3372C23.5459 18.307 22.7597 19.0932 21.7899 19.0932C20.82 19.0932 20.0339 18.307 20.0339 17.3372ZM16.8426 19.5393C15.8727 19.5393 15.0865 20.3254 15.0865 21.2953C15.0865 22.2651 15.8727 23.0513 16.8426 23.0513C17.8124 23.0513 18.5986 22.2651 18.5986 21.2953C18.5986 20.3254 17.8124 19.5393 16.8426 19.5393Z" fill="#121212"/>
</svg>
