<svg width="18" height="17" viewBox="0 0 18 17" fill="none" xmlns="http://www.w3.org/2000/svg">
<path d="M9.66742 1.76562C8.3982 1.83314 7.15599 2.13019 5.98129 2.64328C4.13147 3.48042 9.66742 4.97918 9.66742 4.97918" fill="#F2AE16"/>
<path d="M12.3619 13.9317C15.3614 12.8852 16.865 9.37708 15.7203 6.09597C14.5756 2.81486 11.2161 1.00328 8.21667 2.04969C5.2172 3.09611 3.71358 6.60427 4.85826 9.88538C6.00293 13.1665 9.36242 14.9781 12.3619 13.9317Z" fill="#E5770A"/>
<path d="M10.6451 14.3082C13.6446 13.2618 15.1482 9.75361 14.0035 6.4725C12.8588 3.19138 9.49934 1.3798 6.49987 2.42622C3.5004 3.47264 1.99679 6.98079 3.14146 10.2619C4.28613 13.543 7.64562 15.3546 10.6451 14.3082Z" fill="#FFD008"/>
<path d="M8.87074 13.9317C6.68336 13.9317 4.54999 12.4194 3.72635 10.0565C3.22677 8.67928 3.26728 7.16702 3.83437 5.81678C4.36096 4.53406 5.41414 3.53489 6.72387 3.06231C9.39733 2.13065 12.3948 3.75093 13.421 6.66743C14.4472 9.58393 13.097 12.73 10.4235 13.6616C9.92392 13.8507 9.39733 13.9317 8.87074 13.9317ZM8.29014 2.9948C7.77705 2.9948 7.27746 3.07581 6.79138 3.25134C5.53566 3.69692 4.52299 4.65559 4.0099 5.8978C3.45631 7.20752 3.4293 8.66577 3.90188 10.0025C4.88755 12.8245 7.77705 14.3908 10.356 13.4996C12.9349 12.6085 14.2177 9.57043 13.2455 6.74845C12.4488 4.46655 10.3965 2.9948 8.29014 2.9948Z" fill="#E5770A"/>
<path d="M9.76361 6.9042L10.4198 6.89124L10.4676 9.85094L9.73975 9.86391L9.76361 6.9042Z" fill="#E5770A"/>
<path d="M8.51103 7.5263C8.45004 7.5407 8.39701 7.60839 8.35194 7.72937C8.30952 7.85036 8.28168 7.99438 8.26842 8.16145C8.25781 8.32564 8.25649 8.48982 8.26444 8.65401C8.27505 8.8182 8.30554 8.95791 8.35592 9.07312C8.40629 9.18546 8.46993 9.24163 8.54682 9.24163C8.67409 9.24163 8.76026 9.09329 8.80534 8.7966C8.85041 8.49991 8.84246 8.20898 8.78148 7.92381C8.72314 7.63576 8.63299 7.50326 8.51103 7.5263ZM8.59455 9.94159C8.45932 9.94735 8.32808 9.91711 8.20081 9.85086C8.07354 9.78461 7.96085 9.68955 7.86274 9.56569C7.76464 9.44183 7.68377 9.28916 7.62013 9.10769C7.55915 8.92334 7.52468 8.72603 7.51673 8.51575C7.51142 8.36596 7.51938 8.2133 7.54059 8.05775C7.56445 7.89932 7.6029 7.74378 7.65593 7.59111C7.71161 7.43556 7.77922 7.29874 7.85877 7.18064C7.93831 7.06254 8.03774 6.96748 8.15706 6.89547C8.27902 6.82058 8.41292 6.78457 8.55875 6.78745C8.68602 6.79033 8.80799 6.82634 8.92466 6.89547C9.04397 6.9646 9.15136 7.06398 9.24681 7.1936C9.34491 7.32034 9.42181 7.49029 9.47749 7.70345C9.53582 7.91373 9.56366 8.14993 9.56101 8.41205C9.55836 8.5532 9.5451 8.6929 9.52124 8.83116C9.49737 8.96943 9.46025 9.10481 9.40987 9.23731C9.3595 9.36694 9.29719 9.48216 9.22295 9.58297C9.15136 9.68379 9.06121 9.76732 8.9525 9.83358C8.84379 9.89695 8.72447 9.93295 8.59455 9.94159Z" fill="#E5770A"/>
<path d="M5.74756 6.86531C5.98619 6.84227 6.20228 6.85667 6.39584 6.90852C6.59205 6.96037 6.75379 7.03814 6.88106 7.14184C7.00833 7.24266 7.11306 7.36508 7.19526 7.5091C7.28011 7.65313 7.33976 7.80579 7.37423 7.9671C7.4087 8.12553 7.42328 8.29116 7.41798 8.46399C7.40738 8.97671 7.25094 9.35838 6.94867 9.60898C6.64641 9.8567 6.25399 9.93736 5.77142 9.85094L5.74756 6.86531ZM6.34414 9.13802C6.44224 9.14378 6.52444 9.09913 6.59072 9.00408C6.65966 8.90614 6.70209 8.7866 6.71799 8.64546C6.7339 8.50431 6.7339 8.36317 6.71799 8.22202C6.70474 8.078 6.66364 7.95558 6.5947 7.85476C6.52842 7.75106 6.44489 7.69921 6.34414 7.69921V9.13802Z" fill="#E5770A"/>
<rect x="2.89648" y="1.9826" width="13.7069" height="12.7931" rx="6.39656" fill="black" fill-opacity="0.2"/>
<path d="M6.55176 8.44874L8.55969 10.4567L12.9772 5.63763" stroke="white" stroke-width="1.20476" stroke-linecap="round" stroke-linejoin="round"/>
</svg>
