<svg width="26" height="24" viewBox="0 0 26 24" fill="none" xmlns="http://www.w3.org/2000/svg">
<path d="M13.5573 2.40918C11.6592 2.51014 9.80147 2.95438 8.0447 3.72171C5.27829 4.97366 13.5573 7.21505 13.5573 7.21505" fill="#F2AE16"/>
<path d="M17.5872 20.603C22.0729 19.038 24.3215 13.7916 22.6097 8.88467C20.8978 3.97776 15.8737 1.26854 11.388 2.83346C6.90226 4.39838 4.6536 9.64483 6.36546 14.5517C8.07732 19.4587 13.1014 22.1679 17.5872 20.603Z" fill="#E5770A"/>
<path d="M15.0198 21.1664C19.5055 19.6015 21.7542 14.3551 20.0423 9.44815C18.3304 4.54124 13.3063 1.83202 8.82059 3.39694C4.33487 4.96185 2.08622 10.2083 3.79808 15.1152C5.50994 20.0221 10.5341 22.7314 15.0198 21.1664Z" fill="#FFD008"/>
<path d="M12.3659 20.603C9.09465 20.603 5.90419 18.3414 4.67244 14.8077C3.9253 12.748 3.98589 10.4865 4.83398 8.46719C5.6215 6.54888 7.19653 5.05462 9.15523 4.34787C13.1534 2.95457 17.6362 5.3777 19.1708 9.73933C20.7055 14.101 18.6862 18.8059 14.688 20.1992C13.9409 20.4819 13.1534 20.603 12.3659 20.603ZM11.4976 4.24691C10.7303 4.24691 9.98313 4.36806 9.25619 4.63057C7.37827 5.29693 5.86381 6.73061 5.09648 8.58834C4.26858 10.547 4.2282 12.7279 4.93494 14.7269C6.40901 18.9472 10.7303 21.2896 14.5871 19.9569C18.4439 18.6241 20.3622 14.0808 18.9083 9.86049C17.7169 6.44791 14.6477 4.24691 11.4976 4.24691Z" fill="#E5770A"/>
<path d="M13.7034 10.0931L14.6848 10.0737L14.7562 14.5L13.6677 14.5194L13.7034 10.0931Z" fill="#E5770A"/>
<path d="M11.8297 11.0236C11.7385 11.0452 11.6592 11.1464 11.5918 11.3273C11.5283 11.5083 11.4867 11.7237 11.4669 11.9735C11.451 12.2191 11.449 12.4646 11.4609 12.7101C11.4768 12.9557 11.5224 13.1646 11.5977 13.3369C11.6731 13.5049 11.7682 13.5889 11.8832 13.5889C12.0736 13.5889 12.2024 13.3671 12.2698 12.9234C12.3372 12.4797 12.3253 12.0446 12.2341 11.6181C12.1469 11.1873 12.0121 10.9892 11.8297 11.0236ZM11.9546 14.6357C11.7524 14.6443 11.5561 14.5991 11.3658 14.5C11.1754 14.4009 11.0069 14.2588 10.8602 14.0736C10.7135 13.8883 10.5925 13.66 10.4974 13.3886C10.4062 13.1129 10.3546 12.8178 10.3427 12.5034C10.3348 12.2794 10.3467 12.051 10.3784 11.8184C10.4141 11.5815 10.4716 11.3489 10.5509 11.1206C10.6342 10.8879 10.7353 10.6833 10.8542 10.5067C10.9732 10.3301 11.1219 10.1879 11.3003 10.0802C11.4827 9.96824 11.683 9.91439 11.9011 9.9187C12.0914 9.923 12.2738 9.97685 12.4483 10.0802C12.6267 10.1836 12.7873 10.3322 12.9301 10.5261C13.0768 10.7156 13.1918 10.9698 13.275 11.2886C13.3623 11.603 13.4039 11.9563 13.3999 12.3483C13.396 12.5594 13.3761 12.7683 13.3405 12.9751C13.3048 13.1818 13.2493 13.3843 13.1739 13.5825C13.0986 13.7763 13.0054 13.9486 12.8944 14.0994C12.7873 14.2502 12.6525 14.3751 12.4899 14.4742C12.3273 14.5689 12.1489 14.6228 11.9546 14.6357Z" fill="#E5770A"/>
<path d="M7.69678 10.0349C8.05365 10.0005 8.37682 10.022 8.66629 10.0996C8.95972 10.1771 9.2016 10.2934 9.39193 10.4485C9.58226 10.5993 9.73889 10.7823 9.86182 10.9977C9.9887 11.2131 10.0779 11.4414 10.1295 11.6827C10.181 11.9196 10.2028 12.1673 10.1949 12.4258C10.179 13.1926 9.94509 13.7633 9.49305 14.1381C9.041 14.5086 8.45414 14.6292 7.73246 14.5L7.69678 10.0349ZM8.58896 13.4338C8.73568 13.4424 8.8586 13.3756 8.95773 13.2335C9.06083 13.087 9.12427 12.9082 9.14807 12.6972C9.17186 12.4861 9.17186 12.275 9.14807 12.0639C9.12824 11.8485 9.06678 11.6654 8.96368 11.5147C8.86455 11.3596 8.73964 11.2821 8.58896 11.2821V13.4338Z" fill="#E5770A"/>
</svg>
