<svg width="20" height="20" viewBox="0 0 20 20" fill="none" xmlns="http://www.w3.org/2000/svg">
<path fill-rule="evenodd" clip-rule="evenodd" d="M3.62482 5.08136C2.93348 5.07973 2.37354 4.51879 2.37354 3.82705C2.37354 3.13433 2.93511 2.57275 3.62785 2.57275H3.62931C4.32131 2.5736 4.88204 3.13485 4.88204 3.82705C4.88204 4.51978 4.32048 5.08136 3.62774 5.08136H3.62482ZM17.6849 8.49675H9.9097C9.12895 8.49675 8.49601 9.12969 8.49601 9.91044V17.6857C8.49601 18.4665 9.12895 19.0994 9.9097 19.0994H17.6849C18.4658 19.0994 19.0987 18.4665 19.0987 17.6857V9.91044C19.0987 9.12969 18.4658 8.49675 17.6849 8.49675ZM3.63076 6.96385C4.32211 6.96548 4.88204 7.52642 4.88204 8.21815C4.88204 8.91088 4.32048 9.47245 3.62774 9.47245L3.63076 6.96385ZM3.62482 9.47245C2.93348 9.47083 2.37354 8.90987 2.37354 8.21815C2.37354 7.52541 2.93511 6.96384 3.62785 6.96384L3.62482 9.47245ZM8.4195 2.57275C9.11085 2.57438 9.67079 3.13534 9.67079 3.82705C9.67079 4.51978 9.10922 5.08136 8.41649 5.08136M8.41358 5.08136C7.72223 5.07973 7.16229 4.51877 7.16229 3.82705C7.16229 3.13433 7.72386 2.57275 8.41659 2.57275" fill="#FFAA00"/>
<path fill-rule="evenodd" clip-rule="evenodd" d="M0.000244141 2.1344C0.000244141 0.955602 0.955846 0 2.13464 0H9.90994C11.0887 0 12.0443 0.955602 12.0443 2.1344V5.79379H9.90967C7.63627 5.79379 5.79333 7.63673 5.79333 9.91013V12.0441H2.13464C0.955846 12.0441 0.000244141 11.0885 0.000244141 9.90969V2.1344ZM2.3735 3.82674C2.3735 4.51464 2.92726 5.0732 3.61331 5.08097L3.62748 5.08107C4.32022 5.08107 4.88178 4.5195 4.88178 3.82677C4.88178 3.13887 4.32804 2.58031 3.64198 2.57254L3.62781 2.57244C2.93507 2.57244 2.3735 3.13402 2.3735 3.82674ZM2.3735 8.21784C2.3735 8.90575 2.9273 9.46434 3.6134 9.47205L3.62748 9.47217C4.32022 9.47217 4.88178 8.9106 4.88178 8.21787C4.88178 7.52994 4.32799 6.97137 3.6419 6.96364L3.62781 6.96352C2.93507 6.96352 2.3735 7.5251 2.3735 8.21784ZM7.16225 3.82674C7.16225 4.51464 7.71601 5.0732 8.40207 5.08097L8.41623 5.08107C9.10896 5.08107 9.67054 4.5195 9.67054 3.82677C9.67054 3.13887 9.11678 2.58031 8.43072 2.57254L8.41655 2.57244C7.72383 2.57244 7.16225 3.13402 7.16225 3.82674ZM9.90967 7.59555C8.63137 7.59555 7.59509 8.63183 7.59509 9.91013V17.6854C7.59509 18.9638 8.63137 20 9.90967 20H17.6849C18.9633 20 19.9995 18.9638 19.9995 17.6854V9.91013C19.9995 8.63183 18.9633 7.59555 17.6849 7.59555H9.90967ZM9.39686 9.91013C9.39686 9.6269 9.62646 9.39732 9.90967 9.39732H17.6849C17.9681 9.39732 18.1978 9.6269 18.1978 9.91013V17.6854C18.1978 17.9686 17.9681 18.1982 17.6849 18.1982H9.90967C9.62646 18.1982 9.39686 17.9686 9.39686 17.6854V9.91013ZM14.3102 12.3837C14.3102 11.691 14.8717 11.1294 15.5644 11.1294C16.2572 11.1294 16.8188 11.691 16.8188 12.3837C16.8188 13.0764 16.2572 13.638 15.5644 13.638C14.8717 13.638 14.3102 13.0764 14.3102 12.3837ZM12.0306 13.9566C11.3379 13.9566 10.7763 14.5182 10.7763 15.2109C10.7763 15.9037 11.3379 16.4652 12.0306 16.4652C12.7234 16.4652 13.2849 15.9037 13.2849 15.2109C13.2849 14.5182 12.7234 13.9566 12.0306 13.9566Z" fill="white"/>
</svg>
