<svg width="196" height="158" viewBox="0 0 196 158" fill="none" xmlns="http://www.w3.org/2000/svg">
<g filter="url(#filter0_dddd_533_2188)">
<g filter="url(#filter1_i_533_2188)">
<mask id="path-1-outside-1_533_2188" maskUnits="userSpaceOnUse" x="22.0132" y="1.09717" width="71.762" height="71.762" fill="black">
<rect fill="white" x="22.0132" y="1.09717" width="71.762" height="71.762"/>
<path d="M29.3922 32.6441C27.5187 28.6265 29.2569 23.8509 33.2745 21.9775L62.3725 8.40884C66.3901 6.5354 71.1658 8.27358 73.0392 12.2912L86.6078 41.3892C88.4813 45.4068 86.7431 50.1824 82.7255 52.0559L53.6275 65.6245C49.6099 67.498 44.8342 65.7598 42.9608 61.7422L29.3922 32.6441Z"/>
</mask>
<path d="M29.3922 32.6441C27.5187 28.6265 29.2569 23.8509 33.2745 21.9775L62.3725 8.40884C66.3901 6.5354 71.1658 8.27358 73.0392 12.2912L86.6078 41.3892C88.4813 45.4068 86.7431 50.1824 82.7255 52.0559L53.6275 65.6245C49.6099 67.498 44.8342 65.7598 42.9608 61.7422L29.3922 32.6441Z" fill="#A5E22B"/>
<path d="M34.1225 23.7961L63.2206 10.2275L61.5245 6.59021L32.4265 20.1588L34.1225 23.7961ZM71.2206 13.1392L84.7892 42.2373L88.4265 40.5412L74.8578 11.4431L71.2206 13.1392ZM81.8775 50.2373L52.7794 63.8059L54.4755 67.4431L83.5735 53.8745L81.8775 50.2373ZM44.7794 60.8941L31.2108 31.7961L27.5735 33.4922L41.1422 62.5902L44.7794 60.8941ZM52.7794 63.8059C49.7662 65.211 46.1845 63.9073 44.7794 60.8941L41.1422 62.5902C43.484 67.6122 49.4535 69.7849 54.4755 67.4431L52.7794 63.8059ZM84.7892 42.2373C86.1943 45.2505 84.8906 48.8322 81.8775 50.2373L83.5735 53.8745C88.5955 51.5327 90.7683 45.5632 88.4265 40.5412L84.7892 42.2373ZM63.2206 10.2275C66.2338 8.82239 69.8155 10.126 71.2206 13.1392L74.8578 11.4431C72.516 6.42114 66.5465 4.24841 61.5245 6.59021L63.2206 10.2275ZM32.4265 20.1588C27.4045 22.5006 25.2317 28.4702 27.5735 33.4922L31.2108 31.7961C29.8057 28.7829 31.1093 25.2012 34.1225 23.7961L32.4265 20.1588Z" fill="white" mask="url(#path-1-outside-1_533_2188)"/>
<path d="M57.9523 48.0249L50.3962 31.8209L54.4972 29.9086C55.9109 29.2494 57.0951 28.9163 58.0499 28.9095C58.9985 28.8894 59.81 29.1847 60.4846 29.7957C61.1529 30.3933 61.7669 31.2922 62.3266 32.4925L65.0692 38.3739C65.6351 39.5876 65.9384 40.6558 65.979 41.5785C66.0134 42.488 65.7211 43.3062 65.1022 44.0332C64.4966 44.754 63.4936 45.4409 62.0933 46.0939L57.9523 48.0249ZM60.3764 43.8745L60.9365 43.6133C61.4833 43.3583 61.8395 43.0948 62.0049 42.8228C62.1703 42.5509 62.2051 42.2424 62.1092 41.8974C62.0266 41.5463 61.8734 41.1306 61.6495 40.6505L58.3566 33.5888C58.1327 33.1087 57.9123 32.7406 57.6955 32.4845C57.492 32.2222 57.2391 32.0803 56.9369 32.0589C56.6346 32.0374 56.2167 32.1511 55.6833 32.3999L55.1431 32.6517L60.3764 43.8745Z" fill="white"/>
</g>
<mask id="path-4-outside-2_533_2188" maskUnits="userSpaceOnUse" x="71.0531" y="4.92041" width="54" height="54" fill="black">
<rect fill="white" x="71.0531" y="4.92041" width="54" height="54"/>
<path d="M74.0531 15.9469C74.0531 11.514 77.6467 7.92041 82.0796 7.92041H114.186C118.619 7.92041 122.212 11.514 122.212 15.9469V48.0531C122.212 52.486 118.619 56.0796 114.186 56.0796H82.0796C77.6467 56.0796 74.0531 52.486 74.0531 48.0531V15.9469Z"/>
</mask>
<path d="M74.0531 15.9469C74.0531 11.514 77.6467 7.92041 82.0796 7.92041H114.186C118.619 7.92041 122.212 11.514 122.212 15.9469V48.0531C122.212 52.486 118.619 56.0796 114.186 56.0796H82.0796C77.6467 56.0796 74.0531 52.486 74.0531 48.0531V15.9469Z" fill="#121212"/>
<path d="M82.0796 9.92704H114.186V5.91378H82.0796V9.92704ZM120.206 15.9469V48.0531H124.219V15.9469H120.206ZM114.186 54.073H82.0796V58.0862H114.186V54.073ZM76.0597 48.0531V15.9469H72.0465V48.0531H76.0597ZM82.0796 54.073C78.7549 54.073 76.0597 51.3778 76.0597 48.0531H72.0465C72.0465 53.5942 76.5385 58.0862 82.0796 58.0862V54.073ZM120.206 48.0531C120.206 51.3778 117.51 54.073 114.186 54.073V58.0862C119.727 58.0862 124.219 53.5942 124.219 48.0531H120.206ZM114.186 9.92704C117.51 9.92704 120.206 12.6222 120.206 15.9469H124.219C124.219 10.4058 119.727 5.91378 114.186 5.91378V9.92704ZM82.0796 5.91378C76.5385 5.91378 72.0465 10.4058 72.0465 15.9469H76.0597C76.0597 12.6222 78.7549 9.92704 82.0796 9.92704V5.91378Z" fill="white" mask="url(#path-4-outside-2_533_2188)"/>
<path d="M98.5581 42.2222C97.219 42.2222 96.1595 41.9867 95.3796 41.5158C94.5997 41.0449 94.0405 40.368 93.702 39.4851C93.3636 38.6022 93.1944 37.55 93.1944 36.3287V29.6847C93.1944 28.4486 93.3636 27.3965 93.702 26.5283C94.0405 25.6601 94.5997 24.9979 95.3796 24.5417C96.1595 24.0708 97.219 23.8354 98.5581 23.8354C99.9119 23.8354 100.979 24.0708 101.759 24.5417C102.553 24.9979 103.12 25.6601 103.458 26.5283C103.797 27.3965 103.966 28.4486 103.966 29.6847V36.3287C103.966 37.55 103.797 38.6022 103.458 39.4851C103.12 40.368 102.553 41.0449 101.759 41.5158C100.979 41.9867 99.9119 42.2222 98.5581 42.2222ZM98.5581 39.4189C98.9701 39.4189 99.2718 39.3159 99.4631 39.1099C99.6544 38.9038 99.7795 38.639 99.8383 38.3152C99.8972 37.9915 99.9266 37.6604 99.9266 37.322V28.7135C99.9266 28.3603 99.8972 28.0292 99.8383 27.7202C99.7795 27.3965 99.6544 27.1316 99.4631 26.9256C99.2718 26.7196 98.9701 26.6166 98.5581 26.6166C98.1755 26.6166 97.8886 26.7196 97.6973 26.9256C97.506 27.1316 97.3809 27.3965 97.322 27.7202C97.2632 28.0292 97.2337 28.3603 97.2337 28.7135V37.322C97.2337 37.6604 97.2558 37.9915 97.2999 38.3152C97.3588 38.639 97.4765 38.9038 97.6531 39.1099C97.8444 39.3159 98.1461 39.4189 98.5581 39.4189Z" fill="white"/>
<g filter="url(#filter2_i_533_2188)">
<mask id="path-7-outside-3_533_2188" maskUnits="userSpaceOnUse" x="102.346" y="1.02982" width="71.762" height="71.762" fill="black">
<rect fill="white" x="102.346" y="1.02982" width="71.762" height="71.762"/>
<path d="M123.226 12.2911C125.1 8.27351 129.875 6.53532 133.893 8.40876L162.991 21.9774C167.008 23.8508 168.747 28.6265 166.873 32.6441L153.305 61.7421C151.431 65.7597 146.655 67.4979 142.638 65.6244L113.54 52.0558C109.522 50.1824 107.784 45.4067 109.657 41.3891L123.226 12.2911Z"/>
</mask>
<path d="M123.226 12.2911C125.1 8.27351 129.875 6.53532 133.893 8.40876L162.991 21.9774C167.008 23.8508 168.747 28.6265 166.873 32.6441L153.305 61.7421C151.431 65.7597 146.655 67.4979 142.638 65.6244L113.54 52.0558C109.522 50.1824 107.784 45.4067 109.657 41.3891L123.226 12.2911Z" fill="#FF8C42"/>
<path d="M133.045 10.2274L162.143 23.796L163.839 20.1588L134.741 6.59013L133.045 10.2274ZM165.055 31.796L151.486 60.8941L155.123 62.5901L168.692 33.4921L165.055 31.796ZM143.486 63.8058L114.388 50.2372L112.692 53.8744L141.79 67.4431L143.486 63.8058ZM111.476 42.2372L125.045 13.1392L121.407 11.4431L107.839 40.5411L111.476 42.2372ZM114.388 50.2372C111.375 48.8321 110.071 45.2504 111.476 42.2372L107.839 40.5411C105.497 45.5631 107.67 51.5326 112.692 53.8744L114.388 50.2372ZM151.486 60.8941C150.081 63.9073 146.499 65.2109 143.486 63.8058L141.79 67.4431C146.812 69.7849 152.781 67.6121 155.123 62.5901L151.486 60.8941ZM162.143 23.796C165.156 25.2011 166.46 28.7828 165.055 31.796L168.692 33.4921C171.034 28.4701 168.861 22.5006 163.839 20.1588L162.143 23.796ZM134.741 6.59013C129.719 4.24834 123.749 6.42107 121.407 11.4431L125.045 13.1392C126.45 10.126 130.032 8.82231 133.045 10.2274L134.741 6.59013Z" fill="white" mask="url(#path-7-outside-3_533_2188)"/>
<path d="M132.55 45.3377L140.106 29.1337L143.687 30.8035L136.131 47.0075L132.55 45.3377Z" fill="white"/>
</g>
</g>
<defs>
<filter id="filter0_dddd_533_2188" x="0.917088" y="-5.01658" width="194.431" height="162.325" filterUnits="userSpaceOnUse" color-interpolation-filters="sRGB">
<feFlood flood-opacity="0" result="BackgroundImageFix"/>
<feColorMatrix in="SourceAlpha" type="matrix" values="0 0 0 0 0 0 0 0 0 0 0 0 0 0 0 0 0 0 127 0" result="hardAlpha"/>
<feOffset dy="4.01327"/>
<feGaussianBlur stdDeviation="4.51492"/>
<feColorMatrix type="matrix" values="0 0 0 0 0.439216 0 0 0 0 0.439216 0 0 0 0 0.439216 0 0 0 0.1 0"/>
<feBlend mode="normal" in2="BackgroundImageFix" result="effect1_dropShadow_533_2188"/>
<feColorMatrix in="SourceAlpha" type="matrix" values="0 0 0 0 0 0 0 0 0 0 0 0 0 0 0 0 0 0 127 0" result="hardAlpha"/>
<feOffset dy="16.0531"/>
<feGaussianBlur stdDeviation="8.02653"/>
<feColorMatrix type="matrix" values="0 0 0 0 0.439216 0 0 0 0 0.439216 0 0 0 0 0.439216 0 0 0 0.09 0"/>
<feBlend mode="normal" in2="effect1_dropShadow_533_2188" result="effect2_dropShadow_533_2188"/>
<feColorMatrix in="SourceAlpha" type="matrix" values="0 0 0 0 0 0 0 0 0 0 0 0 0 0 0 0 0 0 127 0" result="hardAlpha"/>
<feOffset dy="36.1194"/>
<feGaussianBlur stdDeviation="10.5348"/>
<feColorMatrix type="matrix" values="0 0 0 0 0.439216 0 0 0 0 0.439216 0 0 0 0 0.439216 0 0 0 0.05 0"/>
<feBlend mode="normal" in2="effect2_dropShadow_533_2188" result="effect3_dropShadow_533_2188"/>
<feColorMatrix in="SourceAlpha" type="matrix" values="0 0 0 0 0 0 0 0 0 0 0 0 0 0 0 0 0 0 127 0" result="hardAlpha"/>
<feOffset dy="63.2089"/>
<feGaussianBlur stdDeviation="12.5415"/>
<feColorMatrix type="matrix" values="0 0 0 0 0.439216 0 0 0 0 0.439216 0 0 0 0 0.439216 0 0 0 0.01 0"/>
<feBlend mode="normal" in2="effect3_dropShadow_533_2188" result="effect4_dropShadow_533_2188"/>
<feBlend mode="normal" in="SourceGraphic" in2="effect4_dropShadow_533_2188" result="shape"/>
</filter>
<filter id="filter1_i_533_2188" x="26" y="5.0166" width="64" height="68.0133" filterUnits="userSpaceOnUse" color-interpolation-filters="sRGB">
<feFlood flood-opacity="0" result="BackgroundImageFix"/>
<feBlend mode="normal" in="SourceGraphic" in2="BackgroundImageFix" result="shape"/>
<feColorMatrix in="SourceAlpha" type="matrix" values="0 0 0 0 0 0 0 0 0 0 0 0 0 0 0 0 0 0 127 0" result="hardAlpha"/>
<feMorphology radius="4.01327" operator="erode" in="SourceAlpha" result="effect1_innerShadow_533_2188"/>
<feOffset dy="4.01327"/>
<feGaussianBlur stdDeviation="5.01658"/>
<feComposite in2="hardAlpha" operator="arithmetic" k2="-1" k3="1"/>
<feColorMatrix type="matrix" values="0 0 0 0 0.37236 0 0 0 0 0.750147 0 0 0 0 0.0834636 0 0 0 1 0"/>
<feBlend mode="normal" in2="shape" result="effect1_innerShadow_533_2188"/>
</filter>
<filter id="filter2_i_533_2188" x="106.265" y="5.0166" width="64" height="68.0133" filterUnits="userSpaceOnUse" color-interpolation-filters="sRGB">
<feFlood flood-opacity="0" result="BackgroundImageFix"/>
<feBlend mode="normal" in="SourceGraphic" in2="BackgroundImageFix" result="shape"/>
<feColorMatrix in="SourceAlpha" type="matrix" values="0 0 0 0 0 0 0 0 0 0 0 0 0 0 0 0 0 0 127 0" result="hardAlpha"/>
<feMorphology radius="4.01327" operator="erode" in="SourceAlpha" result="effect1_innerShadow_533_2188"/>
<feOffset dy="4.01327"/>
<feGaussianBlur stdDeviation="5.01658"/>
<feComposite in2="hardAlpha" operator="arithmetic" k2="-1" k3="1"/>
<feColorMatrix type="matrix" values="0 0 0 0 0.892855 0 0 0 0 0.447205 0 0 0 0 0.00155494 0 0 0 1 0"/>
<feBlend mode="normal" in2="shape" result="effect1_innerShadow_533_2188"/>
</filter>
</defs>
</svg>
