<svg width="28" height="28" viewBox="0 0 28 28" fill="none" xmlns="http://www.w3.org/2000/svg">
<path d="M13.9999 26.7528C19.9392 26.7528 24.7539 21.938 24.7539 15.9987C24.7539 10.0594 19.9392 5.24463 13.9999 5.24463C8.06061 5.24463 3.24585 10.0594 3.24585 15.9987C3.24585 21.938 8.06061 26.7528 13.9999 26.7528Z" fill="#A5E22B"/>
<path fill-rule="evenodd" clip-rule="evenodd" d="M8.36293 2.859C9.11329 2.5079 9.43695 1.61501 9.08587 0.864655C8.73477 0.114303 7.84189 -0.209365 7.09153 0.141724C4.36407 1.4179 2.02169 3.3757 0.282187 5.79532C-0.201387 6.46796 -0.0481191 7.40526 0.624523 7.88884C1.29716 8.37242 2.23445 8.21914 2.71803 7.5465C4.16123 5.53906 6.10429 3.91582 8.36293 2.859ZM18.9144 0.864655C19.2655 0.114303 20.1583 -0.209365 20.9087 0.141724C23.6361 1.4179 25.9785 3.3757 27.7181 5.79532C28.2017 6.46796 28.0483 7.40526 27.3757 7.88884C26.7031 8.37242 25.7657 8.21914 25.2821 7.5465C23.8389 5.53906 21.8959 3.91582 19.6373 2.859C18.887 2.5079 18.5633 1.61501 18.9144 0.864655ZM4.49603 15.9991C4.49603 10.7501 8.75115 6.49498 14.0001 6.49498C19.2491 6.49498 23.5041 10.7501 23.5041 15.9991C23.5041 21.248 19.2491 25.5032 14.0001 25.5032C8.75115 25.5032 4.49603 21.248 4.49603 15.9991ZM14.0001 3.99498C7.37043 3.99498 1.99602 9.3694 1.99602 15.9991C1.99602 22.6288 7.37043 28.0032 14.0001 28.0032C20.6297 28.0032 26.0041 22.6288 26.0041 15.9991C26.0041 9.3694 20.6297 3.99498 14.0001 3.99498ZM15.5001 9.9989C15.5001 9.17046 14.8285 8.4989 14.0001 8.4989C13.1717 8.4989 12.5001 9.17046 12.5001 9.9989V15.9989C12.5001 16.8273 13.1717 17.4989 14.0001 17.4989H19.0001C19.8285 17.4989 20.5001 16.8273 20.5001 15.9989C20.5001 15.1705 19.8285 14.4989 19.0001 14.4989H15.5001V9.9989Z" fill="#121212"/>
</svg>
