<svg width="21" height="18" viewBox="0 0 21 18" fill="none" xmlns="http://www.w3.org/2000/svg">
<path fill-rule="evenodd" clip-rule="evenodd" d="M11.8036 4.42854C11.8036 6.79546 9.88479 8.71425 7.51786 8.71425C5.15093 8.71425 3.23214 6.79546 3.23214 4.42854C3.23214 2.06161 5.15093 0.142822 7.51786 0.142822C9.88479 0.142822 11.8036 2.06161 11.8036 4.42854ZM7.51786 10.1428C3.57297 10.1428 0.375 13.3408 0.375 17.2856C0.375 17.6801 0.694797 17.9999 1.08929 17.9999H13.9464C14.3409 17.9999 14.6607 17.6801 14.6607 17.2856C14.6607 13.3408 11.4627 10.1428 7.51786 10.1428ZM19.6609 17.9999H16.343C16.4104 17.7736 16.4466 17.5338 16.4466 17.2856C16.4466 14.3698 15.0489 11.7804 12.8869 10.151C13.0013 10.1455 13.1165 10.1428 13.2323 10.1428C17.1771 10.1428 20.3751 13.3408 20.3751 17.2856C20.3751 17.6801 20.0553 17.9999 19.6609 17.9999ZM13.2323 8.71425C12.8012 8.71425 12.385 8.65061 11.9926 8.53222C12.9842 7.45161 13.5894 6.01075 13.5894 4.42854C13.5894 2.84632 12.9842 1.40546 11.9926 0.324836C12.385 0.206451 12.8012 0.142822 13.2323 0.142822C15.5991 0.142822 17.518 2.06161 17.518 4.42854C17.518 6.79546 15.5991 8.71425 13.2323 8.71425Z" fill="#C84E00"/>
</svg>
