<svg width="12" height="14" viewBox="0 0 12 14" fill="none" xmlns="http://www.w3.org/2000/svg">
<path d="M8 11C8.27614 11 8.5 10.7761 8.5 10.5C8.5 10.2239 8.27614 10 8 10C7.72386 10 7.5 10.2239 7.5 10.5C7.5 10.7761 7.72386 11 8 11Z" stroke="#C84E00" stroke-linecap="round" stroke-linejoin="round"/>
<path d="M10.9375 12.2187C10.9375 12.771 10.4898 13.2188 9.9375 13.2188H2.0625C1.51022 13.2188 1.0625 12.771 1.0625 12.2188V1.78125C1.0625 1.22897 1.51022 0.78125 2.0625 0.78125H9.9375C10.4898 0.78125 10.9375 1.22897 10.9375 1.78125V12.2187Z" stroke="#C84E00" stroke-linecap="round" stroke-linejoin="round"/>
<path d="M9.03076 7.54017H2.96875V2.49219H9.03076V7.54017Z" stroke="#C84E00" stroke-linecap="round" stroke-linejoin="round"/>
<path d="M4.13379 11.3527V9.64746" stroke="#C84E00" stroke-linecap="round" stroke-linejoin="round"/>
<path d="M3.28125 10.5H4.98653" stroke="#C84E00" stroke-linecap="round" stroke-linejoin="round"/>
</svg>
