<svg width="25" height="24" viewBox="0 0 25 24" fill="none" xmlns="http://www.w3.org/2000/svg">
<path fill-rule="evenodd" clip-rule="evenodd" d="M12.477 2.5723C11.7599 2.55945 11.0473 2.68821 10.3801 2.95121C9.71288 3.21422 9.10412 3.60629 8.58869 4.10498C8.07325 4.60366 7.66127 5.19914 7.37638 5.85732C7.0927 6.51267 6.94057 7.21735 6.92857 7.93131V8.57143V12.4297V15.4286C6.92857 16.3753 6.16105 17.1429 5.21429 17.1429H3.07143C1.65127 17.1429 0.5 15.9916 0.5 14.5714V11.1429C0.5 9.72269 1.65127 8.57143 3.07143 8.57143H4.35714V7.92108V7.90166C4.37309 6.84631 4.59726 5.80445 5.01654 4.83583C5.43582 3.86721 6.04213 2.99083 6.80069 2.25693C7.55924 1.52301 8.45518 0.945993 9.43712 0.558931C10.4119 0.174687 11.4525 -0.0148615 12.5 0.000909105C13.5475 -0.0148615 14.5881 0.174687 15.5629 0.558931C16.5448 0.945993 17.4408 1.52301 18.1993 2.25693C18.9579 2.99083 19.5642 3.86721 19.9834 4.83583C20.4027 5.80445 20.6267 6.84631 20.6427 7.90166L20.643 7.92108L20.6429 8.57143H21.9286C23.3487 8.57143 24.5 9.72269 24.5 11.1429V14.5714C24.5 15.9916 23.3487 17.1429 21.9286 17.1429H20.6429V18C20.6429 19.2502 20.1462 20.4494 19.262 21.3334C18.5038 22.0917 17.5139 22.565 16.4587 22.6845C16.0185 23.4694 15.1784 24 14.2143 24H11.6429C10.2227 24 9.07143 22.8487 9.07143 21.4286C9.07143 20.0085 10.2227 18.8571 11.6429 18.8571H14.2143C15.1434 18.8571 15.9574 19.3498 16.4092 20.0883C16.7979 19.9989 17.1573 19.8017 17.4438 19.5153C17.8457 19.1134 18.0714 18.5683 18.0714 18V7.93133C18.0594 7.21737 17.9074 6.51267 17.6236 5.85732C17.3387 5.19914 16.9267 4.60366 16.4113 4.10498C15.8959 3.60629 15.2871 3.21422 14.6199 2.95121C13.9527 2.68821 13.2401 2.55945 12.523 2.5723C12.5077 2.57258 12.4923 2.57258 12.477 2.5723Z" fill="#C84E00"/>
</svg>
