<svg width="24" height="24" viewBox="0 0 24 24" fill="none" xmlns="http://www.w3.org/2000/svg">
<path fill-rule="evenodd" clip-rule="evenodd" d="M24 12C24 18.6274 18.6274 24 12 24C5.37259 24 0 18.6274 0 12C0 5.37259 5.37259 0 12 0C18.6274 0 24 5.37259 24 12ZM9.85714 9C9.85714 7.81653 10.8165 6.85714 12 6.85714C13.1835 6.85714 14.1429 7.81653 14.1429 9C14.1429 10.1835 13.1835 11.1429 12 11.1429C11.2899 11.1429 10.7143 11.7185 10.7143 12.4286V13.5368C10.7143 14.2469 11.2899 14.8225 12 14.8225C12.7101 14.8225 13.2857 14.2469 13.2857 13.5368C15.2644 12.9772 16.7143 11.1579 16.7143 9C16.7143 6.39638 14.6036 4.28571 12 4.28571C9.39638 4.28571 7.28571 6.39638 7.28571 9C7.28571 9.71007 7.86135 10.2857 8.57143 10.2857C9.2815 10.2857 9.85714 9.71007 9.85714 9ZM13.7143 18C13.7143 18.9468 12.9468 19.7143 12 19.7143C11.0532 19.7143 10.2857 18.9468 10.2857 18C10.2857 17.0532 11.0532 16.2857 12 16.2857C12.9468 16.2857 13.7143 17.0532 13.7143 18Z" fill="#C84E00"/>
</svg>
