<svg width="31" height="32" viewBox="0 0 31 32" fill="none" xmlns="http://www.w3.org/2000/svg">
<rect x="0.927536" y="0.928818" width="27.8261" height="27.8261" rx="13.913" fill="#FFD2B6" stroke="#FFD2B6" stroke-width="1.85507"/>
<path d="M15.1892 19.4994C16.0796 19.4994 16.8031 20.2228 16.8031 21.1133C16.8031 22.0037 16.0796 22.6901 15.1892 22.6901C14.2988 22.6901 13.5567 22.0037 13.5567 21.1133C13.5567 20.2228 14.2988 19.4994 15.1892 19.4994ZM13.835 13.9898L11.4976 14.1567C11.3306 11.875 12.4993 9.70457 14.948 9.53761C17.137 9.42631 18.9735 11.0402 18.9735 13.2663C18.9735 15.1585 18.1388 16.0489 17.3596 16.8837C16.8588 17.3846 16.4135 17.8854 16.4135 18.8315H14.0576C14.0576 16.995 14.8367 16.1602 15.6344 15.2698C16.1353 14.7689 16.6362 14.2124 16.6362 13.2663C16.6362 12.3759 15.9683 11.875 15.115 11.9307C14.002 11.9863 13.7793 13.0994 13.835 13.9898Z" fill="#E5770A"/>
</svg>
