<svg width="33" height="32" viewBox="0 0 33 32" fill="none" xmlns="http://www.w3.org/2000/svg">
<g clip-path="url(#clip0_339_7802)">
<path d="M16.5 2.88125C20.775 2.88125 21.2813 2.9 22.9625 2.975C24.525 3.04375 25.3688 3.30625 25.9313 3.525C26.675 3.8125 27.2125 4.1625 27.7688 4.71875C28.3313 5.28125 28.675 5.8125 28.9625 6.55625C29.1813 7.11875 29.4438 7.96875 29.5125 9.525C29.5875 11.2125 29.6063 11.7188 29.6063 15.9875C29.6063 20.2625 29.5875 20.7688 29.5125 22.45C29.4438 24.0125 29.1813 24.8563 28.9625 25.4188C28.675 26.1625 28.325 26.7 27.7688 27.2563C27.2063 27.8188 26.675 28.1625 25.9313 28.45C25.3688 28.6688 24.5188 28.9313 22.9625 29C21.275 29.075 20.7688 29.0938 16.5 29.0938C12.225 29.0938 11.7188 29.075 10.0375 29C8.475 28.9313 7.63125 28.6688 7.06875 28.45C6.325 28.1625 5.7875 27.8125 5.23125 27.2563C4.66875 26.6938 4.325 26.1625 4.0375 25.4188C3.81875 24.8563 3.55625 24.0063 3.4875 22.45C3.4125 20.7625 3.39375 20.2563 3.39375 15.9875C3.39375 11.7125 3.4125 11.2062 3.4875 9.525C3.55625 7.9625 3.81875 7.11875 4.0375 6.55625C4.325 5.8125 4.675 5.275 5.23125 4.71875C5.79375 4.15625 6.325 3.8125 7.06875 3.525C7.63125 3.30625 8.48125 3.04375 10.0375 2.975C11.7188 2.9 12.225 2.88125 16.5 2.88125ZM16.5 0C12.1563 0 11.6125 0.01875 9.90625 0.09375C8.20625 0.16875 7.0375 0.44375 6.025 0.8375C4.96875 1.25 4.075 1.79375 3.1875 2.6875C2.29375 3.575 1.75 4.46875 1.3375 5.51875C0.94375 6.5375 0.66875 7.7 0.59375 9.4C0.51875 11.1125 0.5 11.6563 0.5 16C0.5 20.3438 0.51875 20.8875 0.59375 22.5938C0.66875 24.2938 0.94375 25.4625 1.3375 26.475C1.75 27.5313 2.29375 28.425 3.1875 29.3125C4.075 30.2 4.96875 30.75 6.01875 31.1563C7.0375 31.55 8.2 31.825 9.9 31.9C11.6063 31.975 12.15 31.9937 16.4938 31.9937C20.8375 31.9937 21.3813 31.975 23.0875 31.9C24.7875 31.825 25.9563 31.55 26.9688 31.1563C28.0188 30.75 28.9125 30.2 29.8 29.3125C30.6875 28.425 31.2375 27.5313 31.6438 26.4813C32.0375 25.4625 32.3125 24.3 32.3875 22.6C32.4625 20.8938 32.4813 20.35 32.4813 16.0063C32.4813 11.6625 32.4625 11.1188 32.3875 9.4125C32.3125 7.7125 32.0375 6.54375 31.6438 5.53125C31.25 4.46875 30.7063 3.575 29.8125 2.6875C28.925 1.8 28.0313 1.25 26.9813 0.84375C25.9625 0.45 24.8 0.175 23.1 0.1C21.3875 0.01875 20.8438 0 16.5 0Z" fill="#C84E00"/>
<path d="M16.5 7.78125C11.9625 7.78125 8.28125 11.4625 8.28125 16C8.28125 20.5375 11.9625 24.2188 16.5 24.2188C21.0375 24.2188 24.7188 20.5375 24.7188 16C24.7188 11.4625 21.0375 7.78125 16.5 7.78125ZM16.5 21.3312C13.5563 21.3312 11.1687 18.9438 11.1687 16C11.1687 13.0563 13.5563 10.6687 16.5 10.6687C19.4438 10.6687 21.8312 13.0563 21.8312 16C21.8312 18.9438 19.4438 21.3312 16.5 21.3312Z" fill="#C84E00"/>
<path d="M26.9625 7.45684C26.9625 8.51934 26.1 9.37559 25.0438 9.37559C23.9813 9.37559 23.125 8.51309 23.125 7.45684C23.125 6.39434 23.9875 5.53809 25.0438 5.53809C26.1 5.53809 26.9625 6.40059 26.9625 7.45684Z" fill="#C84E00"/>
</g>
<defs>
<clipPath id="clip0_339_7802">
<rect width="32" height="32" fill="white" transform="translate(0.5)"/>
</clipPath>
</defs>
</svg>
