<svg width="25" height="24" viewBox="0 0 25 24" fill="none" xmlns="http://www.w3.org/2000/svg">
<g clip-path="url(#clip0_175_4389)">
<path d="M3.07115 23.1429L21.9283 23.1429C22.8751 23.1429 23.6426 22.3754 23.6426 21.4286V11.1429C23.6426 10.1961 22.8751 9.4286 21.9283 9.4286L3.07115 9.4286C2.12435 9.4286 1.35686 10.1961 1.35686 11.1429V21.4286C1.35686 22.3754 2.12435 23.1429 3.07115 23.1429Z" stroke="#D7A07D" stroke-width="1.71429" stroke-linecap="round" stroke-linejoin="round"/>
<path d="M15.0713 14.1429H9.92843" stroke="#D7A07D" stroke-width="1.71429" stroke-linecap="round" stroke-linejoin="round"/>
<path d="M20.2139 14.1429H18.4996" stroke="#D7A07D" stroke-width="1.71429" stroke-linecap="round" stroke-linejoin="round"/>
<path d="M6.5 14.1429H4.78571" stroke="#D7A07D" stroke-width="1.71429" stroke-linecap="round" stroke-linejoin="round"/>
<path d="M20.2139 18.4286H18.4996" stroke="#D7A07D" stroke-width="1.71429" stroke-linecap="round" stroke-linejoin="round"/>
<path d="M15.6416 18.4286H13.9273" stroke="#D7A07D" stroke-width="1.71429" stroke-linecap="round" stroke-linejoin="round"/>
<path d="M11.0713 18.4286H9.357" stroke="#D7A07D" stroke-width="1.71429" stroke-linecap="round" stroke-linejoin="round"/>
<path d="M6.5 18.4286H4.78571" stroke="#D7A07D" stroke-width="1.71429" stroke-linecap="round" stroke-linejoin="round"/>
<path d="M15.9277 4.28577L12.4992 0.857195L9.07059 4.28577" stroke="#D7A07D" stroke-width="1.71429" stroke-linecap="round" stroke-linejoin="round"/>
</g>
<defs>
<clipPath id="clip0_175_4389">
<rect width="24" height="24" fill="white" transform="matrix(-1 0 0 -1 24.5 24)"/>
</clipPath>
</defs>
</svg>
