<svg width="30" height="30" viewBox="0 0 30 30" fill="none" xmlns="http://www.w3.org/2000/svg">
<rect width="10" height="23.75" transform="translate(10 5)" fill="#A5E22B"/>
<path d="M14.1513 13.1396C13.9536 13.1396 13.8548 13.0408 13.8548 12.8432V9.20082L14.0172 9.08788L13.2407 9.81494C13.1819 9.87141 13.1195 9.90553 13.0536 9.9173C12.9878 9.92671 12.9231 9.89965 12.8595 9.83612C12.7325 9.70906 12.7395 9.57494 12.8807 9.43377L13.8266 8.502C13.9254 8.40318 14.0478 8.35377 14.1936 8.35377C14.3631 8.35377 14.4478 8.45259 14.4478 8.65024V12.8432C14.4478 13.0408 14.3489 13.1396 14.1513 13.1396Z" fill="white"/>
<rect width="8.75" height="15" transform="translate(21.25 13.75)" fill="#1E2A78"/>
<path d="M26.3091 21.7646H24.5491C24.4142 21.7646 24.3468 21.6988 24.3468 21.567C24.3468 21.3568 24.3797 21.178 24.4456 21.0305C24.513 20.8815 24.5985 20.756 24.7021 20.6541C24.8072 20.5505 24.9185 20.4635 25.0362 20.3929C25.1538 20.3207 25.2628 20.2556 25.3632 20.1976C25.5374 20.0988 25.6824 20.0133 25.7985 19.9411C25.9162 19.869 26.004 19.7952 26.0621 19.7199C26.1201 19.6446 26.1491 19.5529 26.1491 19.4446C26.1491 19.258 26.1154 19.1325 26.0479 19.0682C25.9821 19.0023 25.8574 18.9694 25.6738 18.9694H25.1703C25.0228 18.9694 24.9138 18.989 24.8432 19.0282C24.7726 19.0674 24.7279 19.1403 24.7091 19.247C24.6981 19.3097 24.677 19.3576 24.6456 19.3905C24.6142 19.4235 24.5664 19.4399 24.5021 19.4399C24.4362 19.4399 24.386 19.4227 24.3515 19.3882C24.317 19.3521 24.3028 19.3003 24.3091 19.2329C24.3421 19.0117 24.4291 18.847 24.5703 18.7388C24.7115 18.629 24.9115 18.5741 25.1703 18.5741H25.6738C25.9687 18.5741 26.1875 18.6454 26.3303 18.7882C26.473 18.9309 26.5444 19.1497 26.5444 19.4446C26.5444 19.6329 26.4981 19.7905 26.4056 19.9176C26.313 20.0431 26.1915 20.1545 26.0409 20.2517C25.8903 20.3474 25.7287 20.4439 25.5562 20.5411C25.4307 20.6133 25.3115 20.6854 25.1985 20.7576C25.0872 20.8297 24.9915 20.9137 24.9115 21.0094C24.833 21.105 24.7813 21.225 24.7562 21.3694H26.3091C26.4409 21.3694 26.5068 21.4352 26.5068 21.567C26.5068 21.6988 26.4409 21.7646 26.3091 21.7646Z" fill="white"/>
<rect width="8.75" height="11.25" transform="translate(0 17.5)" fill="#FF8C42"/>
<path d="M3.96881 23.5678C3.69672 23.5678 3.48604 23.511 3.33678 23.3975C3.18907 23.2825 3.09967 23.106 3.06857 22.8681C3.06235 22.8028 3.07635 22.7523 3.11055 22.7165C3.14476 22.6807 3.19451 22.6629 3.25982 22.6629C3.37954 22.6629 3.44639 22.7282 3.46039 22.8588C3.48216 22.9801 3.53113 23.0632 3.60732 23.1083C3.6835 23.1534 3.804 23.176 3.96881 23.176H4.50056C4.70113 23.176 4.83718 23.1402 4.9087 23.0687C4.98178 22.9956 5.01832 22.8603 5.01832 22.6629C5.01832 22.467 4.98178 22.3325 4.9087 22.2594C4.83718 22.1863 4.70113 22.1498 4.50056 22.1498H4.1414C4.01079 22.1498 3.94549 22.0845 3.94549 21.9539C3.94549 21.8233 4.01079 21.758 4.1414 21.758H4.67781C4.77576 21.758 4.84418 21.7144 4.88305 21.6274C4.92347 21.5387 4.94368 21.419 4.94368 21.2682C4.94368 21.0832 4.91026 20.9588 4.8434 20.895C4.7781 20.8297 4.65449 20.7971 4.47257 20.7971H4.02012C3.87397 20.7971 3.76591 20.8165 3.69594 20.8554C3.62598 20.8943 3.58166 20.9666 3.56301 21.0723C3.54435 21.1998 3.47594 21.2635 3.35777 21.2635C3.29247 21.2635 3.24271 21.2464 3.20851 21.2122C3.1743 21.1765 3.16186 21.1252 3.17119 21.0583C3.20229 20.8391 3.2878 20.6758 3.42774 20.5685C3.56923 20.4597 3.76669 20.4053 4.02012 20.4053H4.47257C4.76488 20.4053 4.98178 20.476 5.12327 20.6175C5.26475 20.759 5.3355 20.9759 5.3355 21.2682C5.3355 21.5558 5.25465 21.7595 5.09295 21.8792C5.20023 21.9492 5.27953 22.0487 5.33083 22.1778C5.3837 22.3068 5.41013 22.4685 5.41013 22.6629C5.41013 22.9707 5.33628 23.1985 5.18857 23.3462C5.04086 23.4939 4.81152 23.5678 4.50056 23.5678H3.96881Z" fill="white"/>
</svg>
