<svg width="20" height="20" viewBox="0 0 20 20" fill="none" xmlns="http://www.w3.org/2000/svg">
<path fill-rule="evenodd" clip-rule="evenodd" d="M13.5715 13.3301C15.7065 12.0951 17.1429 9.78673 17.1429 7.14286C17.1429 3.19797 13.9449 0 10 0C6.05515 0 2.85718 3.19797 2.85718 7.14286C2.85718 9.78673 4.29361 12.0951 6.42861 13.3301V15C6.42861 15.789 7.06821 16.4286 7.85718 16.4286H12.1429C12.9319 16.4286 13.5715 15.789 13.5715 15V13.3301ZM6.42861 18.9286C6.42861 18.3369 6.90831 17.8571 7.50003 17.8571H12.5C13.0918 17.8571 13.5715 18.3369 13.5715 18.9286C13.5715 19.5203 13.0918 20 12.5 20H7.50003C6.90831 20 6.42861 19.5203 6.42861 18.9286Z" fill="white"/>
</svg>
