<svg width="24" height="24" viewBox="0 0 24 24" fill="none" xmlns="http://www.w3.org/2000/svg">
<path fill-rule="evenodd" clip-rule="evenodd" d="M13.1511 4.7016L11.498 6.35498C10.8285 7.02447 9.74311 7.02454 9.07359 6.35511C8.4041 5.68568 8.40403 4.60025 9.07346 3.93074L10.7266 2.27738C13.7631 -0.759034 18.6861 -0.759103 21.7226 2.27731C24.7589 5.31368 24.7589 10.2366 21.7226 13.273L20.0693 14.9264C19.3999 15.5959 18.3146 15.596 17.645 14.9265C16.9755 14.2571 16.9755 13.1717 17.645 12.5022L19.2981 10.8488C20.9955 9.15134 20.9955 6.39914 19.2981 4.70167C17.6007 3.00423 14.8486 3.0042 13.1511 4.7016ZM6.35479 9.07346C7.02428 9.74288 7.02435 10.8283 6.35492 11.4978L4.70174 13.1512C3.00427 14.8487 3.0042 17.6009 4.70167 19.2984C6.39912 20.9957 9.15118 20.9957 10.8487 19.2984L12.5018 17.645C13.1713 16.9755 14.2567 16.9755 14.9262 17.645C15.5957 18.3144 15.5958 19.3997 14.9264 20.0693L13.2732 21.7226C10.2368 24.7589 5.3137 24.7591 2.27731 21.7227C-0.75908 18.6862 -0.759102 13.7634 2.27724 10.727L3.93041 9.07359C4.59984 8.4041 5.68527 8.40403 6.35479 9.07346ZM15.7836 10.6408C16.4531 9.97128 16.4531 8.88586 15.7836 8.21638C15.1141 7.54692 14.0287 7.54692 13.3592 8.21638L8.21638 13.3592C7.54692 14.0287 7.54692 15.1141 8.21638 15.7836C8.88586 16.4531 9.97128 16.4531 10.6408 15.7836L15.7836 10.6408Z" fill="#FF8C42"/>
</svg>
