<svg width="12" height="12" viewBox="0 0 12 12" fill="none" xmlns="http://www.w3.org/2000/svg">
<g clip-path="url(#clip0_364_9966)">
<path fill-rule="evenodd" clip-rule="evenodd" d="M0.428571 2.14383C0.428571 0.960368 1.38796 0.000976562 2.57143 0.000976562C3.75489 0.000976562 4.71429 0.960368 4.71429 2.14383C4.71429 3.3273 3.75489 4.28669 2.57143 4.28669C1.38796 4.28669 0.428571 3.3273 0.428571 2.14383ZM9.42857 0.000976562C8.24511 0.000976562 7.28571 0.960368 7.28571 2.14383C7.28571 3.3273 8.24511 4.28669 9.42857 4.28669C10.612 4.28669 11.5714 3.3273 11.5714 2.14383C11.5714 0.960368 10.612 0.000976562 9.42857 0.000976562ZM7.81196 6.30753C8.1407 5.69387 8.65526 5.14383 9.42857 5.14383C10.2019 5.14383 10.7164 5.69387 11.0452 6.30753C11.3784 6.92948 11.5888 7.73191 11.7255 8.49706C11.8634 9.26935 11.9317 10.0373 11.9658 10.6094C11.9829 10.8962 11.9914 11.1355 11.9957 11.3037C11.9979 11.3878 11.9989 11.4542 11.9995 11.4999L11.9999 11.5527L12 11.5668V11.5707V11.5718C12 11.572 12 11.5724 11.5714 11.5724L12 11.5718C12 11.8085 11.8081 12.001 11.5714 12.001H7.28571C7.04902 12.001 6.85714 11.8091 6.85714 11.5724H7.28571C6.85714 11.5724 6.85714 11.5726 6.85714 11.5724V11.5707L6.85715 11.5668L6.85721 11.5527L6.8577 11.4999C6.85824 11.4542 6.85932 11.3878 6.86146 11.3037C6.86576 11.1355 6.87431 10.8962 6.89139 10.6094C6.92544 10.0373 6.99377 9.26935 7.13168 8.49706C7.26831 7.73191 7.47877 6.92948 7.81196 6.30753ZM0 5.57241C0 5.33571 0.191878 5.14383 0.428571 5.14383H4.71429C4.95098 5.14383 5.14286 5.33571 5.14286 5.57241H4.71429C5.14286 5.57241 5.14286 5.57229 5.14286 5.57241V5.5741L5.14285 5.57797L5.14279 5.59209L5.1423 5.64489C5.14176 5.69064 5.14068 5.75704 5.13853 5.84115C5.13424 6.00929 5.12569 6.24857 5.10861 6.53537C5.07456 7.10749 5.00623 7.87547 4.86832 8.64775C4.73169 9.41292 4.52123 10.2154 4.18804 10.8373C3.8593 11.4509 3.34478 12.001 2.57143 12.001C1.79808 12.001 1.28355 11.4509 0.954814 10.8373C0.621625 10.2154 0.411167 9.41292 0.274531 8.64775C0.136626 7.87547 0.0682939 7.10749 0.0342393 6.53537C0.0171679 6.24857 0.00861403 6.00929 0.00432464 5.84115C0.00217913 5.75704 0.0010982 5.69064 0.000553532 5.64489L7.24963e-05 5.59209L9.88586e-06 5.57797L0 5.5741V5.57241C0 5.57229 0 5.57241 0.428571 5.57241H0Z" fill="#FF8C42"/>
</g>
<defs>
<clipPath id="clip0_364_9966">
<rect width="12" height="12" fill="white" transform="translate(0 0.000976562)"/>
</clipPath>
</defs>
</svg>
