<svg width="100" height="100" viewBox="0 0 100 100" fill="none" xmlns="http://www.w3.org/2000/svg">
<path d="M89.1161 79.9999C89.1161 79.9999 88.8781 82.6179 85.6141 83.5359C82.3501 84.4539 79.8721 81.5579 79.8721 81.5579V69.4639C79.8721 69.4639 88.5381 75.5359 89.1161 79.9999Z" fill="#A5E22B"/>
<path d="M84.3088 84.0699C81.5908 84.0699 79.6888 81.8899 79.5968 81.7819C79.5403 81.717 79.509 81.634 79.5088 81.5479V69.4639C79.5095 69.398 79.5282 69.3335 79.5627 69.2773C79.5973 69.2211 79.6465 69.1754 79.705 69.145C79.7635 69.1146 79.8292 69.1006 79.8951 69.1047C79.9609 69.1087 80.0244 69.1306 80.0788 69.1679C80.4388 69.4199 88.8788 75.3819 89.4788 79.9419C89.4828 79.9684 89.4828 79.9954 89.4788 80.0219C89.4688 80.1399 89.1788 82.8999 85.7148 83.8739C85.2573 84.0032 84.7842 84.0692 84.3088 84.0699ZM80.2348 81.3999C80.6868 81.8719 82.8348 83.9219 85.5168 83.1699C88.3048 82.3859 88.7168 80.2839 88.7508 79.9859C88.2408 76.3959 82.1508 71.5979 80.2348 70.1719V81.3999Z" fill="#A5E22B"/>
<path d="M89.1165 29.8099C84.5745 20.2939 61.8365 17.4099 50.6925 21.8999C41.7145 25.4999 36.7625 28.5839 31.6065 28.2179C26.4505 27.8519 15.3345 23.2979 15.3345 23.2979L10.9825 69.4639C10.9825 69.4639 8.60047 78.9179 28.3605 80.4319C40.2645 81.3439 44.1605 75.9519 52.3605 73.6199C63.1165 70.5619 73.2645 71.4719 80.9465 73.5979C87.4785 75.3979 89.1105 79.9979 89.1105 79.9979L89.1165 29.8099Z" fill="white"/>
<path d="M30.9304 80.896C30.1064 80.896 29.2424 80.862 28.3304 80.794C19.9684 80.152 14.4464 78.046 11.9184 74.53C10.1184 72.02 10.5544 69.708 10.6224 69.406L14.9724 23.266C14.9776 23.2099 14.9959 23.1557 15.0258 23.1079C15.0557 23.06 15.0964 23.0198 15.1446 22.9905C15.1928 22.9611 15.2471 22.9435 15.3033 22.9389C15.3596 22.9343 15.4161 22.9429 15.4684 22.964C15.5804 23.01 26.5884 27.5 31.6284 27.858C35.3724 28.124 39.1324 26.476 44.3424 24.2C46.1684 23.4 48.2404 22.496 50.5564 21.564C61.3564 17.224 84.6364 19.584 89.4404 29.654C89.4643 29.7025 89.4766 29.7559 89.4764 29.81V80C89.4766 80.0853 89.4466 80.1679 89.3917 80.233C89.3367 80.2982 89.2605 80.3418 89.1764 80.356C89.0927 80.3694 89.0069 80.3532 88.9339 80.3101C88.8608 80.267 88.8051 80.1998 88.7764 80.12C88.3923 79.2256 87.8556 78.4047 87.1904 77.694C86.1064 76.494 84.1284 74.862 80.8564 73.958C74.3124 72.146 64.0724 70.678 52.4664 73.98C49.7464 74.752 47.4664 75.888 45.2664 76.98C41.3704 78.906 37.3664 80.896 30.9304 80.896ZM15.6484 23.816L11.3424 69.498C11.3435 69.5167 11.3435 69.5354 11.3424 69.554C11.3424 69.574 10.8244 71.77 12.5304 74.126C14.1844 76.41 18.2804 79.296 28.3964 80.07C36.2064 80.67 40.4484 78.558 44.9404 76.326C47.1764 75.214 49.4884 74.064 52.2744 73.272C64.0424 69.926 74.4224 71.412 81.0564 73.248C84.5164 74.206 86.6124 75.942 87.7624 77.23C88.1276 77.6393 88.4618 78.0752 88.7624 78.534V29.892C86.7084 25.692 80.7244 22.444 72.3244 20.962C64.5864 19.598 56.1524 20.098 50.8364 22.236C48.5304 23.164 46.4644 24.066 44.6364 24.862C39.3324 27.182 35.5024 28.862 31.5824 28.58C26.9564 28.252 17.8144 24.684 15.6484 23.816Z" fill="#A5E22B"/>
<path d="M55.5446 71.5239C55.4486 71.5239 55.3565 71.4858 55.2886 71.4179C55.2208 71.35 55.1826 71.2579 55.1826 71.1619V22.5359C55.1826 22.4399 55.2208 22.3478 55.2886 22.2799C55.3565 22.2121 55.4486 22.1739 55.5446 22.1739C55.6406 22.1739 55.7327 22.2121 55.8006 22.2799C55.8685 22.3478 55.9066 22.4399 55.9066 22.5359V71.1619C55.9066 71.2579 55.8685 71.35 55.8006 71.4179C55.7327 71.4858 55.6406 71.5239 55.5446 71.5239Z" fill="#DFEAEF"/>
<path d="M74.1745 69.8279C74.1268 69.8279 74.0796 69.8185 74.0355 69.8002C73.9915 69.7819 73.9515 69.755 73.9178 69.7212C73.8842 69.6874 73.8576 69.6472 73.8395 69.6031C73.8214 69.5589 73.8122 69.5116 73.8125 69.4639V25.3999C73.8125 25.3039 73.8506 25.2118 73.9185 25.144C73.9864 25.0761 74.0785 25.0379 74.1745 25.0379C74.2705 25.0379 74.3626 25.0761 74.4305 25.144C74.4984 25.2118 74.5365 25.3039 74.5365 25.3999V69.4639C74.5368 69.5116 74.5276 69.5589 74.5095 69.6031C74.4915 69.6472 74.4648 69.6874 74.4312 69.7212C74.3975 69.755 74.3576 69.7819 74.3135 69.8002C74.2694 69.8185 74.2222 69.8279 74.1745 69.8279Z" fill="#DFEAEF"/>
<path d="M35.0007 77.5779C34.9047 77.5779 34.8126 77.5398 34.7447 77.4719C34.6768 77.404 34.6387 77.3119 34.6387 77.2159V29.0319C34.6387 28.9359 34.6768 28.8438 34.7447 28.7759C34.8126 28.7081 34.9047 28.6699 35.0007 28.6699C35.0967 28.6699 35.1888 28.7081 35.2566 28.7759C35.3245 28.8438 35.3627 28.9359 35.3627 29.0319V77.2159C35.3627 77.3119 35.3245 77.404 35.2566 77.4719C35.1888 77.5398 35.0967 77.5779 35.0007 77.5779Z" fill="#DFEAEF"/>
<path d="M28.1243 77.5779C21.1883 77.5779 17.1083 74.0199 16.9383 73.8679C16.8992 73.8375 16.8668 73.7994 16.8431 73.7559C16.8194 73.7125 16.8048 73.6646 16.8003 73.6153C16.7958 73.566 16.8015 73.5163 16.817 73.4693C16.8324 73.4223 16.8574 73.3789 16.8903 73.3419C16.9232 73.3049 16.9633 73.2751 17.0082 73.2542C17.0531 73.2333 17.1017 73.2219 17.1512 73.2206C17.2007 73.2192 17.2499 73.2281 17.2959 73.2466C17.3418 73.265 17.3835 73.2927 17.4183 73.3279C17.4583 73.3619 21.4763 76.8539 28.1243 76.8539C28.2203 76.8539 28.3123 76.8921 28.3802 76.96C28.4481 77.0278 28.4863 77.1199 28.4863 77.2159C28.4863 77.3119 28.4481 77.404 28.3802 77.4719C28.3123 77.5398 28.2203 77.5779 28.1243 77.5779Z" fill="#DFEAEF"/>
<path d="M36.4674 54.9381C36.9894 54.9721 37.6354 55.1381 37.7194 55.6601C37.8134 56.2301 37.1054 56.6601 37.1054 57.2441C37.1054 57.5121 37.2614 57.7581 37.2894 58.0241C37.3454 58.5581 36.8994 58.9961 36.5194 59.3741C35.2774 60.6021 34.3474 62.1041 33.4974 63.6301C33.2533 64.0353 33.0522 64.465 32.8974 64.9121C32.6539 65.7073 32.6892 66.5617 32.9974 67.3341C33.1081 67.5533 33.1824 67.7891 33.2174 68.0321C33.2324 68.1543 33.2058 68.2779 33.142 68.3831C33.0781 68.4883 32.9807 68.569 32.8654 68.6121C32.757 68.622 32.6477 68.6094 32.5445 68.5749C32.4412 68.5405 32.3462 68.4851 32.2654 68.4121L31.0234 67.5481C30.6698 67.3739 30.3748 67.1001 30.1747 66.7604C29.9747 66.4207 29.8783 66.0299 29.8974 65.6361L29.3994 60.1281C29.3954 59.8623 29.3268 59.6015 29.1994 59.3681C29.0468 59.1732 28.858 59.0095 28.6434 58.8861C27.9666 58.4189 27.3928 57.8179 26.9574 57.1201C26.7722 56.8558 26.6566 56.549 26.6214 56.2281C26.5994 55.7641 26.8594 55.3401 27.0214 54.9061C27.3054 54.1681 27.3274 53.3541 27.5754 52.6041C27.8234 51.8541 28.4234 51.1161 29.2134 51.1101C30.1334 51.1101 30.8134 52.0601 31.7154 52.1861C31.9834 52.2241 32.2594 52.1861 32.5154 52.2341C33.4134 52.4021 33.8134 53.3821 34.3774 53.9861C34.9214 54.5665 35.6725 54.9086 36.4674 54.9381Z" fill="#83BD10"/>
<path d="M32.774 68.9841C32.5165 68.9655 32.2708 68.8685 32.07 68.7061L30.828 67.8441C30.4306 67.6395 30.0993 67.3266 29.8724 66.9415C29.6455 66.5564 29.5324 66.1149 29.546 65.6681L29.032 60.1621C29.0309 59.9541 28.9831 59.7491 28.892 59.5621C28.7846 59.4295 28.6538 59.3176 28.506 59.2321L28.434 59.1821C27.717 58.6867 27.1092 58.0496 26.648 57.3101C26.4262 56.9946 26.2885 56.6277 26.248 56.2441C26.2555 55.8367 26.3582 55.4367 26.548 55.0761C26.594 54.9761 26.638 54.8761 26.676 54.7741C26.8076 54.3951 26.904 54.0048 26.964 53.6081C27.0252 53.23 27.1121 52.8564 27.224 52.4901C27.49 51.6901 28.166 50.7541 29.204 50.7461C29.804 50.7461 30.276 51.0461 30.736 51.3461C31.0388 51.5777 31.3871 51.7427 31.758 51.8301C31.867 51.8418 31.9765 51.8472 32.086 51.8461C32.2527 51.8419 32.4195 51.8533 32.584 51.8801C33.366 52.0261 33.816 52.6441 34.214 53.1921C34.3466 53.3835 34.4909 53.5665 34.646 53.7401C35.1238 54.2515 35.7847 54.5528 36.484 54.5781C37.394 54.6361 37.972 55.0101 38.07 55.6021C38.142 56.0421 37.906 56.4021 37.716 56.6901C37.5841 56.8502 37.4959 57.0417 37.46 57.2461C37.4693 57.3538 37.4942 57.4596 37.534 57.5601C37.5851 57.6985 37.6213 57.842 37.642 57.9881C37.716 58.6941 37.192 59.2121 36.772 59.6281C35.524 60.8621 34.61 62.3661 33.806 63.8081C33.5763 64.1916 33.3866 64.5977 33.24 65.0201C33.0222 65.7366 33.0539 66.5059 33.33 67.2021L33.38 67.3241C33.4878 67.5401 33.5556 67.7739 33.58 68.0141C33.6013 68.2212 33.5502 68.4292 33.4353 68.6028C33.3204 68.7763 33.1489 68.9047 32.95 68.9661C32.8922 68.9785 32.8332 68.9845 32.774 68.9841ZM29.226 51.4721C28.614 51.4721 28.132 52.1021 27.928 52.7181C27.8258 53.0529 27.7469 53.3944 27.692 53.7401C27.625 54.1813 27.5165 54.6152 27.368 55.0361C27.326 55.1481 27.276 55.2601 27.228 55.3701C27.0871 55.629 27.0052 55.9158 26.988 56.2101C27.0221 56.4688 27.1189 56.7153 27.27 56.9281C27.6783 57.5844 28.2175 58.1495 28.854 58.5881L28.922 58.6341C29.1852 58.7738 29.4036 58.9849 29.5522 59.2432C29.7008 59.5014 29.7735 59.7964 29.762 60.0941L30.268 65.6001C30.2751 65.9279 30.3479 66.2509 30.482 66.5501C30.6822 66.8353 30.9414 67.074 31.242 67.2501L32.482 68.1121C32.5676 68.1877 32.6719 68.2388 32.784 68.2601C32.8118 68.2352 32.8333 68.2041 32.8469 68.1694C32.8604 68.1346 32.8656 68.0972 32.862 68.0601C32.8394 67.9043 32.7922 67.7531 32.722 67.6121L32.664 67.4781C32.324 66.628 32.2859 65.6869 32.556 64.8121C32.7169 64.3414 32.9268 63.889 33.182 63.4621C34.01 61.9721 34.958 60.4181 36.264 59.1241C36.596 58.7961 36.966 58.4301 36.93 58.0701C36.9135 57.9761 36.8887 57.8838 36.856 57.7941C36.7892 57.6208 36.7514 57.4377 36.744 57.2521C36.7708 56.9036 36.9018 56.5712 37.12 56.2981C37.264 56.0781 37.39 55.8881 37.364 55.7261C37.318 55.4581 36.84 55.3261 36.446 55.3081C35.5615 55.2723 34.7269 54.8884 34.124 54.2401C33.9483 54.0448 33.7853 53.8383 33.636 53.6221C33.288 53.1441 32.958 52.6921 32.46 52.5981C32.3368 52.5811 32.2124 52.5738 32.088 52.5761C31.9471 52.5774 31.8061 52.57 31.666 52.5541C31.162 52.4841 30.75 52.2181 30.35 51.9541C29.95 51.6901 29.6 51.4721 29.226 51.4721Z" fill="#83BD10"/>
<path d="M27.2616 50.0001C27.1716 49.5241 26.8716 49.0541 26.4096 48.9061C25.8876 48.7401 25.2436 48.9921 24.8096 48.6521C24.4676 48.3841 24.4476 47.8801 24.4936 47.4521C24.5148 47.0464 24.6372 46.6524 24.8496 46.3061C24.9584 46.1353 25.1143 45.9996 25.2985 45.9155C25.4827 45.8313 25.6873 45.8024 25.8876 45.8321C26.4476 45.9581 26.6876 46.6021 27.0636 47.0321C27.1063 47.0929 27.161 47.1443 27.2243 47.1832C27.2875 47.2221 27.3581 47.2476 27.4316 47.2581C27.8476 47.2741 27.8516 46.6421 28.0536 46.2761C28.2796 45.8761 28.8376 45.7781 29.1396 45.4241C29.4156 45.1021 29.4296 44.6241 29.6536 44.2661C30.1656 43.4481 31.4956 43.5561 32.0896 42.7961C32.3756 42.4321 32.4556 41.9041 32.8356 41.6401C33.3696 41.2681 34.2356 41.6101 34.6796 41.1401C34.8563 40.9098 34.9569 40.6302 34.9676 40.3401C35.0456 39.7581 34.9916 38.9701 34.4196 38.8421C33.9876 38.7441 33.4876 39.1241 33.1276 38.8681C32.8816 38.6921 32.8556 38.3021 32.5956 38.1501C32.2796 37.9661 31.9056 38.2601 31.6696 38.5381C31.3598 38.9534 31.0027 39.3313 30.6056 39.6641C30.1876 39.9721 29.6396 40.1541 29.1456 39.9981C28.6516 39.8421 28.2876 39.2641 28.4836 38.7841C28.6116 38.4741 28.9236 38.2821 29.2136 38.1141L30.6796 37.2621C30.8856 37.171 31.0543 37.0122 31.1576 36.8121C31.2856 36.4741 31.0236 36.1261 30.7796 35.8601C30.6985 35.7574 30.5944 35.6752 30.4756 35.6201C30.1696 35.5061 29.8756 35.7641 29.6056 35.9581C28.8756 36.4961 27.9136 36.6301 27.0056 36.5441C26.0976 36.4581 25.2336 36.1721 24.3536 35.9441C23.4135 35.7018 22.458 35.5241 21.4936 35.4121C20.905 35.3191 20.305 35.3231 19.7176 35.4241C19.0016 35.5781 18.3636 35.9761 17.7696 36.4061C17.0731 36.9121 16.4177 37.4726 15.8096 38.0821C15.3676 38.5221 14.9256 39.1801 15.2376 39.7201C15.2664 39.7757 15.3065 39.8245 15.3555 39.8635C15.4044 39.9024 15.4611 39.9306 15.5216 39.9461C15.6011 39.9492 15.6804 39.9365 15.7549 39.9087C15.8294 39.8809 15.8976 39.8385 15.9556 39.7841C16.7316 39.2321 17.5556 38.6541 18.5076 38.5721C19.4596 38.4901 20.5376 39.1261 20.5696 40.0801C20.6016 41.0801 19.5696 41.7601 19.2056 42.6801C18.7056 43.9541 19.5396 45.3261 20.3356 46.4381L22.1356 48.9561C22.2972 49.2177 22.511 49.4431 22.7636 49.6181C23.0118 49.7429 23.2775 49.8292 23.5516 49.8741C24.2668 50.0507 24.9412 50.3638 25.5376 50.7961C25.8276 51.0101 26.6116 51.7361 27.0236 51.5381C27.3996 51.3641 27.3216 50.3181 27.2616 50.0001Z" fill="#83BD10"/>
<path d="M26.8777 51.9381C26.3977 51.9381 25.8777 51.5181 25.4977 51.2221C25.4337 51.1701 25.3777 51.1261 25.3337 51.0941C24.7761 50.6887 24.1451 50.3953 23.4757 50.2301L23.3477 50.2001C23.082 50.1518 22.8256 50.062 22.5877 49.9341C22.293 49.7329 22.0426 49.4736 21.8517 49.1721L20.0517 46.6541C19.1617 45.4121 18.3277 43.9541 18.8777 42.5521C19.0552 42.153 19.2867 41.7802 19.5657 41.4441C19.9237 40.9701 20.2337 40.5621 20.2177 40.0881C20.2086 39.9465 20.1706 39.8083 20.1059 39.6821C20.0412 39.5558 19.9513 39.4442 19.8417 39.3541C19.4826 39.0488 19.0179 38.8965 18.5477 38.9301C17.6797 39.0041 16.8817 39.5741 16.1757 40.0761C16.0798 40.1599 15.9675 40.2228 15.846 40.261C15.7245 40.2993 15.5964 40.3119 15.4697 40.2981C15.3566 40.2753 15.2499 40.2276 15.1575 40.1584C15.0652 40.0892 14.9894 40.0003 14.9357 39.8981C14.5977 39.3161 14.8277 38.5581 15.5637 37.8201C16.1852 37.1992 16.8538 36.6275 17.5637 36.1101C18.1377 35.6921 18.8357 35.2401 19.6477 35.0661C20.2738 34.9564 20.9137 34.9503 21.5417 35.0481C22.5239 35.165 23.4969 35.3495 24.4537 35.6001L25.0537 35.7601C25.7067 35.9609 26.3759 36.1048 27.0537 36.1901C27.7197 36.2521 28.6677 36.2141 29.3997 35.6721L29.4657 35.6221C29.7377 35.4221 30.1477 35.1121 30.6117 35.2861C30.7845 35.36 30.9369 35.4746 31.0557 35.6201C31.2397 35.8201 31.7297 36.3541 31.5077 36.9461C31.3775 37.2261 31.1521 37.4507 30.8717 37.5801L29.3997 38.4221C29.1317 38.5781 28.9037 38.7241 28.8237 38.9181C28.8032 38.977 28.7949 39.0395 28.7993 39.1018C28.8038 39.164 28.821 39.2247 28.8497 39.2801C28.8896 39.366 28.9465 39.4429 29.017 39.5061C29.0875 39.5694 29.17 39.6177 29.2597 39.6481C29.4575 39.6923 29.6629 39.6901 29.8597 39.6415C30.0564 39.5929 30.2393 39.4993 30.3937 39.3681C30.7049 39.1162 30.9843 38.8274 31.2257 38.5081L31.3977 38.3081C31.8497 37.7741 32.3677 37.5981 32.7817 37.8421C32.9717 37.9671 33.1189 38.1471 33.2037 38.3581C33.2362 38.4385 33.283 38.5123 33.3417 38.5761C33.4117 38.6261 33.5797 38.5761 33.7577 38.5441C33.9991 38.4696 34.2544 38.4518 34.5037 38.4921C35.1617 38.6401 35.4717 39.3521 35.3297 40.3921C35.3106 40.7576 35.1762 41.1077 34.9457 41.3921C34.6057 41.7441 34.1457 41.7701 33.7457 41.7921C33.5038 41.7804 33.2628 41.8306 33.0457 41.9381C32.8873 42.0818 32.7671 42.2625 32.6957 42.4641C32.6106 42.6606 32.504 42.8471 32.3777 43.0201C32.0277 43.4661 31.4917 43.6601 31.0197 43.8201C30.5797 43.9801 30.1637 44.1301 29.9637 44.4481C29.8866 44.5876 29.8268 44.7361 29.7857 44.8901C29.7166 45.166 29.5914 45.4248 29.4177 45.6501C29.2456 45.8335 29.0425 45.9851 28.8177 46.0981C28.6433 46.1729 28.491 46.2913 28.3757 46.4421C28.3245 46.5472 28.2836 46.6571 28.2537 46.7701C28.1517 47.0921 27.9857 47.6241 27.4217 47.6101C27.2976 47.5999 27.1772 47.5632 27.0685 47.5025C26.9598 47.4418 26.8654 47.3584 26.7917 47.2581C26.6741 47.115 26.5646 46.9655 26.4637 46.8101C26.2517 46.4981 26.0637 46.2261 25.8117 46.1681C25.682 46.1571 25.5518 46.1821 25.4353 46.2403C25.3189 46.2985 25.2208 46.3877 25.1517 46.4981C24.9755 46.7946 24.8746 47.1296 24.8577 47.4741C24.8097 47.9281 24.8697 48.2241 25.0377 48.3561C25.2057 48.4881 25.4377 48.4721 25.7177 48.4681C25.9871 48.4512 26.2574 48.4789 26.5177 48.5501C26.8071 48.6591 27.0617 48.8441 27.2549 49.0855C27.4481 49.3269 27.5727 49.6159 27.6157 49.9221C27.6277 49.9881 27.9037 51.5221 27.1877 51.8621C27.0915 51.9105 26.9855 51.9365 26.8777 51.9381ZM18.6777 38.2001C19.281 38.2022 19.8639 38.4192 20.3217 38.8121C20.5047 38.9676 20.6539 39.1589 20.7602 39.3742C20.8665 39.5895 20.9276 39.8243 20.9397 40.0641C20.9637 40.7941 20.5397 41.3481 20.1397 41.8821C19.8988 42.1652 19.697 42.4793 19.5397 42.8161C19.1177 43.8921 19.8137 45.0941 20.6277 46.2321L22.4277 48.7501C22.5617 48.9697 22.7377 49.1607 22.9457 49.3121C23.1196 49.4001 23.3057 49.4614 23.4977 49.4941L23.6337 49.5261C24.3945 49.7141 25.1117 50.0475 25.7457 50.5081C25.7977 50.5461 25.8617 50.5961 25.9357 50.6561C26.4317 51.0561 26.7457 51.2361 26.8697 51.2141C26.9457 51.1161 26.9717 50.4941 26.8917 50.0621C26.8337 49.7581 26.6417 49.3621 26.2917 49.2481C26.104 49.2029 25.9103 49.1873 25.7177 49.2021C25.3517 49.2021 24.9337 49.2021 24.5817 48.9341C24.1997 48.6341 24.0517 48.1341 24.1297 47.4041C24.1577 46.9388 24.3014 46.4878 24.5477 46.0921C24.6964 45.8611 24.9097 45.679 25.1612 45.5684C25.4126 45.4578 25.691 45.4236 25.9617 45.4701C26.5017 45.5901 26.7957 46.0281 27.0557 46.4121C27.1412 46.5445 27.234 46.6721 27.3337 46.7941C27.3643 46.8356 27.4031 46.8703 27.4477 46.8961C27.4597 46.8661 27.5177 46.6761 27.5537 46.5621C27.5975 46.4016 27.6578 46.2461 27.7337 46.0981C27.9083 45.8261 28.1576 45.6101 28.4517 45.4761C28.5996 45.4013 28.7346 45.3034 28.8517 45.1861C28.9585 45.0323 29.0358 44.8601 29.0797 44.6781C29.1383 44.468 29.2237 44.2664 29.3337 44.0781C29.6657 43.5481 30.2457 43.3381 30.7577 43.1521C31.1757 43.0021 31.5697 42.8601 31.7917 42.5761C31.8843 42.4447 31.9627 42.3039 32.0257 42.1561C32.1468 41.8412 32.3506 41.5648 32.6157 41.3561C32.9395 41.1638 33.3114 41.0681 33.6877 41.0801C33.9957 41.0641 34.2637 41.0481 34.4057 40.9021C34.5244 40.7242 34.5896 40.5159 34.5937 40.3021C34.6597 39.8181 34.6037 39.2681 34.3257 39.2041C34.1843 39.1937 34.0423 39.2114 33.9077 39.2561C33.6117 39.3261 33.2437 39.4141 32.9077 39.1721C32.7465 39.0453 32.6205 38.8794 32.5417 38.6901C32.5109 38.6095 32.4639 38.536 32.4037 38.4741C32.3457 38.4421 32.1517 38.5281 31.9377 38.7821L31.7697 38.9821C31.492 39.3483 31.1695 39.6782 30.8097 39.9641C30.5642 40.1645 30.2749 40.3042 29.9653 40.3719C29.6557 40.4397 29.3345 40.4336 29.0277 40.3541C28.8422 40.2929 28.6711 40.1944 28.525 40.0647C28.3788 39.9351 28.2607 39.777 28.1777 39.6001C28.1057 39.4545 28.0651 39.2954 28.0585 39.1331C28.052 38.9709 28.0796 38.809 28.1397 38.6581C28.3197 38.2181 28.7397 37.9721 29.0217 37.8101L30.4877 36.9581C30.6017 36.8921 30.7717 36.7921 30.8097 36.6941C30.8477 36.5961 30.7497 36.3841 30.5017 36.1161C30.4561 36.0576 30.4006 36.0075 30.3377 35.9681C30.2497 35.9361 30.0257 36.0981 29.8797 36.2061L29.8117 36.2581C28.8937 36.9381 27.7577 36.9901 26.9657 36.9141C26.2469 36.8248 25.537 36.6742 24.8437 36.4641C24.6437 36.4101 24.4437 36.3561 24.2577 36.3061C23.3338 36.0659 22.3942 35.8908 21.4457 35.7821C20.8966 35.6931 20.3368 35.6931 19.7877 35.7821C19.1077 35.9281 18.4917 36.3301 17.9777 36.7041C17.2964 37.1989 16.6551 37.7466 16.0597 38.3421C15.8797 38.5201 15.3117 39.1421 15.5457 39.5421C15.5558 39.564 15.5717 39.5827 15.5917 39.5961C15.5917 39.5961 15.6517 39.5561 15.7397 39.4941C16.5197 38.9381 17.4037 38.3081 18.4697 38.2161C18.5477 38.2001 18.6137 38.2001 18.6777 38.2001Z" fill="#83BD10"/>
<path d="M30.0001 49.3141C29.6319 48.882 29.1109 48.609 28.5461 48.5521C28.4377 48.5311 28.3254 48.548 28.2281 48.6001C28.2046 48.6133 28.1839 48.6312 28.1674 48.6526C28.151 48.674 28.139 48.6986 28.1323 48.7247C28.1255 48.7509 28.1242 48.7781 28.1283 48.8049C28.1324 48.8316 28.1419 48.8572 28.1561 48.8801L29.1341 49.5641C29.2218 49.6345 29.3233 49.6856 29.4321 49.7141C29.4929 49.7214 29.5545 49.7147 29.6123 49.6944C29.67 49.6742 29.7224 49.6409 29.7653 49.5973C29.8081 49.5536 29.8404 49.5007 29.8597 49.4426C29.8789 49.3845 29.8845 49.3227 29.8761 49.2621" fill="#83BD10"/>
<path d="M29.4862 50.0801C29.4473 50.0808 29.4084 50.0774 29.3702 50.0701C29.2087 50.0389 29.0566 49.9705 28.9262 49.8701L27.9482 49.1881C27.9214 49.1686 27.8972 49.1458 27.8762 49.1201C27.8298 49.0631 27.7962 48.9969 27.7775 48.9258C27.7589 48.8548 27.7557 48.7805 27.7682 48.7081C27.7824 48.6269 27.8131 48.5494 27.8586 48.4806C27.904 48.4118 27.9631 48.3531 28.0322 48.3081C28.198 48.2128 28.3911 48.1762 28.5802 48.2041C29.2399 48.2701 29.8481 48.5899 30.2762 49.0961C30.3382 49.1693 30.3687 49.2642 30.3608 49.3598C30.3529 49.4554 30.3074 49.544 30.2342 49.6061C30.2148 49.6219 30.1941 49.636 30.1722 49.6481C30.1346 49.7274 30.0839 49.7997 30.0222 49.8621C29.9517 49.932 29.868 49.9873 29.776 50.0247C29.684 50.0621 29.5855 50.081 29.4862 50.0801ZM29.0062 49.0321L29.3402 49.2681C29.3874 49.3042 29.4392 49.3338 29.4942 49.3561L29.5102 49.3361C29.3577 49.208 29.1855 49.1054 29.0002 49.0321H29.0062Z" fill="#83BD10"/>
<path d="M42.2941 35.7301C42.0181 36.2661 41.8061 36.9301 41.2361 37.1301C40.9361 37.2321 40.6081 37.1681 40.2961 37.2021C39.1441 37.3281 38.4361 38.7001 37.2961 38.8341C37.1916 38.8564 37.0833 38.8517 36.9811 38.8206C36.8789 38.7895 36.7864 38.7329 36.7121 38.6561C36.6435 38.5553 36.6072 38.436 36.6081 38.3141C36.5781 37.5601 37.2081 36.7441 36.7781 36.1141C36.5781 35.8321 36.2401 35.7141 35.9481 35.5361C35.6561 35.3581 35.3781 35.0421 35.4761 34.7161C35.5741 34.3901 36.0301 34.2721 36.3961 34.2401L40.6881 33.8781C41.2881 33.8261 42.2421 33.7161 42.7741 34.0921C43.5201 34.6341 42.6001 35.1221 42.2941 35.7301Z" fill="#83BD10"/>
<path d="M37.1633 39.2001C37.0434 39.2109 36.9226 39.1962 36.8089 39.1568C36.6951 39.1174 36.591 39.0543 36.5035 38.9717C36.4159 38.8891 36.3469 38.7888 36.301 38.6775C36.2552 38.5662 36.2334 38.4464 36.2373 38.3261C36.24 37.9809 36.2987 37.6384 36.4113 37.3121C36.5473 36.8441 36.6113 36.5421 36.4673 36.3121C36.3357 36.1755 36.176 36.0691 35.9993 36.0001C35.9173 35.9561 35.8333 35.9121 35.7553 35.8641C35.3553 35.6301 34.9553 35.1661 35.1233 34.6281C35.3233 33.9861 36.1013 33.9201 36.3573 33.8981L40.7573 33.5241C41.4353 33.4661 42.3573 33.3841 42.9713 33.8141C43.0865 33.8837 43.1854 33.9772 43.2613 34.0883C43.3372 34.1994 43.3884 34.3255 43.4113 34.4581C43.4633 34.8581 43.1833 35.1821 42.9393 35.4701C42.8163 35.6036 42.7077 35.7498 42.6153 35.9061C42.5673 35.9981 42.5213 36.1061 42.4753 36.1941C42.2353 36.7021 41.9653 37.2761 41.3513 37.4861C41.1223 37.5528 40.8834 37.5792 40.6453 37.5641C40.5414 37.5581 40.4372 37.5581 40.3333 37.5641C39.8613 37.6161 39.4493 37.9501 39.0113 38.3021C38.5173 38.7021 38.0113 39.1161 37.3273 39.1961C37.2728 39.2003 37.218 39.2016 37.1633 39.2001ZM41.5993 34.2001C41.3273 34.2001 41.0493 34.2241 40.8233 34.2441L36.4233 34.6181C35.9273 34.6601 35.8353 34.7841 35.8233 34.8361C35.7913 34.9401 35.9293 35.1201 36.1313 35.2361C36.1993 35.2781 36.2713 35.3141 36.3433 35.3521C36.6313 35.4776 36.8831 35.6736 37.0753 35.9221C37.4313 36.4421 37.2653 37.0161 37.1193 37.5221C37.0292 37.7734 36.9786 38.0372 36.9693 38.3041C36.9674 38.3513 36.9777 38.3981 36.9993 38.4401C37.0757 38.4857 37.167 38.4993 37.2533 38.4781C37.7213 38.4241 38.1333 38.0921 38.5673 37.7401C39.0653 37.3401 39.5813 36.9201 40.2653 36.8461C40.3983 36.8343 40.5318 36.8296 40.6653 36.8321C40.8219 36.843 40.9792 36.8288 41.1313 36.7901C41.4553 36.6821 41.6393 36.2901 41.8333 35.8781C41.8833 35.7701 41.9333 35.6661 41.9853 35.5661C42.1015 35.3594 42.241 35.1668 42.4013 34.9921C42.5113 34.8621 42.7173 34.6201 42.7073 34.5401C42.7073 34.5261 42.6773 34.4741 42.5693 34.3981C42.272 34.2397 41.935 34.1709 41.5993 34.2001Z" fill="#83BD10"/>
<path d="M42.7993 47.2001C42.5943 47.4018 42.4342 47.6444 42.3293 47.9121C42.2652 48.1893 42.2489 48.4754 42.2813 48.7581C42.3153 49.6861 42.1493 50.6201 42.2813 51.5381C42.4133 52.4561 42.9813 53.4081 43.8813 53.6061C44.3313 53.7041 44.7973 53.6061 45.2513 53.5381C45.855 53.4499 46.4663 53.4244 47.0753 53.4621C47.3593 53.4781 47.6853 53.5341 47.8333 53.7781C48.0213 54.0881 47.8053 54.4801 47.8333 54.8401C47.8613 55.3081 48.2693 55.6401 48.5913 55.9861C48.9133 56.3321 49.1733 56.8681 48.8873 57.2401C48.7873 57.3681 48.6393 57.4501 48.5433 57.5801C48.3833 57.8021 48.4133 58.1021 48.4513 58.3801L48.6813 60.0301C48.701 60.269 48.7605 60.5029 48.8573 60.7221C48.9573 60.9221 49.1133 61.0781 49.2113 61.2761C49.3813 61.6161 49.3533 62.0201 49.4313 62.3921C49.5062 62.7542 49.6815 63.0879 49.9371 63.3551C50.1928 63.6223 50.5185 63.8121 50.8769 63.9028C51.2354 63.9936 51.6122 63.9816 51.9641 63.8683C52.3161 63.755 52.6291 63.5449 52.8673 63.2621C53.5593 62.4401 53.4833 61.2061 54.0353 60.2861C54.3493 59.7581 54.8693 59.3321 54.9973 58.7321C55.1013 58.2421 54.9213 57.7421 54.9073 57.2421C54.8833 56.3961 55.3353 55.6061 55.8693 54.9501C56.4033 54.2941 57.0353 53.7121 57.4833 52.9921C57.5458 52.9064 57.5844 52.8056 57.5953 52.7001C57.5953 52.3661 57.1633 52.2581 56.8453 52.1601C55.9413 51.8801 55.4453 50.9381 55.0453 50.0761C54.6893 49.2761 54.3433 48.4761 53.8233 47.7821C53.3033 47.0881 52.5853 46.5001 51.7353 46.3261C50.7353 46.1261 50.4093 47.1401 49.3493 46.5581C48.6773 46.1881 48.2373 45.4521 47.5293 45.1381C45.7193 44.3221 43.8813 45.9541 42.7993 47.2001Z" fill="#83BD10"/>
<path d="M51.3379 64.3121C51.1518 64.3124 50.9663 64.2896 50.7859 64.2441C50.3639 64.132 49.9809 63.9058 49.6789 63.5904C49.3769 63.275 49.1676 62.8826 49.0739 62.4561C49.0459 62.3141 49.0299 62.1701 49.0139 62.0241C49.0053 61.8183 48.962 61.6155 48.8859 61.4241C48.8418 61.3437 48.7917 61.2668 48.7359 61.1941C48.662 61.0921 48.5952 60.9852 48.5359 60.8741C48.4246 60.6206 48.357 60.3501 48.3359 60.0741L48.1059 58.4241C48.0679 58.1621 48.0079 57.7201 48.2639 57.3701C48.3314 57.2818 48.4093 57.2019 48.4959 57.1321C48.5383 57.0988 48.5771 57.0613 48.6119 57.0201C48.7439 56.8501 48.5779 56.4881 48.3399 56.2381C48.2919 56.1861 48.2439 56.1361 48.1939 56.0861C47.8759 55.7621 47.5159 55.3961 47.4859 54.8641C47.4819 54.6975 47.4973 54.5311 47.5319 54.3681C47.5735 54.2386 47.5776 54.0999 47.5439 53.9681C47.5119 53.9141 47.4039 53.8461 47.0739 53.8241C46.4895 53.7897 45.9032 53.8145 45.3239 53.8981L45.1239 53.9281C44.6951 54.0207 44.2529 54.0322 43.8199 53.9621C42.6539 53.7081 42.0739 52.5281 41.9319 51.5961C41.8618 51.0147 41.8504 50.4278 41.8979 49.8441C41.9159 49.4741 41.9339 49.1241 41.9199 48.7721V48.6641C41.8909 48.3757 41.9139 48.0844 41.9879 47.8041C42.1079 47.4883 42.2933 47.2013 42.5319 46.9621C44.3719 44.8661 46.1579 44.1181 47.6919 44.8021C48.0988 45.0076 48.4664 45.2832 48.7779 45.6161C49.0048 45.8534 49.2609 46.061 49.5399 46.2341C49.9699 46.4701 50.1879 46.3661 50.5399 46.1941C50.9248 45.9696 51.377 45.8888 51.8159 45.9661C52.6659 46.1401 53.4859 46.7061 54.1219 47.5661C54.5979 48.2533 54.9963 48.9911 55.3099 49.7661L55.3839 49.9281C55.7639 50.7741 56.2199 51.5881 56.9559 51.8161L57.0199 51.8361C57.3759 51.9441 57.9719 52.1241 57.9599 52.7081C57.9499 52.8801 57.8917 53.0457 57.7919 53.1861C57.4763 53.6624 57.1196 54.1101 56.7259 54.5241C56.5259 54.7401 56.3359 54.9561 56.1539 55.1801C55.5419 55.9321 55.2539 56.6021 55.2719 57.2341C55.2813 57.4051 55.3007 57.5754 55.3299 57.7441C55.4333 58.1396 55.4297 58.5555 55.3193 58.9492C55.209 59.3428 54.9959 59.7 54.7019 59.9841C54.5733 60.1395 54.455 60.3032 54.3479 60.4741C54.1391 60.8713 53.9883 61.2962 53.8999 61.7361C53.7439 62.3481 53.5839 62.9801 53.1479 63.4961C52.9228 63.7545 52.6445 63.9612 52.3321 64.102C52.0197 64.2429 51.6805 64.3145 51.3379 64.3121ZM46.5379 53.0821C46.7239 53.0821 46.9099 53.0821 47.0959 53.0981C47.2819 53.1141 47.8759 53.1461 48.1439 53.5901C48.2845 53.8695 48.3139 54.1919 48.2259 54.4921C48.202 54.5992 48.1892 54.7084 48.1879 54.8181C48.2039 55.0781 48.4399 55.3201 48.6899 55.5741L48.8479 55.7361C49.2979 56.2141 49.5719 56.9361 49.1659 57.4601C49.1009 57.5401 49.0279 57.6131 48.9479 57.6781C48.9047 57.7126 48.8645 57.7507 48.8279 57.7921C48.764 57.961 48.7549 58.1457 48.8019 58.3201L49.0319 59.9701C49.0484 60.1682 49.0956 60.3625 49.1719 60.5461C49.2143 60.6257 49.2638 60.7014 49.3199 60.7721C49.3976 60.8777 49.4677 60.9887 49.5299 61.1041C49.6462 61.3713 49.714 61.6571 49.7299 61.9481C49.7439 62.0701 49.7559 62.1921 49.7799 62.3081C49.8389 62.6045 49.9806 62.8782 50.1888 63.0974C50.3969 63.3166 50.6628 63.4724 50.9558 63.5467C51.2488 63.621 51.5569 63.6108 51.8443 63.5172C52.1317 63.4237 52.3867 63.2506 52.5799 63.0181C52.9079 62.6281 53.0419 62.1021 53.1799 61.5461C53.2838 61.0376 53.4617 60.547 53.7079 60.0901C53.829 59.8931 53.9626 59.7041 54.1079 59.5241C54.341 59.3191 54.5103 59.0512 54.5954 58.7526C54.6805 58.454 54.6779 58.1373 54.5879 57.8401C54.555 57.6415 54.5336 57.4412 54.5239 57.2401C54.5019 56.4281 54.8419 55.6021 55.5659 54.7101C55.7659 54.4741 55.9659 54.2501 56.1659 54.0241C56.5356 53.6437 56.8703 53.2307 57.1659 52.7901C57.1907 52.7551 57.2102 52.7167 57.2239 52.6761C57.0888 52.6059 56.9458 52.5522 56.7979 52.5161L56.7299 52.4941C55.7179 52.1821 55.1619 51.2121 54.7119 50.2121L54.6379 50.0481C54.3443 49.3233 53.9728 48.6326 53.5299 47.9881C52.9999 47.2761 52.3299 46.8081 51.6599 46.6681C51.3399 46.6021 51.1199 46.7081 50.8399 46.8421C50.4399 47.0421 49.9259 47.2781 49.1719 46.8621C48.8361 46.6613 48.5287 46.4165 48.2579 46.1341C48.0054 45.86 47.7078 45.6314 47.3779 45.4581C45.8399 44.7721 44.1779 46.1561 43.0559 47.4341C42.8856 47.6007 42.7497 47.7991 42.6559 48.0181C42.6119 48.2149 42.6004 48.4176 42.6219 48.6181V48.7341C42.6359 49.1161 42.6219 49.4981 42.5999 49.8681C42.5556 50.401 42.5643 50.9369 42.6259 51.4681C42.7419 52.2301 43.1959 53.0681 43.9519 53.2361C44.3005 53.2884 44.6557 53.2762 44.9999 53.2001L45.1999 53.1701C45.6452 53.1085 46.0943 53.0791 46.5439 53.0821H46.5379Z" fill="#83BD10"/>
<path d="M56.2118 58.6621C56.2191 58.7604 56.2089 58.8593 56.1818 58.9541C56.1322 59.0446 56.064 59.1236 55.9818 59.1861C55.7728 59.3978 55.6295 59.6655 55.5691 59.9568C55.5088 60.2482 55.5341 60.5508 55.6418 60.8281C55.6596 60.8748 55.6853 60.9181 55.7178 60.9561C55.766 61.0014 55.8266 61.0313 55.8918 61.0421C56.0246 61.0632 56.1604 61.0535 56.2887 61.0136C56.4171 60.9737 56.5345 60.9048 56.6318 60.8121C56.8247 60.6255 56.9837 60.407 57.1018 60.1661C57.3068 59.8182 57.4655 59.4451 57.5738 59.0561C57.6738 58.6381 57.7598 57.8101 57.1978 57.6881C56.6978 57.5801 56.2278 58.2221 56.2118 58.6621Z" fill="#83BD10"/>
<path d="M56.0401 61.4201C55.9674 61.4203 55.895 61.4122 55.8241 61.3961C55.6883 61.3716 55.5634 61.3059 55.4661 61.2081C55.4001 61.1385 55.3491 61.0562 55.3161 60.9661C55.1813 60.6222 55.1493 60.2466 55.2238 59.8848C55.2984 59.523 55.4763 59.1907 55.7361 58.9281L55.7741 58.8901C55.8015 58.8668 55.8263 58.8407 55.8481 58.8121C55.8481 58.8121 55.8481 58.7601 55.8481 58.7281V58.6501C55.8673 58.437 55.9295 58.2301 56.0309 58.0417C56.1323 57.8534 56.2709 57.6875 56.4381 57.5541C56.5536 57.4577 56.689 57.388 56.8345 57.35C56.9801 57.312 57.1322 57.3065 57.2801 57.3341C57.3941 57.3573 57.5022 57.4037 57.5975 57.4705C57.6928 57.5372 57.7733 57.6229 57.8341 57.7221C58.1221 58.1801 57.9981 58.8681 57.9321 59.1421C57.8171 59.5627 57.647 59.9662 57.4261 60.3421C57.288 60.62 57.1018 60.8712 56.8761 61.0841C56.6473 61.2936 56.3503 61.4129 56.0401 61.4201ZM57.0921 58.0381C57.0178 58.0455 56.9478 58.0763 56.8921 58.1261C56.722 58.2623 56.6104 58.4583 56.5801 58.6741V58.7301C56.585 58.8526 56.566 58.9749 56.5241 59.0901C56.4677 59.2148 56.3844 59.3255 56.2801 59.4141L56.2481 59.4461C56.0913 59.6075 55.9838 59.8103 55.9385 60.0307C55.8931 60.2511 55.9117 60.4799 55.9921 60.6901C56.0682 60.6969 56.1449 60.687 56.2167 60.6611C56.2886 60.6352 56.3539 60.5939 56.4081 60.5401C56.5673 60.3827 56.6998 60.2003 56.8001 60.0001C56.9906 59.6803 57.1379 59.3366 57.2381 58.9781C57.3261 58.6161 57.3221 58.2621 57.2381 58.1141C57.2285 58.0972 57.2153 58.0827 57.1994 58.0717C57.1834 58.0606 57.1653 58.0532 57.1461 58.0501L57.0921 58.0381Z" fill="#83BD10"/>
<path d="M52.3014 36.9681C52.0438 36.9555 51.7921 36.8873 51.5634 36.7681C51.3374 36.6301 51.1834 36.4001 50.9634 36.2401C50.2194 35.6741 49.1494 36.1661 48.4074 36.7361C47.7296 37.2561 47.1015 37.8379 46.5314 38.4741L48.2874 39.2841C48.2739 39.1437 48.315 39.0035 48.4023 38.8927C48.4895 38.7818 48.6161 38.7089 48.7558 38.689C48.8955 38.6692 49.0374 38.704 49.152 38.7861C49.2667 38.8683 49.3453 38.9915 49.3714 39.1301C49.4874 39.6661 48.8334 40.0161 48.3054 40.1701L46.0434 40.8281C45.9134 40.8661 45.6974 40.8161 45.7534 40.6921C45.5154 40.4921 45.2334 40.9341 45.3134 41.2341C45.3934 41.5341 45.5914 41.8721 45.4074 42.1221C45.2494 42.3381 44.9194 42.3101 44.6814 42.4321C44.1174 42.7161 44.3094 43.5601 44.5854 44.1301C45.0133 43.7737 45.5388 43.5544 46.0931 43.5009C46.6475 43.4474 47.2052 43.5621 47.6934 43.8301C47.8925 43.9688 48.1099 44.0792 48.3394 44.1581C48.6634 44.2341 48.9994 44.1221 49.3234 44.0461C50.3901 43.8079 51.5076 43.986 52.4474 44.5441C52.2314 44.6701 52.3494 45.0301 52.5674 45.1441C52.7854 45.2581 53.0574 45.2641 53.2794 45.3781C53.5023 45.5211 53.6843 45.7196 53.8074 45.9541L55.5794 48.7341C55.8374 49.1341 56.1094 49.5601 56.5194 49.8121C56.7761 49.9673 57.0713 50.0472 57.3712 50.0426C57.6712 50.0381 57.9638 49.9493 58.2157 49.7865C58.4677 49.6236 58.6687 49.3932 58.796 49.1215C58.9232 48.8499 58.9715 48.5479 58.9354 48.2501L57.8974 47.6041C58.3114 47.1161 59.0774 47.1141 59.6814 47.3321C60.2854 47.5501 60.8194 47.9321 61.4354 48.1081C61.5971 48.1368 61.7491 48.2056 61.8774 48.3081C61.9907 48.4475 62.0602 48.6173 62.0774 48.7961C62.3015 49.9147 62.8734 50.9339 63.7114 51.7081C63.8325 51.8378 63.9867 51.9318 64.1574 51.9801C64.6954 52.0881 65.0314 51.3981 65.0414 50.8501C65.0514 50.3021 64.9834 49.6501 65.4134 49.3121C65.9914 48.8521 66.8134 49.4201 67.3154 49.9561L68.6654 51.3781C69.1334 51.8721 69.8654 52.3981 70.4174 51.9941C70.9094 51.6321 70.7434 50.8721 70.5454 50.2961C70.3474 49.7201 70.2414 48.9281 70.7774 48.6321C71.3534 48.3161 72.1874 48.9081 72.6874 48.4821C72.9294 48.2821 72.9674 47.9101 72.9074 47.5981C72.7794 46.9401 72.3294 46.3981 72.0774 45.7781C71.8254 45.1581 71.8634 44.2981 72.4594 43.9941C72.8086 44.6613 73.2841 45.2543 73.8594 45.7401L74.4694 41.5061C74.5155 41.3135 74.5155 41.1127 74.4694 40.9201C74.2694 40.3201 73.2494 40.2461 73.1274 39.6141C73.0554 39.2361 73.3934 38.8761 73.7674 38.7841C74.1502 38.7225 74.5425 38.759 74.9074 38.8901C75.0247 39.4356 75.3244 39.9248 75.757 40.2771C76.1897 40.6294 76.7295 40.8238 77.2874 40.8281C77.08 40.496 76.9945 40.1021 77.0456 39.7139C77.0967 39.3257 77.2812 38.9673 77.5674 38.7001C77.7674 38.5261 78.0114 38.3901 78.1234 38.1541C78.4014 37.5781 77.7074 37.0101 77.0954 36.8181C73.3454 35.6461 69.0114 38.1221 65.4574 36.4441C64.3774 35.9341 63.2994 34.7641 62.0574 34.6861C61.1254 34.6281 60.7114 35.2401 59.9974 35.6961C58.8394 36.4361 57.8314 35.8661 56.6274 36.2301C55.9514 36.4301 55.4654 36.9001 54.7334 37.0301C53.9254 37.1681 53.0934 37.0621 52.3014 36.9681Z" fill="#83BD10"/>
<path d="M69.9822 52.5081C69.5002 52.5081 68.9542 52.2101 68.4062 51.6321L67.0562 50.2101C66.6222 49.7541 65.9922 49.3201 65.6402 49.6001C65.4082 49.7841 65.4082 50.2001 65.4082 50.6261C65.4082 50.7061 65.4082 50.7841 65.4082 50.8621C65.4075 51.1036 65.3574 51.3424 65.2611 51.5639C65.1648 51.7854 65.0243 51.9848 64.8482 52.1501C64.7444 52.237 64.6223 52.2992 64.491 52.3321C64.3597 52.365 64.2227 52.3678 64.0902 52.3401C63.8534 52.2806 63.6384 52.1551 63.4702 51.9781C62.5755 51.1521 61.965 50.0642 61.7262 48.8701C61.7166 48.7648 61.6853 48.6627 61.6342 48.5701C61.5649 48.5277 61.4882 48.4985 61.4082 48.4841L61.3482 48.4661C60.9868 48.3527 60.6377 48.2033 60.3062 48.0201C60.0677 47.8918 59.8212 47.7789 59.5682 47.6821C59.254 47.5608 58.911 47.535 58.5822 47.6081L59.1382 47.9541C59.1841 47.9823 59.2231 48.0205 59.2522 48.0659C59.2813 48.1113 59.2997 48.1626 59.3062 48.2161C59.3525 48.582 59.2945 48.9535 59.1388 49.2879C58.9832 49.6222 58.7363 49.9058 58.4266 50.106C58.1169 50.3062 57.7569 50.4149 57.3882 50.4195C57.0194 50.4241 56.6569 50.3245 56.3422 50.1321C55.8522 49.8301 55.5422 49.3321 55.2842 48.9321L53.5122 46.1501C53.4207 45.9724 53.2876 45.8194 53.1242 45.7041C53.04 45.6659 52.9513 45.6384 52.8602 45.6221C52.7007 45.591 52.5464 45.5371 52.4022 45.4621C52.2783 45.3895 52.1747 45.2867 52.1013 45.1632C52.0278 45.0398 51.9869 44.8997 51.9822 44.7561C51.9803 44.7348 51.9803 44.7134 51.9822 44.6921C51.183 44.3076 50.2773 44.2047 49.4122 44.4001L49.2602 44.4361C48.9379 44.542 48.5946 44.5674 48.2602 44.5101C48.0459 44.4501 47.8431 44.3548 47.6602 44.2281C47.6122 44.2001 47.5662 44.1701 47.5182 44.1441C47.0954 43.9119 46.6123 43.8124 46.1321 43.8588C45.6519 43.9052 45.1968 44.0952 44.8262 44.4041C44.784 44.4401 44.7341 44.4659 44.6804 44.4798C44.6267 44.4937 44.5706 44.4951 44.5162 44.4841C44.4616 44.4725 44.4105 44.4483 44.3668 44.4136C44.3231 44.3789 44.288 44.3346 44.2642 44.2841C43.7802 43.2841 43.8822 42.4301 44.5222 42.1061C44.64 42.0502 44.7643 42.0092 44.8922 41.9841C44.9722 41.9717 45.0494 41.9453 45.1202 41.9061C45.1502 41.8641 45.0782 41.6581 45.0422 41.5581C45.0062 41.4581 44.9882 41.4021 44.9682 41.3261C44.9266 41.1492 44.9384 40.9639 45.0021 40.7938C45.0658 40.6236 45.1786 40.4761 45.3262 40.3701C45.4264 40.3036 45.5457 40.2718 45.6657 40.2798C45.7857 40.2877 45.8997 40.3349 45.9902 40.4141C46.0045 40.4257 46.0179 40.4384 46.0302 40.4521L48.2102 39.8201C48.6522 39.6921 49.0722 39.4381 49.0222 39.2041C49.0101 39.1609 48.9838 39.1229 48.9475 39.0964C48.9113 39.07 48.8671 39.0565 48.8222 39.0581C48.7764 39.0675 48.7352 39.0926 48.706 39.1291C48.6768 39.1657 48.6613 39.2113 48.6622 39.2581C48.6661 39.321 48.6538 39.3837 48.6265 39.4405C48.5992 39.4972 48.5578 39.546 48.5062 39.5821C48.4542 39.6177 48.3939 39.6391 48.3312 39.6444C48.2684 39.6496 48.2054 39.6385 48.1482 39.6121L46.3922 38.8121C46.3413 38.7884 46.2967 38.7531 46.2619 38.709C46.2272 38.6649 46.2033 38.6132 46.1922 38.5581C46.1805 38.5025 46.1819 38.445 46.1965 38.3901C46.2111 38.3352 46.2384 38.2845 46.2762 38.2421C46.8615 37.589 47.5063 36.9918 48.2022 36.4581C48.7482 36.0401 50.1342 35.1521 51.2022 35.9621C51.3065 36.045 51.4048 36.1352 51.4962 36.2321C51.575 36.3212 51.6644 36.4005 51.7622 36.4681C51.9501 36.5576 52.1543 36.6079 52.3622 36.6161H52.4182C53.1722 36.7081 53.9522 36.8001 54.6742 36.6761C55.0185 36.5968 55.3476 36.4617 55.6482 36.2761C55.9261 36.1139 56.2196 35.9799 56.5242 35.8761C57.0273 35.7428 57.549 35.6935 58.0682 35.7301C58.6882 35.7441 59.2222 35.7561 59.8042 35.3861C59.9802 35.2721 60.1422 35.1461 60.3002 35.0221C60.7722 34.6521 61.2622 34.2661 62.0822 34.3201C62.9862 34.3761 63.7642 34.9101 64.5142 35.4281C64.8579 35.6863 65.221 35.9176 65.6002 36.1201C67.4002 36.9681 69.4002 36.7001 71.5182 36.4161C73.4062 36.1641 75.3562 35.9041 77.1902 36.4781C77.6302 36.6141 78.2222 36.9601 78.4482 37.4781C78.5084 37.6092 78.5387 37.752 78.537 37.8962C78.5353 38.0405 78.5015 38.1825 78.4382 38.3121C78.3191 38.5285 78.1497 38.713 77.9442 38.8501C77.8942 38.8901 77.8422 38.9301 77.7942 38.9721C77.5735 39.1813 77.4314 39.46 77.3917 39.7615C77.352 40.063 77.4172 40.3689 77.5762 40.6281C77.612 40.6821 77.6327 40.7447 77.6361 40.8094C77.6394 40.8742 77.6253 40.9386 77.5953 40.996C77.5653 41.0534 77.5204 41.1017 77.4653 41.1359C77.4102 41.17 77.347 41.1887 77.2822 41.1901H77.2322C76.6367 41.1809 76.0596 40.982 75.5848 40.6223C75.11 40.2626 74.7623 39.7609 74.5922 39.1901C74.3494 39.1157 74.0927 39.0986 73.8422 39.1401C73.6262 39.1941 73.4422 39.3981 73.4702 39.5521C73.4982 39.7061 73.6702 39.8201 73.9662 39.9861C74.2882 40.1741 74.6542 40.3861 74.7982 40.8081C74.8684 41.0536 74.8766 41.3127 74.8222 41.5621L74.2222 45.7981C74.2124 45.862 74.186 45.9223 74.1456 45.9728C74.1053 46.0233 74.0524 46.0624 73.9922 46.0861C73.9314 46.1089 73.8655 46.115 73.8015 46.1037C73.7375 46.0925 73.6777 46.0643 73.6282 46.0221C73.1444 45.6099 72.7263 45.1263 72.3882 44.5881C72.2601 44.9322 72.2723 45.3129 72.4222 45.6481C72.519 45.8719 72.6292 46.0896 72.7522 46.3001C72.9911 46.6811 73.1661 47.0986 73.2702 47.5361C73.3272 47.7524 73.326 47.98 73.2666 48.1956C73.2072 48.4113 73.0919 48.6074 72.9322 48.7641C72.5322 49.0961 72.0502 49.0161 71.6562 48.9521C71.3822 48.9081 71.1242 48.8661 70.9602 48.9521C70.6582 49.1181 70.7382 49.7161 70.8962 50.1801C71.0262 50.5601 71.4202 51.7141 70.6402 52.2881C70.4514 52.4325 70.2199 52.5099 69.9822 52.5081ZM65.9002 48.7841C66.4122 48.7841 67.0022 49.1001 67.5802 49.7121L68.9322 51.1341C69.3202 51.5441 69.8902 51.9341 70.2062 51.7061C70.4382 51.5341 70.4382 51.1061 70.2062 50.4161C69.8622 49.4161 70.0062 48.6481 70.6062 48.3201C70.9902 48.1081 71.4062 48.1761 71.7682 48.2361C72.1302 48.2961 72.3302 48.3181 72.4582 48.2101C72.5862 48.1021 72.5902 47.8521 72.5562 47.6701C72.4624 47.3094 72.3133 46.9653 72.1142 46.6501C71.9761 46.4142 71.8532 46.1697 71.7462 45.9181C71.4262 45.1301 71.5122 44.0761 72.3002 43.6741C72.3855 43.6312 72.4842 43.6235 72.5751 43.6527C72.6661 43.6818 72.7419 43.7456 72.7862 43.8301C73.0055 44.2538 73.2792 44.6472 73.6002 45.0001L74.1102 41.4641C74.139 41.3269 74.139 41.1853 74.1102 41.0481C74.0522 40.8821 73.8322 40.7541 73.5982 40.6161C73.2642 40.4161 72.8482 40.1821 72.7542 39.6921C72.6402 39.0921 73.1362 38.5741 73.6622 38.4421C74.1049 38.3641 74.5601 38.4013 74.9842 38.5501C75.0499 38.5679 75.1092 38.6038 75.1556 38.6536C75.2019 38.7035 75.2333 38.7653 75.2462 38.8321C75.3263 39.1994 75.5034 39.5384 75.7591 39.8139C76.0149 40.0893 76.3399 40.2911 76.7002 40.3981C76.6219 40.0466 76.637 39.6807 76.744 39.3368C76.851 38.9929 77.0462 38.6831 77.3102 38.4381C77.3702 38.3861 77.4322 38.3361 77.4962 38.2881C77.6089 38.2142 77.7055 38.1183 77.7802 38.0061C77.798 37.9704 77.8073 37.931 77.8073 37.8911C77.8073 37.8512 77.798 37.8118 77.7802 37.7761C77.5941 37.4825 77.3054 37.2686 76.9702 37.1761C75.2902 36.6521 73.4202 36.9021 71.6102 37.1421C69.4782 37.4281 67.2722 37.7221 65.2862 36.7841C64.8674 36.5686 64.4662 36.3205 64.0862 36.0421C63.4162 35.5801 62.7222 35.1041 62.0202 35.0601C61.4802 35.0261 61.1622 35.2721 60.7282 35.6121C60.5582 35.7441 60.3822 35.8821 60.1762 36.0121C59.4082 36.5021 58.7102 36.4861 58.0322 36.4701C57.5902 36.4362 57.1455 36.4754 56.7162 36.5861C56.4576 36.6738 56.2084 36.787 55.9722 36.9241C55.6015 37.1471 55.1958 37.306 54.7722 37.3941C53.9442 37.5361 53.1102 37.4361 52.3062 37.3401H52.2482C51.9389 37.3219 51.6373 37.2366 51.3642 37.0901C51.2167 36.9923 51.0823 36.876 50.9642 36.7441C50.8975 36.6727 50.826 36.6059 50.7502 36.5441C50.0642 36.0241 48.9502 36.7921 48.6322 37.0401C48.1028 37.4453 47.6047 37.8899 47.1422 38.3701L48.0622 38.7961C48.1314 38.6797 48.2256 38.5803 48.3381 38.5048C48.4505 38.4294 48.5783 38.38 48.7122 38.3601C48.9393 38.3318 49.1689 38.3884 49.3568 38.5191C49.5447 38.6498 49.6777 38.8453 49.7302 39.0681C49.8662 39.6961 49.3602 40.2581 48.4122 40.5341L46.1482 41.1921C45.9899 41.2362 45.8213 41.2249 45.6702 41.1601C45.6862 41.2181 45.7062 41.2781 45.7282 41.3401C45.8242 41.6201 45.9582 42.0061 45.7042 42.3521C45.5409 42.5449 45.3124 42.6708 45.0622 42.7061C44.9886 42.72 44.9169 42.7422 44.8482 42.7721C44.6322 42.8801 44.6582 43.2361 44.7582 43.5721C45.2299 43.2956 45.765 43.1457 46.3116 43.1369C46.8583 43.1282 47.398 43.2609 47.8782 43.5221C47.9322 43.5541 47.9862 43.5861 48.0382 43.6201C48.1574 43.706 48.2889 43.7735 48.4282 43.8201C48.6487 43.846 48.8722 43.8221 49.0822 43.7501L49.2462 43.7101C50.4069 43.4473 51.6241 43.6406 52.6462 44.2501C52.7004 44.2826 52.7451 44.3286 52.776 44.3837C52.8069 44.4388 52.8228 44.501 52.8222 44.5641C52.8225 44.6561 52.7866 44.7444 52.7222 44.8101C52.731 44.826 52.7425 44.8402 52.7562 44.8521C52.8437 44.892 52.9357 44.9208 53.0302 44.9381C53.2679 44.9794 53.492 45.078 53.6829 45.2255C53.8739 45.3729 54.0261 45.5646 54.1262 45.7841L55.8982 48.5641C56.1222 48.9161 56.3762 49.3141 56.7222 49.5281C56.9085 49.6423 57.1218 49.705 57.3402 49.7096C57.5587 49.7142 57.7744 49.6606 57.9653 49.5544C58.1562 49.4481 58.3155 49.293 58.4267 49.1049C58.5379 48.9169 58.5971 48.7026 58.5982 48.4841L57.7182 47.9361C57.674 47.9086 57.6363 47.8718 57.6076 47.8284C57.579 47.7849 57.56 47.7358 57.552 47.6844C57.544 47.6329 57.5473 47.5804 57.5614 47.5303C57.5756 47.4802 57.6005 47.4337 57.6342 47.3941C58.1902 46.7361 59.1582 46.7781 59.8162 47.0141C60.098 47.1216 60.3726 47.2472 60.6382 47.3901C60.9271 47.5528 61.2312 47.6868 61.5462 47.7901L61.6022 47.8041C61.8037 47.8442 61.9909 47.9374 62.1442 48.0741C62.3057 48.2556 62.407 48.4827 62.4342 48.7241C62.6413 49.7765 63.1762 50.7363 63.9622 51.4661C64.0384 51.5475 64.1321 51.6104 64.2362 51.6501C64.2646 51.6561 64.294 51.655 64.3219 51.647C64.3498 51.639 64.3753 51.6242 64.3962 51.6041C64.5846 51.4056 64.6886 51.1418 64.6862 50.8681C64.6862 50.7941 64.6862 50.7201 64.6862 50.6461C64.6862 50.1161 64.6862 49.4561 65.1922 49.0461C65.3908 48.8795 65.641 48.7869 65.9002 48.7841Z" fill="#83BD10"/>
<path d="M77.4474 57.6001C77.4014 57.1461 77.0474 56.6001 76.6254 56.7621C76.3014 56.8921 76.2634 57.3481 76.0074 57.5881C75.6674 57.9081 75.0714 57.7461 74.6954 58.0241C74.4054 58.2381 74.3374 58.6401 74.1234 58.9301C73.7034 59.4981 72.8534 59.4961 72.2614 59.8801C72.0185 60.0429 71.8239 60.268 71.6979 60.532C71.5719 60.7959 71.5193 61.0888 71.5454 61.3801C71.5985 61.6211 71.624 61.8673 71.6214 62.1141C71.5814 62.4341 71.3574 62.6981 71.2214 62.9921C71.0854 63.2861 71.0754 63.7041 71.3554 63.8661C71.7554 64.0981 72.1554 63.5861 72.5774 63.3801C73.1154 63.1121 73.7774 63.3801 74.3554 63.2301C74.5874 63.1681 74.8174 63.0301 75.0514 63.0881C75.5614 63.1981 75.5394 63.9441 75.8514 64.3621C75.9814 64.5076 76.124 64.6415 76.2774 64.7621C76.5976 65.0618 76.789 65.4741 76.8114 65.9121C76.9489 65.9297 77.0885 65.9071 77.2134 65.8472C77.3383 65.7872 77.4432 65.6923 77.5154 65.5741C77.6774 65.3501 77.7654 65.0821 77.9154 64.8441C78.2474 64.3001 78.8414 63.9861 79.3494 63.6021C79.8919 63.1933 80.356 62.6899 80.7194 62.1161C80.8754 61.8701 81.0174 61.5741 80.9294 61.2961C80.8534 61.0521 80.6214 60.8961 80.4534 60.6961C80.0334 60.2101 80.0194 59.5081 79.9554 58.8701C79.8914 58.2321 79.6874 57.5061 79.1014 57.2441C78.8094 57.5081 78.8354 57.9641 78.7294 58.3441C78.6154 58.7561 78.1954 59.0041 77.8234 58.7781C77.4514 58.5521 77.4814 57.9441 77.4474 57.6001Z" fill="#83BD10"/>
<path d="M76.9241 66.2801C76.8567 66.2801 76.7896 66.2721 76.7241 66.2561C76.6482 66.2375 76.5803 66.1946 76.5309 66.134C76.4814 66.0734 76.4531 65.9983 76.4501 65.9201C76.4311 65.5777 76.2815 65.2556 76.0321 65.0201L75.9021 64.9081C75.7753 64.8122 75.661 64.7007 75.5621 64.5761C75.4253 64.3757 75.3207 64.155 75.2521 63.9221C75.1541 63.6381 75.0861 63.4641 74.9741 63.4401C74.8671 63.4398 74.7612 63.463 74.6641 63.5081C74.5921 63.5341 74.5201 63.5581 74.4461 63.5781C74.1469 63.6441 73.8388 63.661 73.5341 63.6281C73.2655 63.5863 72.9906 63.6117 72.7341 63.7021C72.6235 63.7611 72.5172 63.8279 72.4161 63.9021C72.0941 64.1341 71.6541 64.4521 71.1681 64.1721C70.6821 63.8921 70.6801 63.2821 70.8881 62.8321C70.9381 62.7261 70.9981 62.6221 71.0581 62.5181C71.1531 62.3794 71.2209 62.224 71.2581 62.0601C71.2626 61.9337 71.2505 61.8073 71.2221 61.6841C71.2041 61.5921 71.1881 61.5001 71.1781 61.4081C71.1463 61.0507 71.2111 60.6912 71.366 60.3675C71.5208 60.0438 71.7599 59.7676 72.0581 59.5681C72.3317 59.4063 72.6247 59.2799 72.9301 59.1921C73.3121 59.0661 73.6421 58.9561 73.8281 58.7061C73.8945 58.6095 73.9521 58.5071 74.0001 58.4001C74.0981 58.1399 74.2621 57.9096 74.4761 57.7321C74.7153 57.5758 74.991 57.4842 75.2761 57.4661C75.4462 57.4624 75.6121 57.4127 75.7561 57.3221C75.8259 57.24 75.8826 57.1475 75.9241 57.0481C76.0236 56.7745 76.2259 56.5506 76.4881 56.4241C76.6015 56.3779 76.7243 56.3592 76.8464 56.3696C76.9684 56.38 77.0862 56.4193 77.1901 56.4841C77.3645 56.6086 77.5097 56.7694 77.6157 56.9556C77.7217 57.1417 77.786 57.3487 77.8041 57.5621C77.8041 57.6161 77.8041 57.6781 77.8181 57.7441C77.8341 57.9661 77.8641 58.3821 78.0001 58.4641C78.026 58.4807 78.0553 58.4912 78.0858 58.4947C78.1163 58.4981 78.1472 58.4945 78.1761 58.4841C78.2256 58.4615 78.2693 58.428 78.3039 58.3861C78.3385 58.3441 78.3632 58.2949 78.3761 58.2421C78.4022 58.1399 78.4229 58.0364 78.4381 57.9321C78.4901 57.6261 78.5541 57.2421 78.8541 56.9701C78.907 56.9211 78.9734 56.889 79.0447 56.878C79.1159 56.8669 79.1889 56.8774 79.2541 56.9081C79.8541 57.1801 80.2201 57.8261 80.3201 58.8301L80.3401 59.0521C80.3901 59.5961 80.4361 60.1121 80.7401 60.4521C80.7835 60.5025 80.8296 60.5506 80.8781 60.5961C81.0615 60.7526 81.2025 60.9528 81.2881 61.1781C81.4241 61.6141 81.2121 62.0261 81.0401 62.3001C80.6526 62.911 80.158 63.4469 79.5801 63.8821C79.4581 63.9741 79.3301 64.0641 79.2001 64.1521C78.8161 64.4201 78.4521 64.6721 78.2381 65.0241C78.1837 65.116 78.1343 65.2108 78.0901 65.3081C78.0171 65.4723 77.9294 65.6296 77.8281 65.7781C77.7283 65.9277 77.5942 66.0513 77.4369 66.1386C77.2797 66.2259 77.1039 66.2744 76.9241 66.2801ZM74.9401 62.7121C75.0027 62.712 75.065 62.7187 75.1261 62.7321C75.6441 62.8441 75.8141 63.3321 75.9361 63.6841C75.9818 63.8451 76.0491 63.9992 76.1361 64.1421C76.2024 64.2169 76.2769 64.284 76.3581 64.3421C76.4121 64.3861 76.4681 64.4321 76.5201 64.4801C76.8062 64.7456 77.0096 65.0879 77.1061 65.4661C77.1484 65.4311 77.1861 65.3907 77.2181 65.3461C77.2957 65.2339 77.3626 65.1147 77.4181 64.9901C77.4731 64.8702 77.5345 64.7534 77.6021 64.6401C77.8961 64.1581 78.3401 63.8501 78.7701 63.5521C78.8901 63.4681 79.0121 63.3841 79.1281 63.2961C79.6352 62.9138 80.0688 62.4429 80.4081 61.9061C80.5581 61.6701 80.6081 61.5061 80.5781 61.3901C80.5238 61.2805 80.4468 61.1837 80.3521 61.1061C80.2901 61.0461 80.2301 60.9841 80.1741 60.9201C79.7261 60.4001 79.6641 59.7201 79.6081 59.1081L79.6001 58.9001C79.5601 58.5161 79.4621 58.0521 79.2181 57.7681C79.1961 57.8521 79.1801 57.9501 79.1621 58.0521C79.1427 58.1814 79.1167 58.3095 79.0841 58.4361C79.0416 58.5962 78.9631 58.7444 78.8546 58.8695C78.7462 58.9946 78.6105 59.0933 78.4581 59.1581C78.3256 59.2111 78.1824 59.232 78.0403 59.2191C77.8981 59.2063 77.761 59.16 77.6401 59.0841C77.1821 58.8061 77.1381 58.1981 77.1101 57.7961C77.1101 57.7374 77.1061 57.6834 77.0981 57.6341C77.0801 57.4296 76.9842 57.2398 76.8301 57.1041C76.7981 57.0861 76.7881 57.0901 76.7721 57.1041C76.7101 57.1281 76.6481 57.2561 76.5861 57.3801C76.5094 57.5569 76.4009 57.7183 76.2661 57.8561C76.0179 58.0581 75.7118 58.1758 75.3921 58.1921C75.2271 58.1999 75.0659 58.2443 74.9201 58.3221C74.8065 58.4343 74.7202 58.5712 74.6681 58.7221C74.6029 58.8755 74.5218 59.0216 74.4261 59.1581C74.1041 59.5901 73.6101 59.7581 73.1741 59.9001C72.9279 59.9687 72.6914 60.0681 72.4701 60.1961C72.2823 60.3216 72.1318 60.4954 72.0343 60.6991C71.9368 60.9029 71.896 61.1291 71.9161 61.3541C71.9161 61.4281 71.9381 61.5021 71.9501 61.5761C72.0113 61.8021 72.0204 62.039 71.9767 62.2691C71.9331 62.4991 71.8378 62.7162 71.6981 62.9041C71.6475 62.9855 71.6014 63.0696 71.5601 63.1561C71.4761 63.3381 71.4901 63.5321 71.5461 63.5561C71.6021 63.5801 71.8281 63.4561 72.0061 63.3281C72.1387 63.2271 72.2792 63.1368 72.4261 63.0581C72.7925 62.9082 73.192 62.8579 73.5841 62.9121C73.8129 62.9369 74.0441 62.9274 74.2701 62.8841C74.3261 62.8701 74.3801 62.8501 74.4361 62.8301C74.5964 62.7631 74.7668 62.7232 74.9401 62.7121Z" fill="#83BD10"/>
<path d="M78.7438 56.2901C78.6145 56.3178 78.48 56.3086 78.3555 56.2637C78.2311 56.2188 78.1217 56.14 78.0398 56.0361C77.9458 55.8801 77.9518 55.6821 77.8678 55.5201C77.7038 55.2121 77.2678 55.1441 77.0678 54.8621C77.0546 54.848 77.0444 54.8313 77.0379 54.813C77.0313 54.7948 77.0286 54.7754 77.0298 54.7561C77.0438 54.6841 77.1378 54.6641 77.2118 54.6601L77.9178 54.6321C78.3058 54.6161 78.7178 54.6061 79.0478 54.8141C79.2464 54.957 79.4093 55.1439 79.5238 55.3601C79.6903 55.6162 79.8076 55.9011 79.8698 56.2001C79.4778 56.1121 79.1358 56.2441 78.7438 56.2901Z" fill="#83BD10"/>
<path d="M78.6157 56.6601C78.4432 56.67 78.2712 56.635 78.1163 56.5586C77.9613 56.4822 77.8288 56.3669 77.7317 56.2241C77.6657 56.1071 77.6191 55.9801 77.5937 55.8481C77.5848 55.7935 77.5687 55.7404 77.5457 55.6901C77.4708 55.5978 77.3757 55.5239 77.2677 55.4741C77.0771 55.3774 76.9093 55.241 76.7757 55.0741C76.7338 55.021 76.7033 54.9599 76.6861 54.8945C76.6689 54.8291 76.6654 54.7609 76.6757 54.6941C76.6992 54.5754 76.7652 54.4693 76.8613 54.3957C76.9574 54.3221 77.0769 54.286 77.1977 54.2941L77.9037 54.2641C78.2857 54.2481 78.8097 54.2261 79.2437 54.5041C79.4943 54.6747 79.7001 54.9032 79.8437 55.1701C80.0372 55.4652 80.173 55.7944 80.2437 56.1401C80.2512 56.1978 80.2447 56.2565 80.2247 56.3112C80.2047 56.3659 80.1718 56.4149 80.1288 56.4541C80.0859 56.4934 80.0341 56.5217 79.9778 56.5367C79.9215 56.5516 79.8625 56.5528 79.8057 56.5401C79.5907 56.5077 79.3714 56.5206 79.1617 56.5781C79.0437 56.6001 78.9257 56.6221 78.8017 56.6361C78.7404 56.6489 78.6782 56.6569 78.6157 56.6601ZM77.8657 55.0001C77.9995 55.0919 78.1098 55.2138 78.1877 55.3561C78.2399 55.4612 78.2775 55.5729 78.2997 55.6881C78.309 55.7448 78.3258 55.7999 78.3497 55.8521C78.3897 55.9181 78.5497 55.9541 78.7017 55.9341C78.8097 55.9221 78.9117 55.9021 79.0117 55.8841C79.1117 55.8661 79.2417 55.8401 79.3657 55.8261C79.3177 55.7301 79.2657 55.6361 79.2137 55.5481C79.1269 55.3816 79.0039 55.2368 78.8537 55.1241C78.6297 54.9801 78.3057 54.9821 77.9337 54.9981L77.8657 55.0001Z" fill="#83BD10"/>
<path d="M73.0494 54.8661C73.1582 54.5466 73.3132 54.2447 73.5094 53.9701C73.5705 53.9006 73.6107 53.8154 73.6254 53.7241C73.6205 53.6511 73.6015 53.5798 73.5694 53.5141C73.4925 53.313 73.458 53.0981 73.468 52.883C73.478 52.6679 73.5323 52.4572 73.6275 52.2641C73.4275 52.0181 72.9955 52.1581 72.7955 52.4121C72.5955 52.6661 72.5154 52.9961 72.3094 53.2461C72.1289 53.4307 71.9275 53.5938 71.7094 53.7321C70.3994 54.7401 72.1754 55.2541 73.0494 54.8661Z" fill="#83BD10"/>
<path d="M72.3542 55.3601C71.7882 55.3601 71.2142 55.1601 70.9822 54.7761C70.8662 54.5761 70.6842 54.0601 71.4922 53.4441C71.5502 53.4001 71.6122 53.3561 71.6722 53.3141C71.8038 53.2305 71.9241 53.1303 72.0302 53.0161C72.1097 52.9058 72.1767 52.7871 72.2302 52.6621C72.306 52.4942 72.3992 52.3347 72.5082 52.1861C72.6048 52.0648 72.7261 51.9653 72.864 51.8942C73.0019 51.8232 73.1533 51.7823 73.3082 51.7741C73.4186 51.7728 73.5281 51.7952 73.6291 51.8397C73.7302 51.8842 73.8206 51.9498 73.8942 52.0321C73.9406 52.0868 73.9698 52.1539 73.9779 52.2251C73.9861 52.2964 73.973 52.3684 73.9402 52.4321C73.867 52.5794 73.8253 52.7402 73.8177 52.9045C73.8102 53.0687 73.8369 53.2328 73.8962 53.3861C73.9483 53.4976 73.9756 53.6191 73.9762 53.7421C73.9628 53.9016 73.9007 54.0532 73.7982 54.1761C73.6203 54.4244 73.4795 54.6973 73.3802 54.9861C73.3641 55.034 73.3379 55.0779 73.3034 55.1148C73.2689 55.1517 73.2269 55.1808 73.1802 55.2001C72.9185 55.3087 72.6375 55.3631 72.3542 55.3601ZM73.1442 52.5741C73.1206 52.5917 73.0998 52.6126 73.0822 52.6361C73.0034 52.7426 72.9363 52.8572 72.8822 52.9781C72.7242 53.3666 72.4432 53.6926 72.0822 53.9061L71.9222 54.0201C71.6362 54.2401 71.5842 54.3821 71.5982 54.4081C71.6922 54.5661 72.2902 54.7201 72.7602 54.5841C72.8745 54.2922 73.0243 54.0154 73.2062 53.7601L73.2482 53.7021L73.2362 53.6741C73.101 53.3238 73.0691 52.9421 73.1442 52.5741Z" fill="#83BD10"/>
<path d="M69.1998 53.4721C69.1648 53.3553 69.1157 53.2431 69.0538 53.1381C68.8858 52.9101 68.5518 52.9081 68.2698 52.9281C68.5748 53.3334 68.825 53.7772 69.0138 54.2481C69.1578 54.6081 69.9538 56.2241 70.4138 55.2961C70.7538 54.6161 69.4138 53.9821 69.1998 53.4721Z" fill="#83BD10"/>
<path d="M70.0754 55.9421H70.0494C69.3094 55.9121 68.7394 54.5421 68.6774 54.3821C68.4999 53.9407 68.2652 53.5245 67.9794 53.1441C67.9405 53.0921 67.9162 53.0305 67.9093 52.9659C67.9024 52.9012 67.9129 52.8359 67.9399 52.7768C67.967 52.7177 68.0094 52.6669 68.0628 52.6298C68.1162 52.5928 68.1786 52.5708 68.2434 52.5661C68.4834 52.5501 69.0434 52.5101 69.3454 52.9221C69.4139 53.0206 69.4666 53.1293 69.5014 53.2441C69.5114 53.2741 69.5214 53.3041 69.5334 53.3321C69.6604 53.5099 69.8127 53.6683 69.9854 53.8021C70.4454 54.2141 71.0774 54.7761 70.7394 55.4581C70.5314 55.8741 70.2434 55.9421 70.0754 55.9421ZM69.4134 54.2641C69.5934 54.6501 69.8874 55.1021 70.0514 55.2021C70.0661 55.181 70.0795 55.1589 70.0914 55.1361C70.1834 54.9501 69.7894 54.5981 69.5034 54.3361L69.4134 54.2641Z" fill="#83BD10"/>
<path d="M73.5741 56.2001C72.9151 56.074 72.2406 56.0498 71.5741 56.1281C71.4562 56.1331 71.3414 56.1674 71.2401 56.2281C71.1903 56.2594 71.1527 56.3069 71.1337 56.3626C71.1148 56.4183 71.1156 56.4789 71.1361 56.5341C71.188 56.6158 71.2699 56.674 71.3641 56.6961C71.7059 56.8213 72.057 56.9196 72.4141 56.9901C72.7025 57.0722 73.0095 57.0596 73.2901 56.9541C73.5581 56.8241 73.7361 56.4701 73.5801 56.2161" fill="#83BD10"/>
<path d="M72.8634 57.4101C72.6885 57.4078 72.5143 57.3877 72.3434 57.3501C71.9681 57.2756 71.5991 57.1727 71.2394 57.0421C71.1485 57.0155 71.0637 56.9713 70.99 56.9119C70.9162 56.8526 70.8548 56.7792 70.8094 56.6961C70.7523 56.564 70.7432 56.4161 70.7837 56.278C70.8243 56.1399 70.9119 56.0203 71.0314 55.9401C71.1806 55.8418 71.3531 55.7845 71.5314 55.7741C72.2345 55.6923 72.946 55.7179 73.6414 55.8501C73.6979 55.8602 73.7511 55.8836 73.7967 55.9183C73.8422 55.9531 73.8788 55.9983 73.9034 56.0501C73.9545 56.1434 73.9865 56.2459 73.9975 56.3516C74.0084 56.4574 73.9982 56.5643 73.9674 56.6661C73.9282 56.7987 73.8619 56.9217 73.7728 57.0274C73.6836 57.1331 73.5735 57.2191 73.4494 57.2801C73.2665 57.3674 73.0661 57.4118 72.8634 57.4101ZM71.8214 56.4741C72.0394 56.5401 72.2614 56.5961 72.4854 56.6401C72.6966 56.7045 72.9222 56.7045 73.1334 56.6401C73.1842 56.6151 73.2255 56.5744 73.2514 56.5241C72.7784 56.4515 72.2984 56.4347 71.8214 56.4741Z" fill="#83BD10"/>
<path d="M74.8453 52.6921C74.6067 52.2237 74.3996 51.74 74.2253 51.2441C74.1783 51.1416 74.165 51.0267 74.1873 50.9161C74.2228 50.8332 74.2881 50.7667 74.3703 50.7297C74.4526 50.6926 74.5457 50.6878 74.6313 50.7161C74.796 50.7823 74.9359 50.8984 75.0313 51.0481C75.3271 51.4111 75.4832 51.868 75.4713 52.3361C75.4609 52.5681 75.3823 52.7918 75.2453 52.9793C75.1083 53.1668 74.9191 53.3097 74.7013 53.3901C74.6191 53.4124 74.5356 53.4298 74.4513 53.4421" fill="#83BD10"/>
<path d="M74.4599 53.8101C74.3683 53.8107 74.2799 53.7766 74.2125 53.7146C74.1451 53.6527 74.1037 53.5675 74.0966 53.4762C74.0895 53.3849 74.1172 53.2943 74.1742 53.2227C74.2313 53.151 74.3133 53.1037 74.4039 53.0901C74.4713 53.0798 74.538 53.0658 74.6039 53.0481L74.6819 53.0181C74.6119 52.9838 74.555 52.9276 74.5199 52.8581C74.2726 52.3746 74.0588 51.8748 73.8799 51.3621C73.8051 51.1871 73.7903 50.9923 73.8379 50.8081C73.903 50.6356 74.0317 50.4946 74.1977 50.4142C74.3637 50.3338 74.5541 50.3202 74.7299 50.3761C74.9748 50.4596 75.1856 50.6212 75.3299 50.8361C75.6789 51.268 75.8606 51.8111 75.8419 52.3661C75.826 52.6715 75.7199 52.9653 75.5369 53.2102C75.3538 53.4552 75.1022 53.6403 74.8139 53.7421C74.7163 53.7706 74.6167 53.7913 74.5159 53.8041C74.4975 53.808 74.4787 53.81 74.4599 53.8101ZM74.5519 51.0781L74.5679 51.1241C74.7224 51.5633 74.9034 51.9928 75.1099 52.4101C75.1099 52.3781 75.1099 52.3481 75.1219 52.3161C75.1268 51.9361 74.9964 51.5667 74.7539 51.2741C74.7005 51.1958 74.6317 51.1291 74.5519 51.0781Z" fill="#83BD10"/>
<path d="M75.5378 43.6921C75.5784 43.9339 75.5891 44.1797 75.5698 44.4241C75.5018 44.8501 75.1838 45.1861 74.8818 45.4921C75.0038 45.7241 75.3458 45.7221 75.5858 45.6181C75.7935 45.5184 75.9796 45.3788 76.1333 45.2072C76.2871 45.0356 76.4055 44.8354 76.4818 44.6181C76.6298 44.2301 76.8818 43.1401 76.4818 42.8181C75.8838 42.3661 75.4918 43.2001 75.5378 43.6921Z" fill="#83BD10"/>
<path d="M75.268 46.0461C75.1254 46.0547 74.9833 46.0229 74.858 45.9542C74.7328 45.8856 74.6295 45.7829 74.56 45.6581C74.5249 45.59 74.5122 45.5125 74.5236 45.4367C74.5351 45.361 74.5703 45.2908 74.624 45.2361C74.918 44.9401 75.164 44.6701 75.212 44.3681C75.2272 44.2134 75.2218 44.0574 75.196 43.9041C75.196 43.8441 75.182 43.7841 75.176 43.7261C75.136 43.2701 75.348 42.6601 75.776 42.4241C75.9235 42.347 76.0908 42.3163 76.256 42.3359C76.4212 42.3556 76.5767 42.4246 76.702 42.5341C77.436 43.0961 76.83 44.7341 76.822 44.7341C76.7289 44.9961 76.5848 45.237 76.3981 45.443C76.2114 45.649 75.9856 45.8159 75.734 45.9341C75.5879 46.0029 75.4293 46.041 75.268 46.0461ZM75.898 43.6601L75.916 43.8201C75.9503 44.0392 75.9544 44.2619 75.928 44.4821C75.8837 44.7317 75.7839 44.9682 75.636 45.1741C75.8691 44.9995 76.0457 44.7603 76.144 44.4861C76.344 43.9541 76.406 43.2221 76.26 43.1081C76.196 43.0621 76.152 43.0441 76.124 43.0581C76.0443 43.1356 75.9827 43.2297 75.9436 43.3338C75.9045 43.4379 75.889 43.5493 75.898 43.6601Z" fill="#83BD10"/>
<path d="M84.5738 63.6381C84.3858 63.5561 84.2878 63.3561 84.1738 63.1881C84.0598 63.0201 83.8558 62.8621 83.6638 62.9341C83.4718 63.0061 83.4238 63.2781 83.3538 63.4841C83.1778 63.9941 82.6478 64.2721 82.1738 64.5281C81.6998 64.7841 81.1898 65.1281 81.1258 65.6701C81.1058 65.8241 81.1718 66.0261 81.3258 66.0301C81.3895 66.0253 81.4509 66.004 81.5038 65.9681C82.1458 65.6241 82.9378 65.6621 83.5818 65.3181C83.7948 65.2114 83.9806 65.0573 84.1248 64.8677C84.269 64.678 84.3679 64.4579 84.4138 64.2241C84.4531 63.9891 84.4161 63.7477 84.3081 63.5353C84.2001 63.3229 84.0269 63.1508 83.8138 63.0441" fill="#83BD10"/>
<path d="M81.3277 66.4001H81.3117C81.2352 66.3993 81.1598 66.3819 81.0908 66.3491C81.0217 66.3163 80.9606 66.2689 80.9117 66.2101C80.8482 66.1291 80.8016 66.0363 80.7745 65.937C80.7473 65.8378 80.7403 65.7341 80.7537 65.6321C80.8417 64.9141 81.5017 64.4801 81.9897 64.2181C82.4357 63.9761 82.8737 63.7421 82.9897 63.3761C83.0037 63.3401 83.0137 63.3021 83.0237 63.2661C83.0857 63.0521 83.1817 62.7281 83.5157 62.6021C83.8497 62.4761 84.2017 62.6341 84.4497 62.9881C84.4757 63.0241 84.4997 63.0621 84.5257 63.1001C84.5684 63.1832 84.6284 63.2561 84.7017 63.3141C84.7461 63.3319 84.7865 63.3583 84.8206 63.3919C84.8548 63.4254 84.8819 63.4653 84.9005 63.5094C84.9191 63.5535 84.9288 63.6008 84.929 63.6486C84.9292 63.6965 84.9199 63.7439 84.9017 63.7881C84.8745 63.8511 84.8301 63.9051 84.7737 63.9441C84.7837 64.0582 84.7796 64.173 84.7617 64.2861C84.7085 64.5763 84.5887 64.8501 84.4117 65.0861C84.2347 65.3221 84.0053 65.5138 83.7417 65.6461C83.3834 65.819 83.0022 65.9396 82.6097 66.0041C82.2831 66.0576 81.9654 66.1559 81.6657 66.2961C81.5635 66.3586 81.4473 66.3943 81.3277 66.4001ZM83.7477 63.4301C83.7477 63.4441 83.7477 63.4581 83.7357 63.4681C83.7217 63.5161 83.7077 63.5641 83.6917 63.6101C83.4737 64.2441 82.8597 64.5761 82.3657 64.8421C82.0477 65.0141 81.6577 65.2541 81.5237 65.5641C81.828 65.4438 82.1436 65.354 82.4657 65.2961C82.789 65.2405 83.1033 65.1409 83.3997 65.0001C83.5632 64.9195 83.7061 64.8026 83.8177 64.6585C83.9293 64.5143 84.0066 64.3466 84.0437 64.1681C84.0668 64.0286 84.0514 63.8854 83.9993 63.754C83.9471 63.6226 83.8601 63.5078 83.7477 63.4221V63.4301Z" fill="#83BD10"/>
<path d="M44.7714 39.1641C44.5034 38.8801 43.9714 39.0641 43.7994 39.4101C43.6274 39.7561 43.6694 40.1721 43.7274 40.5581C43.8983 40.3731 44.1253 40.2494 44.3734 40.2061C44.6634 40.1901 45.0654 40.3381 45.1634 40.0661C45.0772 39.8021 44.9618 39.5485 44.8194 39.3101" fill="#83BD10"/>
<path d="M43.7274 40.9201C43.685 40.9208 43.6429 40.9133 43.6034 40.8981C43.5423 40.8759 43.4883 40.8376 43.4471 40.7872C43.4059 40.7369 43.3791 40.6764 43.3694 40.6121C43.3134 40.2281 43.2353 39.7041 43.4793 39.2401C43.5634 39.0886 43.6813 38.9585 43.8239 38.86C43.9665 38.7614 44.1299 38.6972 44.3013 38.6721C44.4338 38.6499 44.5698 38.6603 44.6973 38.7025C44.8249 38.7447 44.9402 38.8173 45.0333 38.9141C45.0888 38.9719 45.1233 39.0465 45.1314 39.1261C45.2869 39.3874 45.413 39.6651 45.5073 39.9541C45.5343 40.0305 45.5343 40.1138 45.5073 40.1901C45.3413 40.6501 44.8614 40.6041 44.6034 40.5901C44.5371 40.5807 44.4702 40.5766 44.4034 40.5781C44.2385 40.6226 44.0899 40.7135 43.9754 40.8401C43.9059 40.8974 43.8172 40.926 43.7274 40.9201ZM44.4333 39.3861H44.3994C44.3419 39.3963 44.2873 39.4185 44.2391 39.4512C44.1908 39.484 44.15 39.5265 44.1194 39.5761C44.0676 39.6814 44.0396 39.7968 44.0374 39.9141C44.1388 39.8731 44.2462 39.8488 44.3553 39.8421C44.4595 39.84 44.5638 39.8447 44.6673 39.8561H44.6974C44.6388 39.7299 44.572 39.6076 44.4974 39.4901C44.4779 39.4572 44.4637 39.4214 44.4553 39.3841L44.4333 39.3861Z" fill="#83BD10"/>
<path d="M43.8522 37.6461C44.0522 36.9221 43.5682 36.2301 42.8402 36.6961C42.2982 37.0441 42.1842 37.9601 42.9162 38.1721C43.1099 38.221 43.315 38.1937 43.4892 38.0958C43.6633 37.9979 43.7933 37.837 43.8522 37.6461Z" fill="#83BD10"/>
<path d="M43.104 38.5601C42.8506 38.5601 42.6054 38.47 42.4123 38.3058C42.2192 38.1417 42.0908 37.9142 42.05 37.6641C42.0212 37.4172 42.0621 37.1672 42.1681 36.9423C42.2742 36.7175 42.4411 36.5269 42.65 36.3921C43.066 36.1261 43.494 36.1121 43.826 36.3541C44.204 36.6321 44.356 37.1881 44.208 37.7401C44.1672 37.8819 44.0989 38.0142 44.0069 38.1295C43.9149 38.2448 43.8011 38.3408 43.672 38.4121C43.4985 38.5094 43.3029 38.5604 43.104 38.5601ZM43.288 36.9061C43.1969 36.9149 43.1099 36.9481 43.036 37.0021C42.9445 37.0617 42.8709 37.1452 42.8234 37.2436C42.7758 37.3419 42.756 37.4514 42.766 37.5601C42.7747 37.6251 42.8038 37.6857 42.849 37.7331C42.8943 37.7806 42.9535 37.8124 43.018 37.8241C43.0671 37.8369 43.1183 37.8396 43.1685 37.832C43.2187 37.8244 43.2668 37.8068 43.31 37.7801C43.404 37.7333 43.4759 37.6514 43.51 37.5521C43.5497 37.4495 43.5605 37.338 43.5411 37.2297C43.5217 37.1214 43.4729 37.0206 43.4 36.9381C43.3673 36.9152 43.3279 36.9039 43.288 36.9061Z" fill="#83BD10"/>
<path d="M20.4722 69.464C20.4722 69.464 14.3542 62.274 10.9822 69.464V20.84C10.9822 20.84 12.2562 16.6 15.7502 16.314C19.3202 16.032 21.3502 18.758 21.3502 18.758L20.4722 69.464Z" fill="#8BBF22"/>
<path d="M10.9819 69.828C10.955 69.8275 10.9281 69.8242 10.9019 69.818C10.8217 69.7998 10.75 69.7549 10.6988 69.6905C10.6475 69.6262 10.6197 69.5463 10.6199 69.464V20.84C10.6194 20.8048 10.6241 20.7698 10.6339 20.736C10.6899 20.552 12.0219 16.244 15.7219 15.952C19.4219 15.66 21.5479 18.424 21.6359 18.542C21.6842 18.6058 21.7095 18.684 21.7079 18.764L20.8339 69.472C20.8318 69.5447 20.8078 69.615 20.7651 69.6739C20.7224 69.7327 20.663 69.7774 20.5946 69.802C20.5262 69.8266 20.4519 69.83 20.3815 69.8118C20.3111 69.7936 20.2479 69.7547 20.1999 69.7C20.1699 69.666 17.2519 66.29 14.5199 66.66C13.2319 66.832 12.1539 67.828 11.3199 69.618C11.2902 69.6822 11.2424 69.7363 11.1824 69.7736C11.1223 69.8109 11.0526 69.8299 10.9819 69.828ZM14.9419 65.906C17.0899 65.906 19.1419 67.602 20.1239 68.574L20.9819 18.884C20.5959 18.43 18.7279 16.436 15.7819 16.684C12.7699 16.922 11.4979 20.452 11.3459 20.906V68.078C12.1919 66.82 13.2239 66.102 14.4219 65.942C14.5942 65.9182 14.768 65.9062 14.9419 65.906Z" fill="#A5E22B"/>
</svg>
