<svg width="15" height="14" viewBox="0 0 15 14" fill="none" xmlns="http://www.w3.org/2000/svg">
<path fill-rule="evenodd" clip-rule="evenodd" d="M13.8871 1.19838C14.3128 1.5502 14.3728 2.18052 14.0209 2.60625L5.9809 12.3355L5.97848 12.3384C5.7956 12.558 5.56608 12.7341 5.30661 12.8538C5.04713 12.9736 4.76423 13.034 4.47848 13.0307C4.18805 13.0271 3.90131 12.9577 3.64152 12.8278C3.3826 12.6984 3.15626 12.5121 2.97937 12.283C2.97877 12.2822 2.97818 12.2815 2.97758 12.2807L0.460694 9.04471C0.121624 8.60877 0.200158 7.98049 0.636105 7.64142C1.07205 7.30235 1.70033 7.38089 2.0394 7.81683L4.50297 10.9843L12.4792 1.33222C12.831 0.906492 13.4614 0.846571 13.8871 1.19838Z" fill="#C84E00"/>
</svg>
