<svg width="20" height="20" viewBox="0 0 20 20" fill="none" xmlns="http://www.w3.org/2000/svg">
<path fill-rule="evenodd" clip-rule="evenodd" d="M9.99693 0.0662553C11.4919 0.065406 12.9677 0.401971 14.3144 1.05087C15.6613 1.69979 16.8443 2.64434 17.7752 3.8141C18.7062 4.98386 19.361 6.34866 19.6912 7.80676C20.0212 9.26487 20.0179 10.7787 19.6814 12.2353C19.345 13.692 18.6842 15.0539 17.7482 16.2196C16.8122 17.3853 15.625 18.3246 14.2754 18.9678C12.9257 19.6108 11.4484 19.9409 9.9534 19.9335C8.53781 19.9265 7.14101 19.617 5.85627 19.0269L0.904869 19.9222C0.651891 19.9679 0.393845 19.8742 0.229199 19.6768C0.0645521 19.4793 0.0187063 19.2086 0.109155 18.968L1.52948 15.1892C0.657558 13.7659 0.157242 12.1439 0.0776133 10.4727C-0.00790511 8.67787 0.395008 6.89346 1.24344 5.30952C2.09187 3.72557 3.35404 2.40142 4.89553 1.47809C6.43694 0.554783 8.20014 0.066854 9.99693 0.0662553ZM7.14273 9.9999C7.14273 10.7889 6.50313 11.4285 5.71416 11.4285C4.92518 11.4285 4.28558 10.7889 4.28558 9.9999C4.28558 9.21093 4.92518 8.57133 5.71416 8.57133C6.50313 8.57133 7.14273 9.21093 7.14273 9.9999ZM9.99987 11.4285C10.7888 11.4285 11.4284 10.7889 11.4284 9.9999C11.4284 9.21093 10.7888 8.57133 9.99987 8.57133C9.2109 8.57133 8.5713 9.21093 8.5713 9.9999C8.5713 10.7889 9.2109 11.4285 9.99987 11.4285ZM14.2856 11.4285C15.0746 11.4285 15.7142 10.7889 15.7142 9.9999C15.7142 9.21093 15.0746 8.57133 14.2856 8.57133C13.4966 8.57133 12.857 9.21093 12.857 9.9999C12.857 10.7889 13.4966 11.4285 14.2856 11.4285Z" fill="white"/>
</svg>
