<svg width="15" height="14" viewBox="0 0 15 14" fill="none" xmlns="http://www.w3.org/2000/svg">
<g clip-path="url(#clip0_730_25420)">
<path fill-rule="evenodd" clip-rule="evenodd" d="M5.1317 0.82373C5.92994 0.82373 6.64476 1.18095 7.125 1.74425V6.30725C7.10817 6.51232 6.99167 6.93954 6.72421 7.32957C6.45976 7.71519 6.08987 8.00754 5.58125 8.06431C5.2382 8.1026 4.99114 8.41173 5.02943 8.75478C5.06772 9.09783 5.37685 9.34489 5.7199 9.3066C6.29184 9.24276 6.75658 9.01788 7.125 8.72219V12.3916C6.57694 13.1002 5.7184 13.5564 4.75331 13.5564C3.24886 13.5564 2.00336 12.4477 1.78924 11.0028C1.90327 10.652 2.08903 10.349 2.26695 10.2085C2.53786 9.99459 2.58407 9.60157 2.37016 9.33067C2.15626 9.05976 1.76323 9.01355 1.49233 9.22746C1.40015 9.30024 1.31384 9.38254 1.23347 9.47216C0.927677 8.80158 0.75 7.96879 0.75 7.23401C0.75 6.25959 1.06246 5.30283 1.57183 4.5981C1.68221 4.81126 1.81415 4.99862 1.95568 5.15984C2.32457 5.58011 2.78531 5.85232 3.14451 5.93422C3.48106 6.01094 3.81608 5.80032 3.8928 5.46378C3.96953 5.12723 3.75891 4.79221 3.42236 4.71549C3.36517 4.70245 3.12401 4.59602 2.8951 4.33524C2.71105 4.12556 2.5518 3.83431 2.51343 3.4448L2.51342 3.442C2.51342 1.99597 3.68566 0.82373 5.1317 0.82373ZM10.7467 13.5564C9.78161 13.5564 8.92306 13.1001 8.375 12.3916V6.54847C8.63125 6.73377 8.90292 6.8858 9.16676 6.99712C9.48479 7.13131 9.85138 6.98228 9.98557 6.66426C10.1198 6.34623 9.97073 5.97964 9.6527 5.84545C9.10048 5.61244 8.59059 5.16031 8.41215 4.7442C8.40121 4.7187 8.38878 4.6943 8.375 4.67105V1.74429C8.85524 1.18096 9.57007 0.82373 10.3683 0.82373C11.8144 0.82373 12.9866 1.99597 12.9866 3.442C12.9866 3.5379 12.9814 3.6326 12.9714 3.72583L12.9735 3.727C12.9104 4.13687 12.7432 4.51485 12.5637 4.69187C12.3179 4.93423 12.3151 5.32995 12.5575 5.57574C12.7998 5.82153 13.1956 5.82431 13.4414 5.58196C13.6831 5.34355 13.8674 5.03149 13.9985 4.69875C14.4661 5.39248 14.75 6.30523 14.75 7.23401C14.75 8.32338 14.3595 9.62818 13.7399 10.3004L13.7172 10.299C13.5892 10.2898 13.4248 10.2584 13.241 10.1893C12.8784 10.0528 12.4397 9.76898 12.0576 9.21421C11.8618 8.92993 11.4726 8.8582 11.1884 9.05399C10.9041 9.24978 10.8324 9.63896 11.0281 9.92323C11.5588 10.6937 12.2056 11.1352 12.8007 11.3591C13.066 11.459 13.332 11.5191 13.5787 11.5417C13.1722 12.7144 12.0578 13.5564 10.7467 13.5564Z" fill="#FF8C42"/>
</g>
<defs>
<clipPath id="clip0_730_25420">
<rect width="14" height="14" fill="white" transform="translate(0.75)"/>
</clipPath>
</defs>
</svg>
