<svg width="322" height="52" viewBox="0 0 322 52" fill="none" xmlns="http://www.w3.org/2000/svg">
<g clip-path="url(#clip0_1025_49632)">
<rect x="1" y="1" width="320" height="50" fill="white"/>
<path d="M1 1L321 51" stroke="#979797" stroke-opacity="0.8" stroke-linecap="square"/>
<path d="M321 1L1 51" stroke="#979797" stroke-opacity="0.8" stroke-linecap="square"/>
<rect width="122" height="53" transform="translate(100 -0.5)" fill="white"/>
<path d="M130.02 15.156C130.1 14.6013 130.255 14.116 130.484 13.7C130.714 13.2787 130.999 12.9293 131.34 12.652C131.687 12.3693 132.082 12.1587 132.524 12.02C132.972 11.876 133.452 11.804 133.964 11.804C134.498 11.804 134.978 11.8813 135.404 12.036C135.836 12.1853 136.204 12.396 136.508 12.668C136.812 12.9347 137.044 13.2493 137.204 13.612C137.37 13.9747 137.452 14.3667 137.452 14.788C137.452 15.156 137.41 15.4813 137.324 15.764C137.244 16.0413 137.127 16.284 136.972 16.492C136.818 16.7 136.626 16.876 136.396 17.02C136.167 17.164 135.908 17.284 135.62 17.38C136.314 17.5987 136.831 17.932 137.172 18.38C137.514 18.828 137.684 19.3907 137.684 20.068C137.684 20.644 137.578 21.1533 137.364 21.596C137.151 22.0387 136.863 22.412 136.5 22.716C136.138 23.0147 135.716 23.2413 135.236 23.396C134.762 23.5507 134.258 23.628 133.724 23.628C133.143 23.628 132.636 23.5613 132.204 23.428C131.772 23.2947 131.396 23.0973 131.076 22.836C130.756 22.5747 130.484 22.2547 130.26 21.876C130.036 21.4973 129.844 21.06 129.684 20.564L130.556 20.204C130.786 20.108 130.999 20.084 131.196 20.132C131.399 20.1747 131.546 20.2813 131.636 20.452C131.732 20.6387 131.836 20.8227 131.948 21.004C132.066 21.1853 132.204 21.348 132.364 21.492C132.524 21.6307 132.711 21.7453 132.924 21.836C133.143 21.9213 133.402 21.964 133.7 21.964C134.036 21.964 134.33 21.9107 134.58 21.804C134.831 21.692 135.039 21.548 135.204 21.372C135.375 21.196 135.5 21.0013 135.58 20.788C135.666 20.5693 135.708 20.3507 135.708 20.132C135.708 19.8547 135.679 19.604 135.62 19.38C135.562 19.1507 135.439 18.956 135.252 18.796C135.066 18.636 134.796 18.5107 134.444 18.42C134.098 18.3293 133.631 18.284 133.044 18.284V16.876C133.53 16.8707 133.932 16.8253 134.252 16.74C134.572 16.6547 134.826 16.5373 135.012 16.388C135.204 16.2333 135.338 16.0493 135.412 15.836C135.487 15.6227 135.524 15.388 135.524 15.132C135.524 14.588 135.372 14.1747 135.068 13.892C134.764 13.6093 134.359 13.468 133.852 13.468C133.618 13.468 133.402 13.5027 133.204 13.572C133.007 13.636 132.828 13.7293 132.668 13.852C132.514 13.9693 132.383 14.108 132.276 14.268C132.17 14.428 132.09 14.604 132.036 14.796C131.946 15.0413 131.826 15.204 131.676 15.284C131.532 15.364 131.327 15.3827 131.06 15.34L130.02 15.156ZM146.286 21.66C146.499 21.66 146.667 21.7213 146.79 21.844C146.918 21.9613 146.982 22.1187 146.982 22.316V23.5H139.046V22.844C139.046 22.7107 139.072 22.572 139.126 22.428C139.184 22.2787 139.275 22.1453 139.398 22.028L142.91 18.508C143.203 18.2093 143.464 17.924 143.694 17.652C143.928 17.38 144.123 17.1107 144.278 16.844C144.432 16.5773 144.55 16.308 144.63 16.036C144.715 15.7587 144.758 15.468 144.758 15.164C144.758 14.8867 144.718 14.644 144.638 14.436C144.558 14.2227 144.443 14.044 144.294 13.9C144.15 13.756 143.974 13.6493 143.766 13.58C143.563 13.5053 143.334 13.468 143.078 13.468C142.843 13.468 142.624 13.5027 142.422 13.572C142.224 13.636 142.048 13.7293 141.894 13.852C141.739 13.9693 141.608 14.108 141.502 14.268C141.395 14.428 141.315 14.604 141.262 14.796C141.171 15.0413 141.054 15.204 140.91 15.284C140.766 15.364 140.558 15.3827 140.286 15.34L139.246 15.156C139.326 14.6013 139.48 14.116 139.71 13.7C139.939 13.2787 140.224 12.9293 140.566 12.652C140.912 12.3693 141.307 12.1587 141.75 12.02C142.198 11.876 142.678 11.804 143.19 11.804C143.723 11.804 144.211 11.884 144.654 12.044C145.096 12.1987 145.475 12.42 145.79 12.708C146.104 12.996 146.35 13.3427 146.526 13.748C146.702 14.1533 146.79 14.604 146.79 15.1C146.79 15.5267 146.726 15.9213 146.598 16.284C146.475 16.6467 146.307 16.9933 146.094 17.324C145.886 17.6547 145.64 17.9747 145.358 18.284C145.075 18.5933 144.779 18.908 144.47 19.228L141.862 21.892C142.112 21.8173 142.36 21.7613 142.606 21.724C142.856 21.6813 143.094 21.66 143.318 21.66H146.286ZM156.599 17.716C156.599 18.724 156.489 19.6013 156.271 20.348C156.057 21.0893 155.759 21.7027 155.375 22.188C154.996 22.6733 154.545 23.036 154.023 23.276C153.505 23.5107 152.945 23.628 152.343 23.628C151.74 23.628 151.18 23.5107 150.663 23.276C150.151 23.036 149.705 22.6733 149.327 22.188C148.948 21.7027 148.652 21.0893 148.439 20.348C148.225 19.6013 148.119 18.724 148.119 17.716C148.119 16.7027 148.225 15.8253 148.439 15.084C148.652 14.3427 148.948 13.7293 149.327 13.244C149.705 12.7587 150.151 12.3987 150.663 12.164C151.18 11.924 151.74 11.804 152.343 11.804C152.945 11.804 153.505 11.924 154.023 12.164C154.545 12.3987 154.996 12.7587 155.375 13.244C155.759 13.7293 156.057 14.3427 156.271 15.084C156.489 15.8253 156.599 16.7027 156.599 17.716ZM154.559 17.716C154.559 16.8787 154.497 16.1853 154.375 15.636C154.252 15.0867 154.087 14.6493 153.879 14.324C153.676 13.9987 153.441 13.772 153.175 13.644C152.908 13.5107 152.631 13.444 152.343 13.444C152.06 13.444 151.785 13.5107 151.519 13.644C151.257 13.772 151.025 13.9987 150.823 14.324C150.62 14.6493 150.457 15.0867 150.335 15.636C150.217 16.1853 150.159 16.8787 150.159 17.716C150.159 18.5533 150.217 19.2467 150.335 19.796C150.457 20.3453 150.62 20.7827 150.823 21.108C151.025 21.4333 151.257 21.6627 151.519 21.796C151.785 21.924 152.06 21.988 152.343 21.988C152.631 21.988 152.908 21.924 153.175 21.796C153.441 21.6627 153.676 21.4333 153.879 21.108C154.087 20.7827 154.252 20.3453 154.375 19.796C154.497 19.2467 154.559 18.5533 154.559 17.716Z" fill="black" fill-opacity="0.87"/>
<path d="M169.624 23.5H167.72C167.576 23.5 167.459 23.4627 167.368 23.388C167.283 23.3133 167.211 23.228 167.152 23.132L165.416 20.276C165.39 20.3667 165.358 20.452 165.32 20.532C165.288 20.612 165.251 20.6867 165.208 20.756L163.672 23.132C163.614 23.2227 163.542 23.308 163.456 23.388C163.371 23.4627 163.264 23.5 163.136 23.5H161.368L164.184 19.268L161.48 15.292H163.384C163.528 15.292 163.635 15.3133 163.704 15.356C163.774 15.3933 163.835 15.4573 163.888 15.548L165.608 18.284C165.667 18.1027 165.75 17.924 165.856 17.748L167.24 15.588C167.358 15.3907 167.51 15.292 167.696 15.292H169.512L166.816 19.18L169.624 23.5Z" fill="black" fill-opacity="0.87"/>
<path d="M177.248 16.132C177.504 16.0787 177.749 16.0413 177.984 16.02C178.219 15.9933 178.445 15.98 178.664 15.98C179.272 15.98 179.808 16.0707 180.272 16.252C180.736 16.4333 181.125 16.684 181.44 17.004C181.755 17.324 181.992 17.7 182.152 18.132C182.312 18.5587 182.392 19.02 182.392 19.516C182.392 20.1293 182.283 20.6893 182.064 21.196C181.851 21.7027 181.552 22.1373 181.168 22.5C180.784 22.8573 180.328 23.1347 179.8 23.332C179.277 23.5293 178.707 23.628 178.088 23.628C177.725 23.628 177.381 23.5907 177.056 23.516C176.731 23.4413 176.424 23.3427 176.136 23.22C175.853 23.092 175.589 22.948 175.344 22.788C175.104 22.6227 174.888 22.4493 174.696 22.268L175.304 21.428C175.432 21.2467 175.6 21.156 175.808 21.156C175.941 21.156 176.077 21.1987 176.216 21.284C176.355 21.3693 176.512 21.4627 176.688 21.564C176.869 21.6653 177.08 21.7587 177.32 21.844C177.565 21.9293 177.859 21.972 178.2 21.972C178.563 21.972 178.883 21.9133 179.16 21.796C179.437 21.6787 179.667 21.516 179.848 21.308C180.035 21.0947 180.173 20.844 180.264 20.556C180.36 20.2627 180.408 19.9453 180.408 19.604C180.408 18.9747 180.224 18.484 179.856 18.132C179.493 17.7747 178.955 17.596 178.24 17.596C177.691 17.596 177.128 17.6973 176.552 17.9L175.32 17.548L176.28 11.932H181.992V12.772C181.992 13.0547 181.904 13.284 181.728 13.46C181.552 13.636 181.253 13.724 180.832 13.724H177.656L177.248 16.132ZM192.161 17.716C192.161 18.724 192.052 19.6013 191.833 20.348C191.62 21.0893 191.321 21.7027 190.937 22.188C190.559 22.6733 190.108 23.036 189.585 23.276C189.068 23.5107 188.508 23.628 187.905 23.628C187.303 23.628 186.743 23.5107 186.225 23.276C185.713 23.036 185.268 22.6733 184.889 22.188C184.511 21.7027 184.215 21.0893 184.001 20.348C183.788 19.6013 183.681 18.724 183.681 17.716C183.681 16.7027 183.788 15.8253 184.001 15.084C184.215 14.3427 184.511 13.7293 184.889 13.244C185.268 12.7587 185.713 12.3987 186.225 12.164C186.743 11.924 187.303 11.804 187.905 11.804C188.508 11.804 189.068 11.924 189.585 12.164C190.108 12.3987 190.559 12.7587 190.937 13.244C191.321 13.7293 191.62 14.3427 191.833 15.084C192.052 15.8253 192.161 16.7027 192.161 17.716ZM190.121 17.716C190.121 16.8787 190.06 16.1853 189.937 15.636C189.815 15.0867 189.649 14.6493 189.441 14.324C189.239 13.9987 189.004 13.772 188.737 13.644C188.471 13.5107 188.193 13.444 187.905 13.444C187.623 13.444 187.348 13.5107 187.081 13.644C186.82 13.772 186.588 13.9987 186.385 14.324C186.183 14.6493 186.02 15.0867 185.897 15.636C185.78 16.1853 185.721 16.8787 185.721 17.716C185.721 18.5533 185.78 19.2467 185.897 19.796C186.02 20.3453 186.183 20.7827 186.385 21.108C186.588 21.4333 186.82 21.6627 187.081 21.796C187.348 21.924 187.623 21.988 187.905 21.988C188.193 21.988 188.471 21.924 188.737 21.796C189.004 21.6627 189.239 21.4333 189.441 21.108C189.649 20.7827 189.815 20.3453 189.937 19.796C190.06 19.2467 190.121 18.5533 190.121 17.716Z" fill="black" fill-opacity="0.87"/>
<path d="M118.339 33.902V42.5H117.319V36.182C117.319 36.098 117.321 36.008 117.325 35.912C117.333 35.816 117.341 35.718 117.349 35.618L114.397 40.994C114.305 41.174 114.165 41.264 113.977 41.264H113.809C113.621 41.264 113.481 41.174 113.389 40.994L110.377 35.594C110.401 35.806 110.413 36.002 110.413 36.182V42.5H109.393V33.902H110.251C110.355 33.902 110.435 33.912 110.491 33.932C110.547 33.952 110.601 34.008 110.653 34.1L113.623 39.392C113.671 39.488 113.717 39.588 113.761 39.692C113.809 39.796 113.853 39.902 113.893 40.01C113.933 39.902 113.975 39.796 114.019 39.692C114.063 39.584 114.111 39.482 114.163 39.386L117.079 34.1C117.127 34.008 117.179 33.952 117.235 33.932C117.295 33.912 117.377 33.902 117.481 33.902H118.339ZM122.66 36.326C123.104 36.326 123.504 36.4 123.86 36.548C124.216 36.696 124.52 36.906 124.772 37.178C125.024 37.45 125.216 37.78 125.348 38.168C125.484 38.552 125.552 38.982 125.552 39.458C125.552 39.938 125.484 40.37 125.348 40.754C125.216 41.138 125.024 41.466 124.772 41.738C124.52 42.01 124.216 42.22 123.86 42.368C123.504 42.512 123.104 42.584 122.66 42.584C122.212 42.584 121.808 42.512 121.448 42.368C121.092 42.22 120.788 42.01 120.536 41.738C120.284 41.466 120.09 41.138 119.954 40.754C119.822 40.37 119.756 39.938 119.756 39.458C119.756 38.982 119.822 38.552 119.954 38.168C120.09 37.78 120.284 37.45 120.536 37.178C120.788 36.906 121.092 36.696 121.448 36.548C121.808 36.4 122.212 36.326 122.66 36.326ZM122.66 41.75C123.26 41.75 123.708 41.55 124.004 41.15C124.3 40.746 124.448 40.184 124.448 39.464C124.448 38.74 124.3 38.176 124.004 37.772C123.708 37.368 123.26 37.166 122.66 37.166C122.356 37.166 122.09 37.218 121.862 37.322C121.638 37.426 121.45 37.576 121.298 37.772C121.15 37.968 121.038 38.21 120.962 38.498C120.89 38.782 120.854 39.104 120.854 39.464C120.854 40.184 121.002 40.746 121.298 41.15C121.598 41.55 122.052 41.75 122.66 41.75ZM127.981 41.036C128.177 41.3 128.391 41.486 128.623 41.594C128.859 41.702 129.117 41.756 129.397 41.756C129.969 41.756 130.407 41.554 130.711 41.15C131.015 40.746 131.167 40.144 131.167 39.344C131.167 38.6 131.031 38.054 130.759 37.706C130.491 37.354 130.107 37.178 129.607 37.178C129.259 37.178 128.955 37.258 128.695 37.418C128.439 37.578 128.201 37.804 127.981 38.096V41.036ZM127.981 37.298C128.237 37.002 128.525 36.766 128.845 36.59C129.169 36.414 129.541 36.326 129.961 36.326C130.317 36.326 130.637 36.394 130.921 36.53C131.209 36.666 131.453 36.864 131.653 37.124C131.853 37.38 132.005 37.692 132.109 38.06C132.217 38.428 132.271 38.842 132.271 39.302C132.271 39.794 132.211 40.242 132.091 40.646C131.971 41.05 131.797 41.396 131.569 41.684C131.345 41.968 131.071 42.19 130.747 42.35C130.423 42.506 130.059 42.584 129.655 42.584C129.255 42.584 128.917 42.51 128.641 42.362C128.369 42.21 128.131 41.996 127.927 41.72L127.873 42.272C127.841 42.424 127.749 42.5 127.597 42.5H126.907V33.662H127.981V37.298ZM134.749 36.422V42.5H133.681V36.422H134.749ZM134.977 34.514C134.977 34.618 134.955 34.716 134.911 34.808C134.871 34.896 134.815 34.976 134.743 35.048C134.675 35.116 134.593 35.17 134.497 35.21C134.405 35.25 134.307 35.27 134.203 35.27C134.099 35.27 134.001 35.25 133.909 35.21C133.821 35.17 133.743 35.116 133.675 35.048C133.607 34.976 133.553 34.896 133.513 34.808C133.473 34.716 133.453 34.618 133.453 34.514C133.453 34.41 133.473 34.312 133.513 34.22C133.553 34.124 133.607 34.042 133.675 33.974C133.743 33.902 133.821 33.846 133.909 33.806C134.001 33.766 134.099 33.746 134.203 33.746C134.307 33.746 134.405 33.766 134.497 33.806C134.593 33.846 134.675 33.902 134.743 33.974C134.815 34.042 134.871 34.124 134.911 34.22C134.955 34.312 134.977 34.41 134.977 34.514ZM137.608 33.662V42.5H136.54V33.662H137.608ZM143.408 38.798C143.408 38.55 143.372 38.324 143.3 38.12C143.232 37.912 143.13 37.734 142.994 37.586C142.862 37.434 142.7 37.318 142.508 37.238C142.316 37.154 142.098 37.112 141.854 37.112C141.342 37.112 140.936 37.262 140.636 37.562C140.34 37.858 140.156 38.27 140.084 38.798H143.408ZM144.272 41.648C144.14 41.808 143.982 41.948 143.798 42.068C143.614 42.184 143.416 42.28 143.204 42.356C142.996 42.432 142.78 42.488 142.556 42.524C142.332 42.564 142.11 42.584 141.89 42.584C141.47 42.584 141.082 42.514 140.726 42.374C140.374 42.23 140.068 42.022 139.808 41.75C139.552 41.474 139.352 41.134 139.208 40.73C139.064 40.326 138.992 39.862 138.992 39.338C138.992 38.914 139.056 38.518 139.184 38.15C139.316 37.782 139.504 37.464 139.748 37.196C139.992 36.924 140.29 36.712 140.642 36.56C140.994 36.404 141.39 36.326 141.83 36.326C142.194 36.326 142.53 36.388 142.838 36.512C143.15 36.632 143.418 36.808 143.642 37.04C143.87 37.268 144.048 37.552 144.176 37.892C144.304 38.228 144.368 38.612 144.368 39.044C144.368 39.212 144.35 39.324 144.314 39.38C144.278 39.436 144.21 39.464 144.11 39.464H140.048C140.06 39.848 140.112 40.182 140.204 40.466C140.3 40.75 140.432 40.988 140.6 41.18C140.768 41.368 140.968 41.51 141.2 41.606C141.432 41.698 141.692 41.744 141.98 41.744C142.248 41.744 142.478 41.714 142.67 41.654C142.866 41.59 143.034 41.522 143.174 41.45C143.314 41.378 143.43 41.312 143.522 41.252C143.618 41.188 143.7 41.156 143.768 41.156C143.856 41.156 143.924 41.19 143.972 41.258L144.272 41.648ZM153.88 41.522V42.5H149.002V33.902H150.16V41.522H153.88ZM158.549 38.798C158.549 38.55 158.513 38.324 158.441 38.12C158.373 37.912 158.271 37.734 158.135 37.586C158.003 37.434 157.841 37.318 157.649 37.238C157.457 37.154 157.239 37.112 156.995 37.112C156.483 37.112 156.077 37.262 155.777 37.562C155.481 37.858 155.297 38.27 155.225 38.798H158.549ZM159.413 41.648C159.281 41.808 159.123 41.948 158.939 42.068C158.755 42.184 158.557 42.28 158.345 42.356C158.137 42.432 157.921 42.488 157.697 42.524C157.473 42.564 157.251 42.584 157.031 42.584C156.611 42.584 156.223 42.514 155.867 42.374C155.515 42.23 155.209 42.022 154.949 41.75C154.693 41.474 154.493 41.134 154.349 40.73C154.205 40.326 154.133 39.862 154.133 39.338C154.133 38.914 154.197 38.518 154.325 38.15C154.457 37.782 154.645 37.464 154.889 37.196C155.133 36.924 155.431 36.712 155.783 36.56C156.135 36.404 156.531 36.326 156.971 36.326C157.335 36.326 157.671 36.388 157.979 36.512C158.291 36.632 158.559 36.808 158.783 37.04C159.011 37.268 159.189 37.552 159.317 37.892C159.445 38.228 159.509 38.612 159.509 39.044C159.509 39.212 159.491 39.324 159.455 39.38C159.419 39.436 159.351 39.464 159.251 39.464H155.189C155.201 39.848 155.253 40.182 155.345 40.466C155.441 40.75 155.573 40.988 155.741 41.18C155.909 41.368 156.109 41.51 156.341 41.606C156.573 41.698 156.833 41.744 157.121 41.744C157.389 41.744 157.619 41.714 157.811 41.654C158.007 41.59 158.175 41.522 158.315 41.45C158.455 41.378 158.571 41.312 158.663 41.252C158.759 41.188 158.841 41.156 158.909 41.156C158.997 41.156 159.065 41.19 159.113 41.258L159.413 41.648ZM164.115 39.764C163.623 39.78 163.203 39.82 162.855 39.884C162.511 39.944 162.229 40.024 162.009 40.124C161.793 40.224 161.635 40.342 161.535 40.478C161.439 40.614 161.391 40.766 161.391 40.934C161.391 41.094 161.417 41.232 161.469 41.348C161.521 41.464 161.591 41.56 161.679 41.636C161.771 41.708 161.877 41.762 161.997 41.798C162.121 41.83 162.253 41.846 162.393 41.846C162.581 41.846 162.753 41.828 162.909 41.792C163.065 41.752 163.211 41.696 163.347 41.624C163.487 41.552 163.619 41.466 163.743 41.366C163.871 41.266 163.995 41.152 164.115 41.024V39.764ZM160.665 37.28C161.001 36.956 161.363 36.714 161.751 36.554C162.139 36.394 162.569 36.314 163.041 36.314C163.381 36.314 163.683 36.37 163.947 36.482C164.211 36.594 164.433 36.75 164.613 36.95C164.793 37.15 164.929 37.392 165.021 37.676C165.113 37.96 165.159 38.272 165.159 38.612V42.5H164.685C164.581 42.5 164.501 42.484 164.445 42.452C164.389 42.416 164.345 42.348 164.313 42.248L164.193 41.672C164.033 41.82 163.877 41.952 163.725 42.068C163.573 42.18 163.413 42.276 163.245 42.356C163.077 42.432 162.897 42.49 162.705 42.53C162.517 42.574 162.307 42.596 162.075 42.596C161.839 42.596 161.617 42.564 161.409 42.5C161.201 42.432 161.019 42.332 160.863 42.2C160.711 42.068 160.589 41.902 160.497 41.702C160.409 41.498 160.365 41.258 160.365 40.982C160.365 40.742 160.431 40.512 160.563 40.292C160.695 40.068 160.909 39.87 161.205 39.698C161.501 39.526 161.887 39.386 162.363 39.278C162.839 39.166 163.423 39.102 164.115 39.086V38.612C164.115 38.14 164.013 37.784 163.809 37.544C163.605 37.3 163.307 37.178 162.915 37.178C162.651 37.178 162.429 37.212 162.249 37.28C162.073 37.344 161.919 37.418 161.787 37.502C161.659 37.582 161.547 37.656 161.451 37.724C161.359 37.788 161.267 37.82 161.175 37.82C161.103 37.82 161.041 37.802 160.989 37.766C160.937 37.726 160.893 37.678 160.857 37.622L160.665 37.28ZM170.745 37.868C170.545 37.6 170.329 37.414 170.097 37.31C169.865 37.202 169.605 37.148 169.317 37.148C168.753 37.148 168.319 37.35 168.015 37.754C167.711 38.158 167.559 38.734 167.559 39.482C167.559 39.878 167.593 40.218 167.661 40.502C167.729 40.782 167.829 41.014 167.961 41.198C168.093 41.378 168.255 41.51 168.447 41.594C168.639 41.678 168.857 41.72 169.101 41.72C169.453 41.72 169.759 41.64 170.019 41.48C170.283 41.32 170.525 41.094 170.745 40.802V37.868ZM171.813 33.662V42.5H171.177C171.025 42.5 170.929 42.426 170.889 42.278L170.793 41.54C170.533 41.852 170.237 42.104 169.905 42.296C169.573 42.488 169.189 42.584 168.753 42.584C168.405 42.584 168.089 42.518 167.805 42.386C167.521 42.25 167.279 42.052 167.079 41.792C166.879 41.532 166.725 41.208 166.617 40.82C166.509 40.432 166.455 39.986 166.455 39.482C166.455 39.034 166.515 38.618 166.635 38.234C166.755 37.846 166.927 37.51 167.151 37.226C167.375 36.942 167.649 36.72 167.973 36.56C168.301 36.396 168.669 36.314 169.077 36.314C169.449 36.314 169.767 36.378 170.031 36.506C170.299 36.63 170.537 36.804 170.745 37.028V33.662H171.813ZM177.568 38.798C177.568 38.55 177.532 38.324 177.46 38.12C177.392 37.912 177.29 37.734 177.154 37.586C177.022 37.434 176.86 37.318 176.668 37.238C176.476 37.154 176.258 37.112 176.014 37.112C175.502 37.112 175.096 37.262 174.796 37.562C174.5 37.858 174.316 38.27 174.244 38.798H177.568ZM178.432 41.648C178.3 41.808 178.142 41.948 177.958 42.068C177.774 42.184 177.576 42.28 177.364 42.356C177.156 42.432 176.94 42.488 176.716 42.524C176.492 42.564 176.27 42.584 176.05 42.584C175.63 42.584 175.242 42.514 174.886 42.374C174.534 42.23 174.228 42.022 173.968 41.75C173.712 41.474 173.512 41.134 173.368 40.73C173.224 40.326 173.152 39.862 173.152 39.338C173.152 38.914 173.216 38.518 173.344 38.15C173.476 37.782 173.664 37.464 173.908 37.196C174.152 36.924 174.45 36.712 174.802 36.56C175.154 36.404 175.55 36.326 175.99 36.326C176.354 36.326 176.69 36.388 176.998 36.512C177.31 36.632 177.578 36.808 177.802 37.04C178.03 37.268 178.208 37.552 178.336 37.892C178.464 38.228 178.528 38.612 178.528 39.044C178.528 39.212 178.51 39.324 178.474 39.38C178.438 39.436 178.37 39.464 178.27 39.464H174.208C174.22 39.848 174.272 40.182 174.364 40.466C174.46 40.75 174.592 40.988 174.76 41.18C174.928 41.368 175.128 41.51 175.36 41.606C175.592 41.698 175.852 41.744 176.14 41.744C176.408 41.744 176.638 41.714 176.83 41.654C177.026 41.59 177.194 41.522 177.334 41.45C177.474 41.378 177.59 41.312 177.682 41.252C177.778 41.188 177.86 41.156 177.928 41.156C178.016 41.156 178.084 41.19 178.132 41.258L178.432 41.648ZM180.854 37.64C181.046 37.224 181.282 36.9 181.562 36.668C181.842 36.432 182.184 36.314 182.588 36.314C182.716 36.314 182.838 36.328 182.954 36.356C183.074 36.384 183.18 36.428 183.272 36.488L183.194 37.286C183.17 37.386 183.11 37.436 183.014 37.436C182.958 37.436 182.876 37.424 182.768 37.4C182.66 37.376 182.538 37.364 182.402 37.364C182.21 37.364 182.038 37.392 181.886 37.448C181.738 37.504 181.604 37.588 181.484 37.7C181.368 37.808 181.262 37.944 181.166 38.108C181.074 38.268 180.99 38.452 180.914 38.66V42.5H179.84V36.422H180.452C180.568 36.422 180.648 36.444 180.692 36.488C180.736 36.532 180.766 36.608 180.782 36.716L180.854 37.64ZM185.285 41.036C185.481 41.3 185.695 41.486 185.927 41.594C186.163 41.702 186.421 41.756 186.701 41.756C187.273 41.756 187.711 41.554 188.015 41.15C188.319 40.746 188.471 40.144 188.471 39.344C188.471 38.6 188.335 38.054 188.063 37.706C187.795 37.354 187.411 37.178 186.911 37.178C186.563 37.178 186.259 37.258 185.999 37.418C185.743 37.578 185.505 37.804 185.285 38.096V41.036ZM185.285 37.298C185.541 37.002 185.829 36.766 186.149 36.59C186.473 36.414 186.845 36.326 187.265 36.326C187.621 36.326 187.941 36.394 188.225 36.53C188.513 36.666 188.757 36.864 188.957 37.124C189.157 37.38 189.309 37.692 189.413 38.06C189.521 38.428 189.575 38.842 189.575 39.302C189.575 39.794 189.515 40.242 189.395 40.646C189.275 41.05 189.101 41.396 188.873 41.684C188.649 41.968 188.375 42.19 188.051 42.35C187.727 42.506 187.363 42.584 186.959 42.584C186.559 42.584 186.221 42.51 185.945 42.362C185.673 42.21 185.435 41.996 185.231 41.72L185.177 42.272C185.145 42.424 185.053 42.5 184.901 42.5H184.211V33.662H185.285V37.298ZM193.488 36.326C193.932 36.326 194.332 36.4 194.688 36.548C195.044 36.696 195.348 36.906 195.6 37.178C195.852 37.45 196.044 37.78 196.176 38.168C196.312 38.552 196.38 38.982 196.38 39.458C196.38 39.938 196.312 40.37 196.176 40.754C196.044 41.138 195.852 41.466 195.6 41.738C195.348 42.01 195.044 42.22 194.688 42.368C194.332 42.512 193.932 42.584 193.488 42.584C193.04 42.584 192.636 42.512 192.276 42.368C191.92 42.22 191.616 42.01 191.364 41.738C191.112 41.466 190.918 41.138 190.782 40.754C190.65 40.37 190.584 39.938 190.584 39.458C190.584 38.982 190.65 38.552 190.782 38.168C190.918 37.78 191.112 37.45 191.364 37.178C191.616 36.906 191.92 36.696 192.276 36.548C192.636 36.4 193.04 36.326 193.488 36.326ZM193.488 41.75C194.088 41.75 194.536 41.55 194.832 41.15C195.128 40.746 195.276 40.184 195.276 39.464C195.276 38.74 195.128 38.176 194.832 37.772C194.536 37.368 194.088 37.166 193.488 37.166C193.184 37.166 192.918 37.218 192.69 37.322C192.466 37.426 192.278 37.576 192.126 37.772C191.978 37.968 191.866 38.21 191.79 38.498C191.718 38.782 191.682 39.104 191.682 39.464C191.682 40.184 191.83 40.746 192.126 41.15C192.426 41.55 192.88 41.75 193.488 41.75ZM201.029 39.764C200.537 39.78 200.117 39.82 199.769 39.884C199.425 39.944 199.143 40.024 198.923 40.124C198.707 40.224 198.549 40.342 198.449 40.478C198.353 40.614 198.305 40.766 198.305 40.934C198.305 41.094 198.331 41.232 198.383 41.348C198.435 41.464 198.505 41.56 198.593 41.636C198.685 41.708 198.791 41.762 198.911 41.798C199.035 41.83 199.167 41.846 199.307 41.846C199.495 41.846 199.667 41.828 199.823 41.792C199.979 41.752 200.125 41.696 200.261 41.624C200.401 41.552 200.533 41.466 200.657 41.366C200.785 41.266 200.909 41.152 201.029 41.024V39.764ZM197.579 37.28C197.915 36.956 198.277 36.714 198.665 36.554C199.053 36.394 199.483 36.314 199.955 36.314C200.295 36.314 200.597 36.37 200.861 36.482C201.125 36.594 201.347 36.75 201.527 36.95C201.707 37.15 201.843 37.392 201.935 37.676C202.027 37.96 202.073 38.272 202.073 38.612V42.5H201.599C201.495 42.5 201.415 42.484 201.359 42.452C201.303 42.416 201.259 42.348 201.227 42.248L201.107 41.672C200.947 41.82 200.791 41.952 200.639 42.068C200.487 42.18 200.327 42.276 200.159 42.356C199.991 42.432 199.811 42.49 199.619 42.53C199.431 42.574 199.221 42.596 198.989 42.596C198.753 42.596 198.531 42.564 198.323 42.5C198.115 42.432 197.933 42.332 197.777 42.2C197.625 42.068 197.503 41.902 197.411 41.702C197.323 41.498 197.279 41.258 197.279 40.982C197.279 40.742 197.345 40.512 197.477 40.292C197.609 40.068 197.823 39.87 198.119 39.698C198.415 39.526 198.801 39.386 199.277 39.278C199.753 39.166 200.337 39.102 201.029 39.086V38.612C201.029 38.14 200.927 37.784 200.723 37.544C200.519 37.3 200.221 37.178 199.829 37.178C199.565 37.178 199.343 37.212 199.163 37.28C198.987 37.344 198.833 37.418 198.701 37.502C198.573 37.582 198.461 37.656 198.365 37.724C198.273 37.788 198.181 37.82 198.089 37.82C198.017 37.82 197.955 37.802 197.903 37.766C197.851 37.726 197.807 37.678 197.771 37.622L197.579 37.28ZM204.714 37.64C204.906 37.224 205.142 36.9 205.422 36.668C205.702 36.432 206.044 36.314 206.448 36.314C206.576 36.314 206.698 36.328 206.814 36.356C206.934 36.384 207.04 36.428 207.132 36.488L207.054 37.286C207.03 37.386 206.97 37.436 206.874 37.436C206.818 37.436 206.736 37.424 206.628 37.4C206.52 37.376 206.398 37.364 206.262 37.364C206.07 37.364 205.898 37.392 205.746 37.448C205.598 37.504 205.464 37.588 205.344 37.7C205.228 37.808 205.122 37.944 205.026 38.108C204.934 38.268 204.85 38.452 204.774 38.66V42.5H203.7V36.422H204.312C204.428 36.422 204.508 36.444 204.552 36.488C204.596 36.532 204.626 36.608 204.642 36.716L204.714 37.64ZM211.796 37.868C211.596 37.6 211.38 37.414 211.148 37.31C210.916 37.202 210.656 37.148 210.368 37.148C209.804 37.148 209.37 37.35 209.066 37.754C208.762 38.158 208.61 38.734 208.61 39.482C208.61 39.878 208.644 40.218 208.712 40.502C208.78 40.782 208.88 41.014 209.012 41.198C209.144 41.378 209.306 41.51 209.498 41.594C209.69 41.678 209.908 41.72 210.152 41.72C210.504 41.72 210.81 41.64 211.07 41.48C211.334 41.32 211.576 41.094 211.796 40.802V37.868ZM212.864 33.662V42.5H212.228C212.076 42.5 211.98 42.426 211.94 42.278L211.844 41.54C211.584 41.852 211.288 42.104 210.956 42.296C210.624 42.488 210.24 42.584 209.804 42.584C209.456 42.584 209.14 42.518 208.856 42.386C208.572 42.25 208.33 42.052 208.13 41.792C207.93 41.532 207.776 41.208 207.668 40.82C207.56 40.432 207.506 39.986 207.506 39.482C207.506 39.034 207.566 38.618 207.686 38.234C207.806 37.846 207.978 37.51 208.202 37.226C208.426 36.942 208.7 36.72 209.024 36.56C209.352 36.396 209.72 36.314 210.128 36.314C210.5 36.314 210.818 36.378 211.082 36.506C211.35 36.63 211.588 36.804 211.796 37.028V33.662H212.864Z" fill="black" fill-opacity="0.38"/>
</g>
<rect x="1" y="1" width="320" height="50" stroke="#979797" stroke-linejoin="bevel"/>
<defs>
<clipPath id="clip0_1025_49632">
<rect x="1" y="1" width="320" height="50" fill="white"/>
</clipPath>
</defs>
</svg>
