<svg width="21" height="24" viewBox="0 0 21 24" fill="none" xmlns="http://www.w3.org/2000/svg">
<path fill-rule="evenodd" clip-rule="evenodd" d="M9.54811 0.216309C8.60134 0.216309 7.83382 0.98382 7.83382 1.93059V13.2257C7.20113 12.9704 6.50984 12.8299 5.78571 12.8299C2.76106 12.8299 0.309082 15.2818 0.309082 18.3066C0.309082 21.3311 2.76106 23.7832 5.78571 23.7832C8.81038 23.7832 11.2624 21.3311 11.2624 18.3066C11.2624 18.2966 11.2623 18.2869 11.2623 18.2771C11.2624 18.2701 11.2624 18.2632 11.2624 18.2562V3.82354C11.6969 3.91525 12.1227 4.04182 12.5349 4.20214C13.4789 4.56922 14.3298 5.10469 15.0417 5.77308C15.7534 6.44125 16.3118 7.22859 16.6906 8.08707C17.0691 8.94522 17.2623 9.86084 17.2623 10.7826C17.2623 11.7294 18.0298 12.4969 18.9766 12.4969C19.9234 12.4969 20.6909 11.7294 20.6909 10.7826C20.6909 9.37947 20.3964 7.9929 19.8274 6.70311C19.2585 5.41364 18.4279 4.2493 17.3885 3.27349C16.3493 2.29791 15.1215 1.52931 13.7776 1.00669C12.4338 0.484107 10.9969 0.216309 9.54811 0.216309Z" fill="#C84E00"/>
</svg>
