<svg width="55" height="54" viewBox="0 0 55 54" fill="none" xmlns="http://www.w3.org/2000/svg">
<g clip-path="url(#clip0_339_7824)">
<path fill-rule="evenodd" clip-rule="evenodd" d="M26.521 15.2168C25.5742 15.2168 24.8067 15.9843 24.8067 16.9311V28.2262C24.174 27.9709 23.4827 27.8304 22.7586 27.8304C19.734 27.8304 17.282 30.2823 17.282 33.3071C17.282 36.3316 19.734 38.7837 22.7586 38.7837C25.7833 38.7837 28.2353 36.3316 28.2353 33.3071C28.2353 33.2971 28.2352 33.2874 28.2352 33.2776C28.2353 33.2706 28.2353 33.2637 28.2353 33.2567V18.824C28.6698 18.9157 29.0956 19.0423 29.5078 19.2026C30.4518 19.5697 31.3027 20.1052 32.0146 20.7736C32.7263 21.4417 33.2847 22.2291 33.6635 23.0876C34.042 23.9457 34.2352 24.8613 34.2352 25.7831C34.2352 26.7299 35.0027 27.4974 35.9495 27.4974C36.8963 27.4974 37.6638 26.7299 37.6638 25.7831C37.6638 24.38 37.3693 22.9934 36.8003 21.7036C36.2314 20.4141 35.4008 19.2498 34.3614 18.274C33.3222 17.2984 32.0944 16.5298 30.7505 16.0072C29.4067 15.4846 27.9698 15.2168 26.521 15.2168Z" fill="#C84E00"/>
<path d="M3 51L52 3" stroke="#E5770A" stroke-width="3" stroke-linecap="round" stroke-linejoin="round"/>
</g>
<path d="M6.80623 1.5C4.13686 1.5 1.9729 3.66396 1.9729 6.33333V47.6667C1.9729 50.336 4.13686 52.5 6.80623 52.5H48.1396C50.8089 52.5 52.9729 50.336 52.9729 47.6667V6.33333C52.9729 3.66396 50.8089 1.5 48.1396 1.5H6.80623Z" stroke="#E5770A" stroke-width="3"/>
<defs>
<clipPath id="clip0_339_7824">
<path d="M3.4729 6.33333C3.4729 4.49238 4.96528 3 6.80623 3H48.1396C49.9805 3 51.4729 4.49238 51.4729 6.33333V47.6667C51.4729 49.5076 49.9805 51 48.1396 51H6.80623C4.96528 51 3.4729 49.5076 3.4729 47.6667V6.33333Z" fill="white"/>
</clipPath>
</defs>
</svg>
