<svg width="15" height="15" viewBox="0 0 15 15" fill="none" xmlns="http://www.w3.org/2000/svg">
<path fill-rule="evenodd" clip-rule="evenodd" d="M0.5 2.4375C0.5 1.60907 1.17157 0.9375 2 0.9375H4.5C5.32843 0.9375 6 1.60907 6 2.4375V13.4375C6 14.2659 5.32843 14.9375 4.5 14.9375H2C1.17157 14.9375 0.5 14.2659 0.5 13.4375V2.4375ZM10.5 0.9375C9.67157 0.9375 9 1.60907 9 2.4375V13.4375C9 14.2659 9.67157 14.9375 10.5 14.9375H13C13.8284 14.9375 14.5 14.2659 14.5 13.4375V2.4375C14.5 1.60907 13.8284 0.9375 13 0.9375H10.5Z" fill="white"/>
</svg>
