<svg width="17" height="16" viewBox="0 0 17 16" fill="none" xmlns="http://www.w3.org/2000/svg">
<g clip-path="url(#clip0_653_13535)">
<path fill-rule="evenodd" clip-rule="evenodd" d="M2.43873 0.0871277C1.92351 0.0871277 1.42939 0.291797 1.06508 0.656113C0.700764 1.02043 0.496094 1.51454 0.496094 2.02976V3.658C0.496094 4.1314 0.87985 4.51515 1.35324 4.51515C1.82663 4.51515 2.21038 4.1314 2.21038 3.658V2.02976C2.21038 1.9692 2.23443 1.91112 2.27727 1.8683C2.32009 1.82547 2.37817 1.80141 2.43873 1.80141H4.06697C4.54036 1.80141 4.92411 1.41766 4.92411 0.944271C4.92411 0.470883 4.54036 0.0871277 4.06697 0.0871277H2.43873ZM4.97563 3.13782C4.18665 3.13782 3.54706 3.77742 3.54706 4.56639V6.93549C3.54706 7.72447 4.18665 8.36406 4.97563 8.36406H7.34473C8.1337 8.36406 8.7733 7.72447 8.7733 6.93549V4.56639C8.7733 3.77741 8.1337 3.13782 7.34473 3.13782H4.97563ZM5.26135 6.64978V4.85211H7.05902V6.64978H5.26135ZM11.8939 0.944357C11.8939 0.470971 12.2776 0.0872149 12.751 0.0872149H14.3792C14.8944 0.0872149 15.3886 0.291885 15.7529 0.6562C16.1172 1.02052 16.3219 1.51463 16.3219 2.02986V3.6581C16.3219 4.13148 15.9381 4.51524 15.4647 4.51524C14.9913 4.51524 14.6076 4.13148 14.6076 3.6581V2.02986C14.6076 1.96928 14.5836 1.9112 14.5407 1.86838C14.4979 1.82556 14.4398 1.8015 14.3792 1.8015H12.751C12.2776 1.8015 11.8939 1.41774 11.8939 0.944357ZM2.21044 12.3421C2.21044 11.8687 1.8267 11.4849 1.35331 11.4849C0.87992 11.4849 0.496164 11.8687 0.496164 12.3421V13.9703C0.496164 14.4855 0.700834 14.9797 1.06515 15.344C1.42946 15.7082 1.92358 15.9129 2.4388 15.9129H4.06704C4.54043 15.9129 4.92418 15.5291 4.92418 15.0558C4.92418 14.5824 4.54043 14.1986 4.06704 14.1986H2.4388C2.37824 14.1986 2.32016 14.1746 2.27734 14.1318C2.23451 14.0889 2.21044 14.0309 2.21044 13.9703V12.3421ZM15.4647 11.4849C15.9381 11.4849 16.3219 11.8687 16.3219 12.3421V13.9703C16.3219 14.4855 16.1172 14.9797 15.7529 15.344C15.3886 15.7082 14.8944 15.9129 14.3792 15.9129H12.751C12.2776 15.9129 11.8939 15.5291 11.8939 15.0558C11.8939 14.5824 12.2776 14.1986 12.751 14.1986H14.3792C14.4398 14.1986 14.4979 14.1746 14.5407 14.1318C14.5836 14.0889 14.6076 14.0309 14.6076 13.9703V12.3421C14.6076 11.8687 14.9913 11.4849 15.4647 11.4849ZM5.2614 10.503C5.2614 10.0296 4.87764 9.64585 4.40426 9.64585C3.93088 9.64585 3.54712 10.0296 3.54712 10.503V12.0048C3.54712 12.4782 3.93088 12.8619 4.40426 12.8619H5.90608C6.37946 12.8619 6.76322 12.4782 6.76322 12.0048C6.76322 11.5314 6.37946 11.1477 5.90608 11.1477H5.2614V10.503ZM6.93003 10.503C6.93003 10.0296 7.31379 9.64585 7.78718 9.64585H8.40891C8.88231 9.64585 9.26606 10.0296 9.26606 10.503V12.0048C9.26606 12.4782 8.88231 12.8619 8.40891 12.8619C7.93553 12.8619 7.55177 12.4782 7.55177 12.0048V11.3274C7.19284 11.2251 6.93003 10.8948 6.93003 10.503ZM11.7691 3.99506C11.7691 3.52166 11.3854 3.13791 10.912 3.13791C10.4386 3.13791 10.0548 3.52166 10.0548 3.99506V5.49687C10.0548 5.97026 10.4386 6.35402 10.912 6.35402H12.4137C12.8872 6.35402 13.2709 5.97026 13.2709 5.49687C13.2709 5.02348 12.8872 4.63973 12.4137 4.63973H11.7691V3.99506ZM10.0548 7.99998C10.0548 7.5266 10.4386 7.14284 10.912 7.14284H12.4137C12.8872 7.14284 13.2709 7.5266 13.2709 7.99998V8.73028C13.2709 9.20366 12.8872 9.58741 12.4137 9.58741C11.9834 9.58741 11.6273 9.27036 11.566 8.85712H10.912C10.4386 8.85712 10.0548 8.47338 10.0548 7.99998ZM11.7691 10.503C11.7691 10.0296 11.3854 9.64585 10.912 9.64585C10.4386 9.64585 10.0548 10.0296 10.0548 10.503V12.0048C10.0548 12.4782 10.4386 12.8619 10.912 12.8619H12.4137C12.8872 12.8619 13.2709 12.4782 13.2709 12.0048C13.2709 11.5314 12.8872 11.1477 12.4137 11.1477H11.7691V10.503Z" fill="white"/>
</g>
<defs>
<clipPath id="clip0_653_13535">
<rect width="16" height="16" fill="white" transform="translate(0.40918)"/>
</clipPath>
</defs>
</svg>
