<svg width="13" height="22" viewBox="0 0 13 22" fill="none" xmlns="http://www.w3.org/2000/svg">
<path d="M6.69964 16.0684C8.08299 16.0684 9.20696 17.1924 9.20696 18.5757C9.20696 19.9591 8.08299 21.0254 6.69964 21.0254C5.31628 21.0254 4.16349 19.9591 4.16349 18.5757C4.16349 17.1924 5.31628 16.0684 6.69964 16.0684ZM4.59578 7.50891L0.96448 7.76829C0.705101 4.22345 2.52075 0.851522 6.32498 0.592143C9.72572 0.419224 12.5789 2.92655 12.5789 6.38494C12.5789 9.32456 11.282 10.7079 10.0716 12.0048C9.29342 12.7829 8.60175 13.5611 8.60175 15.0309H4.94162C4.94162 12.1777 6.15206 10.8808 7.39131 9.49748C8.16945 8.71935 8.94759 7.85475 8.94759 6.38494C8.94759 5.00158 7.91007 4.22345 6.58436 4.30991C4.85516 4.39637 4.50933 6.12556 4.59578 7.50891Z" fill="#E5770A"/>
</svg>
