<svg width="28" height="28" viewBox="0 0 28 28" fill="none" xmlns="http://www.w3.org/2000/svg">
<path d="M23.4496 8.8978L25.1296 3.9378C25.2296 3.6533 25.1538 3.32008 24.9406 3.10686C24.7274 2.89362 24.3942 2.8178 24.1096 2.9178L19.1497 4.5978C19.0272 4.6409 18.8963 4.6543 18.7676 4.63692C18.639 4.61952 18.5163 4.57184 18.4097 4.4978L14.2097 1.35779C13.9712 1.21982 13.6649 1.2165 13.4235 1.34926C13.1821 1.48202 13.0208 1.74253 13.0097 2.0178V7.2578C13.0059 7.38622 12.9734 7.51216 12.9146 7.62638C12.8557 7.74058 12.772 7.84016 12.6697 7.9178L8.38966 10.9378C8.14412 11.1091 8.01096 11.4206 8.0568 11.7164C8.10264 12.0123 8.3238 12.2688 8.60966 12.3578L13.6097 13.9178C13.7333 13.9534 13.8458 14.0198 13.9367 14.1107C14.0277 14.2017 14.0941 14.3142 14.1297 14.4378L15.6897 19.4378C15.7786 19.7237 16.036 19.945 16.3318 19.9909C16.6277 20.0366 16.9384 19.9033 17.1097 19.6578L20.0296 15.4578C20.1072 15.3554 20.2068 15.2717 20.321 15.2129C20.4352 15.1541 20.5612 15.1216 20.6896 15.1178H25.9296C26.2302 15.1254 26.5232 14.9519 26.6608 14.6847C26.7986 14.4175 26.7702 14.0782 26.5896 13.8378L23.4496 9.6378C23.3916 9.52308 23.3614 9.39634 23.3614 9.2678C23.3614 9.13924 23.3916 9.0125 23.4496 8.8978Z" fill="#FF1D58"/>
<path fill-rule="evenodd" clip-rule="evenodd" d="M14.2597 2.9559L17.6612 5.49894C17.6729 5.50764 17.6847 5.51616 17.6966 5.52446C17.9658 5.7114 18.2755 5.83176 18.6003 5.87566C18.922 5.91914 19.2494 5.88632 19.5561 5.7799L23.6564 4.39108L22.2878 8.432C22.1716 8.69494 22.1114 8.97958 22.1114 9.2678C22.1114 9.5923 22.1878 9.91224 22.3342 10.2018C22.3668 10.2665 22.4052 10.3282 22.4486 10.3863L25.0514 13.8678H20.6896L20.653 13.8683C20.3378 13.8776 20.0288 13.9573 19.7487 14.1017C19.4684 14.246 19.2241 14.4514 19.0337 14.7025C19.0233 14.7162 19.0132 14.7301 19.0034 14.7442L16.6092 18.188L15.3261 14.0755C15.2309 13.7551 15.0572 13.4633 14.8207 13.2268C14.5842 12.9903 14.2924 12.8166 13.972 12.7214L9.85186 11.4359L13.3904 8.93914C13.402 8.9309 13.4136 8.92246 13.425 8.91382C13.6761 8.72336 13.8814 8.47904 14.0258 8.19882C14.1702 7.9186 14.2499 7.6096 14.2592 7.29452L14.2597 7.2578V2.9559ZM14.4964 19.8101C14.5031 19.8314 14.5103 19.8525 14.518 19.8732C14.7651 20.5826 15.3952 21.1106 16.1405 21.2262C16.9079 21.345 17.6914 21.01 18.1357 20.3732C18.1444 20.3606 18.1528 20.3482 18.161 20.3354L20.9194 16.3678H25.9178C26.69 16.3798 27.4176 15.9449 27.772 15.2575C28.1292 14.5647 28.0576 13.712 27.5902 13.0884L24.672 9.18526L26.3118 4.3439C26.567 3.60786 26.3756 2.77406 25.8246 2.22296C25.2734 1.67186 24.4396 1.48055 23.7036 1.7356L18.9543 3.34422L14.9582 0.35665C14.919 0.327344 14.8781 0.300366 14.8357 0.275856C14.2184 -0.0813493 13.446 -0.0897313 12.8211 0.25399C12.1962 0.597712 11.7896 1.25446 11.7607 1.96711C11.76 1.98399 11.7597 2.0009 11.7597 2.0178V7.03004L7.67108 9.915C7.0364 10.3597 6.70288 11.1418 6.82156 11.9078C6.94042 12.6749 7.49634 13.3201 8.2374 13.5511L11.0854 14.4396L0.51256 25.0126C-0.170856 25.696 -0.170853 26.804 0.512566 27.4874C1.19599 28.1708 2.30402 28.1708 2.98744 27.4874L13.5852 16.8895L14.4964 19.8101Z" fill="#121212"/>
</svg>
