<svg width="15" height="14" viewBox="0 0 15 14" fill="none" xmlns="http://www.w3.org/2000/svg">
<g clip-path="url(#clip0_730_25416)">
<path fill-rule="evenodd" clip-rule="evenodd" d="M7.29699 10.2633L4.48669 7.45301C4.79566 6.93561 5.1035 6.40063 5.40915 5.86944C6.42536 4.10339 7.41746 2.37925 8.34687 1.48246C10.8708 -1.04151 14.328 0.421965 14.328 0.421965C14.328 0.421965 15.7915 3.87916 13.2675 6.40312C12.3781 7.32489 10.6811 8.30213 8.92857 9.31136C8.38255 9.62578 7.83104 9.94338 7.29699 10.2633ZM9.43756 3.73075C9.43756 2.8572 10.1457 2.14905 11.0193 2.14905C11.8928 2.14905 12.601 2.8572 12.601 3.73075C12.601 4.6043 11.8928 5.31246 11.0193 5.31246C10.1457 5.31246 9.43756 4.6043 9.43756 3.73075ZM5.34666 3.49889C3.92878 3.12158 2.59833 3.82022 1.41784 4.90303C1.1804 5.12084 1.22999 5.50181 1.50599 5.66808L3.41123 6.81582L3.41343 6.81211C3.68827 6.35188 3.99548 5.81876 4.30674 5.27864C4.66215 4.66188 5.02296 4.03577 5.34666 3.49889ZM7.9342 11.3387L9.08195 13.2439C9.24822 13.5199 9.6292 13.5695 9.847 13.3321C10.9302 12.1512 11.6289 10.8203 11.2508 9.40186C10.7294 9.71606 10.1812 10.0324 9.63814 10.3452L9.55528 10.3929C9.00674 10.7088 8.46389 11.0214 7.93934 11.3356L7.9342 11.3387ZM3.37213 9.3429C3.64067 9.33816 3.90741 9.38756 4.15645 9.48815C4.40548 9.58874 4.63171 9.73846 4.82162 9.92838C5.01154 10.1183 5.16126 10.3445 5.26185 10.5936C5.36244 10.8426 5.41184 11.1093 5.4071 11.3779C5.40236 11.6464 5.34358 11.9112 5.23427 12.1566C5.12552 12.4007 4.96897 12.6205 4.77387 12.803C4.5521 13.0154 4.20508 13.1815 3.88336 13.3093C3.54033 13.4457 3.14891 13.5675 2.78346 13.6672C2.41679 13.7673 2.06658 13.8478 1.80211 13.9003C1.67077 13.9263 1.55492 13.9466 1.46612 13.9587C1.42349 13.9645 1.37641 13.9699 1.33295 13.9718C1.31325 13.9727 1.27765 13.9738 1.23693 13.9699C1.21741 13.968 1.17962 13.9635 1.13469 13.9501C1.10502 13.9412 0.989798 13.9061 0.893803 13.7941C0.811582 13.6982 0.789198 13.5981 0.783805 13.574C0.775161 13.5354 0.772518 13.5027 0.771518 13.4853C0.769444 13.4493 0.771012 13.4174 0.77224 13.3984C0.774902 13.3573 0.780575 13.312 0.786746 13.2696C0.79952 13.1817 0.820273 13.0668 0.846857 12.9358C0.900328 12.6723 0.98151 12.3237 1.08209 11.9586C1.18232 11.5947 1.3044 11.2051 1.44087 10.8635C1.56896 10.5429 1.73503 10.1974 1.94702 9.97612C2.12956 9.78103 2.34935 9.62448 2.59342 9.51573C2.83875 9.40642 3.10359 9.34764 3.37213 9.3429Z" fill="#FF8C42"/>
</g>
<defs>
<clipPath id="clip0_730_25416">
<rect width="14" height="14" fill="white" transform="translate(0.75)"/>
</clipPath>
</defs>
</svg>
