<svg width="8" height="8" viewBox="0 0 8 8" fill="none" xmlns="http://www.w3.org/2000/svg">
<g clip-path="url(#clip0_719_21877)">
<path fill-rule="evenodd" clip-rule="evenodd" d="M6.75465 0.0558824C6.91939 -0.004261 7.09779 -0.0163728 7.26922 0.0210161C7.44231 0.0587795 7.60093 0.145453 7.72619 0.270731C7.85145 0.39601 7.93814 0.554627 7.97591 0.727726C8.01328 0.899109 8.00116 1.07755 7.94105 1.24226L5.89876 7.36341C5.84899 7.51392 5.76128 7.64958 5.64419 7.75655C5.52745 7.86324 5.38533 7.93815 5.2314 7.97426C5.07745 8.01181 4.91637 8.00861 4.76399 7.96506C4.61174 7.92158 4.47343 7.83929 4.36259 7.72626L3.26696 6.63563L2.11607 7.23078C2.02633 7.27718 1.91875 7.27272 1.83313 7.21906C1.74752 7.16546 1.6966 7.07055 1.69922 6.96958L1.7464 5.15029L5.77208 2.22605C5.93168 2.11013 5.96711 1.88679 5.85116 1.72721C5.73522 1.56762 5.5119 1.53222 5.35231 1.64814L1.25832 4.62198L0.269921 3.63357C0.162879 3.52661 0.0839732 3.39463 0.0404893 3.24968C-0.00268521 3.10577 -0.00969968 2.95345 0.0200428 2.8062C0.0498237 2.64534 0.121733 2.49522 0.228465 2.37118C0.335928 2.24629 0.474793 2.15237 0.630707 2.09911L0.632633 2.09846L6.75465 0.0558824Z" fill="#C84E00"/>
</g>
<defs>
<clipPath id="clip0_719_21877">
<rect width="8" height="8" fill="white"/>
</clipPath>
</defs>
</svg>
