<svg width="23" height="24" viewBox="0 0 23 24" fill="none" xmlns="http://www.w3.org/2000/svg">
<path fill-rule="evenodd" clip-rule="evenodd" d="M9.02631 1.18154L8.23246 3.23078L5.50015 4.78154L3.32169 4.44922C2.95896 4.39999 2.58977 4.45971 2.26104 4.62079C1.93233 4.78186 1.6589 5.03702 1.47554 5.35385L0.737076 6.64615C0.547848 6.96802 0.460665 7.33971 0.487032 7.71216C0.5134 8.08461 0.65208 8.4403 0.884769 8.73232L2.26939 10.4492V13.5508L0.921691 15.2677C0.689002 15.5597 0.550324 15.9154 0.523956 16.2878C0.497587 16.6603 0.58477 17.032 0.773998 17.3539L1.51246 18.6461C1.69582 18.9629 1.96925 19.2182 2.29797 19.3791C2.62668 19.5403 2.99587 19.5999 3.35861 19.5507L5.53707 19.2185L8.23246 20.7693L9.02631 22.8185C9.16018 23.1655 9.39573 23.4639 9.70209 23.6746C10.0084 23.8855 10.3713 23.999 10.7432 24H12.294C12.6659 23.999 13.0288 23.8855 13.3351 23.6746C13.6415 23.4639 13.877 23.1655 14.0109 22.8185L14.8048 20.7693L17.5002 19.2185L19.6787 19.5507C20.0414 19.5999 20.4105 19.5403 20.7393 19.3791C21.0679 19.2182 21.3414 18.9629 21.5248 18.6461L22.2633 17.3539C22.4524 17.032 22.5397 16.6603 22.5133 16.2878C22.4869 15.9154 22.3482 15.5597 22.1155 15.2677L20.7309 13.5508V10.4492L22.0787 8.73232C22.3113 8.4403 22.45 8.08461 22.4764 7.71216C22.5028 7.33971 22.4155 6.96802 22.2263 6.64615L21.4878 5.35385C21.3045 5.03702 21.0311 4.78186 20.7023 4.62079C20.3737 4.45971 20.0044 4.39999 19.6417 4.44922L17.4633 4.78154L14.7679 3.23078L13.974 1.18154C13.8401 0.834579 13.6046 0.536143 13.2982 0.325315C12.9919 0.114487 12.629 0.00109857 12.2571 0H10.7432C10.3713 0.00109857 10.0084 0.114487 9.70209 0.325315C9.39573 0.536143 9.16018 0.834579 9.02631 1.18154ZM11.5002 15.8571C13.6304 15.8571 15.3573 14.1302 15.3573 12C15.3573 9.86976 13.6304 8.14286 11.5002 8.14286C9.36993 8.14286 7.64302 9.86976 7.64302 12C7.64302 14.1302 9.36993 15.8571 11.5002 15.8571Z" fill="#C84E00"/>
</svg>
