<svg width="24" height="24" viewBox="0 0 24 24" fill="none" xmlns="http://www.w3.org/2000/svg">
<g clip-path="url(#clip0_262_17496)">
<path fill-rule="evenodd" clip-rule="evenodd" d="M9.52607 1.18154L8.73222 3.23078L5.9999 4.78154L3.82144 4.44922C3.45872 4.39999 3.08953 4.45971 2.7608 4.62079C2.43208 4.78186 2.15865 5.03702 1.97529 5.35385L1.23683 6.64615C1.0476 6.96802 0.960421 7.33971 0.986788 7.71216C1.01316 8.08461 1.15184 8.4403 1.38452 8.73232L2.76914 10.4492V13.5508L1.42145 15.2677C1.18876 15.5597 1.05008 15.9154 1.02371 16.2878C0.997343 16.6603 1.08453 17.032 1.27375 17.3539L2.01222 18.6461C2.19558 18.9629 2.46901 19.2182 2.79772 19.3791C3.12644 19.5403 3.49562 19.5999 3.85837 19.5507L6.03683 19.2185L8.73222 20.7693L9.52607 22.8185C9.65994 23.1655 9.89548 23.4639 10.2018 23.6746C10.5082 23.8855 10.8711 23.999 11.243 24H12.7938C13.1657 23.999 13.5285 23.8855 13.8349 23.6746C14.1413 23.4639 14.3768 23.1655 14.5107 22.8185L15.3045 20.7693L17.9999 19.2185L20.1784 19.5507C20.5412 19.5999 20.9103 19.5403 21.2391 19.3791C21.5677 19.2182 21.8411 18.9629 22.0246 18.6461L22.7631 17.3539C22.9522 17.032 23.0394 16.6603 23.013 16.2878C22.9866 15.9154 22.8479 15.5597 22.6153 15.2677L21.2307 13.5508V10.4492L22.5784 8.73232C22.8111 8.4403 22.9497 8.08461 22.9762 7.71216C23.0026 7.33971 22.9153 6.96802 22.726 6.64615L21.9875 5.35385C21.8043 5.03702 21.5308 4.78186 21.202 4.62079C20.8734 4.45971 20.5042 4.39999 20.1414 4.44922L17.9631 4.78154L15.2676 3.23078L14.4738 1.18154C14.3399 0.834579 14.1043 0.536143 13.798 0.325315C13.4916 0.114487 13.1287 0.00109857 12.7568 0H11.243C10.8711 0.00109857 10.5082 0.114487 10.2018 0.325315C9.89548 0.536143 9.65994 0.834579 9.52607 1.18154ZM11.9999 15.8571C14.1302 15.8571 15.8571 14.1302 15.8571 12C15.8571 9.86976 14.1302 8.14286 11.9999 8.14286C9.86968 8.14286 8.14278 9.86976 8.14278 12C8.14278 14.1302 9.86968 15.8571 11.9999 15.8571Z" fill="black"/>
</g>
<defs>
<clipPath id="clip0_262_17496">
<rect width="24" height="24" fill="white"/>
</clipPath>
</defs>
</svg>
