<svg width="22" height="22" viewBox="0 0 22 22" fill="none" xmlns="http://www.w3.org/2000/svg">
<path fill-rule="evenodd" clip-rule="evenodd" d="M3.14286 4.71429C3.14286 2.11066 5.25352 0 7.85714 0C10.4608 0 12.5714 2.11066 12.5714 4.71429C12.5714 7.31791 10.4608 9.42857 7.85714 9.42857C5.25352 9.42857 3.14286 7.31791 3.14286 4.71429ZM0 18.8571C0 14.5178 3.51777 11 7.85714 11C9.0308 11 10.1444 11.2573 11.1445 11.7186C9.32558 12.5903 8.00214 14.3534 7.76628 16.4766L7.49246 18.9415C7.43553 19.4541 7.46625 19.9545 7.57209 20.4286H0.785714C0.351777 20.4286 0 20.0767 0 19.6429V18.8571ZM9.71823 16.6934C9.94576 14.6452 11.6768 13.0952 13.7376 13.0952H17.691C19.7518 13.0952 21.4828 14.6452 21.7104 16.6934L21.9841 19.1584C22.1524 20.674 20.9665 22 19.4412 22C18.34 22 17.3622 21.2951 17.0142 20.2502L16.8751 19.833C16.8198 19.6672 16.6648 19.5555 16.4904 19.5555H14.9382C14.7638 19.5555 14.6087 19.6672 14.5535 19.833L14.4144 20.2502C14.0663 21.2951 13.0886 22 11.9873 22C10.4621 22 9.27608 20.674 9.44443 19.1584L9.71823 16.6934Z" fill="url(#paint0_linear_800_33648)"/>
<defs>
<linearGradient id="paint0_linear_800_33648" x1="21.9262" y1="22.0047" x2="-4.12656" y2="7.34954" gradientUnits="userSpaceOnUse">
<stop stop-color="#A5E22B"/>
<stop offset="1" stop-color="#83BD10"/>
</linearGradient>
</defs>
</svg>
