<svg width="15" height="14" viewBox="0 0 15 14" fill="none" xmlns="http://www.w3.org/2000/svg">
<g clip-path="url(#clip0_262_21671)">
<path fill-rule="evenodd" clip-rule="evenodd" d="M11.7501 10.2351C12.8315 9.14996 13.5 7.65305 13.5 6C13.5 2.68629 10.8137 0 7.5 0C4.18629 0 1.5 2.68629 1.5 6C1.5 7.65305 2.16849 9.14996 3.24988 10.2351V13.0001C3.24988 13.5524 3.69759 14.0001 4.24988 14.0001C4.80216 14.0001 5.24988 13.5524 5.24988 13.0001V12.084H6.5V13.0001C6.5 13.5524 6.94772 14.0001 7.5 14.0001C8.05228 14.0001 8.5 13.5524 8.5 13.0001V12.084H9.75012V13.0001C9.75012 13.5524 10.1978 14.0001 10.7501 14.0001C11.3024 14.0001 11.7501 13.5524 11.7501 13.0001V10.2351ZM5.24988 8.58398C5.94023 8.58398 6.49988 8.02434 6.49988 7.33398C6.49988 6.64363 5.94023 6.08398 5.24988 6.08398C4.55952 6.08398 3.99988 6.64363 3.99988 7.33398C3.99988 8.02434 4.55952 8.58398 5.24988 8.58398ZM11.0001 7.33398C11.0001 8.02434 10.4405 8.58398 9.75012 8.58398C9.05977 8.58398 8.50012 8.02434 8.50012 7.33398C8.50012 6.64363 9.05977 6.08398 9.75012 6.08398C10.4405 6.08398 11.0001 6.64363 11.0001 7.33398Z" fill="#32CD32"/>
</g>
<defs>
<clipPath id="clip0_262_21671">
<rect width="14" height="14" fill="white" transform="translate(0.5)"/>
</clipPath>
</defs>
</svg>
