<svg width="53" height="54" viewBox="0 0 53 54" fill="none" xmlns="http://www.w3.org/2000/svg">
<path d="M6.80623 1.5C4.13686 1.5 1.9729 3.66396 1.9729 6.33333V47.6667C1.9729 50.336 4.13685 52.5 6.80623 52.5H46.1936C48.863 52.5 51.027 50.336 51.027 47.6667V6.33333C51.027 3.66396 48.863 1.5 46.1936 1.5H6.80623Z" stroke="#E5770A" stroke-width="3"/>
<path fill-rule="evenodd" clip-rule="evenodd" d="M23.208 16.2979C21.5959 16.2979 20.2891 17.6047 20.2891 19.2168V34.7843C20.2891 36.3964 21.5959 37.7033 23.208 37.7033H30.0188C31.6309 37.7033 32.9377 36.3964 32.9377 34.7843V19.2168C32.9377 17.6047 31.6309 16.2979 30.0188 16.2979H23.208ZM25.3161 34.1357C24.8683 34.1357 24.5053 34.4987 24.5053 34.9465C24.5053 35.3943 24.8683 35.7573 25.3161 35.7573H27.9107C28.3585 35.7573 28.7215 35.3943 28.7215 34.9465C28.7215 34.4987 28.3585 34.1357 27.9107 34.1357H25.3161Z" fill="#C84E00"/>
<path d="M37.4011 20.7578L36 22.1589L37.4011 23.56L36 24.9611L37.4011 26.3621L36 27.7632L37.4011 29.1643L36 30.5654L37.4011 31.9665L36 33.3675" stroke="#C84E00" stroke-width="1.24541" stroke-linecap="round" stroke-linejoin="round"/>
<path d="M17.4011 20.7783L16 22.1794L17.4011 23.5805L16 24.9816L17.4011 26.3826L16 27.7837L17.4011 29.1848L16 30.5859L17.4011 31.987L16 33.3881" stroke="#C84E00" stroke-width="1.24541" stroke-linecap="round" stroke-linejoin="round"/>
</svg>
