<svg width="17" height="16" viewBox="0 0 17 16" fill="none" xmlns="http://www.w3.org/2000/svg">
<path d="M9.71884 0.906091C9.82644 0.972481 9.86622 1.00448 9.90634 1.12484C9.90926 1.20403 9.91041 1.28234 9.9101 1.36153C9.91014 1.39801 9.91014 1.39801 9.91018 1.43524C9.91023 1.517 9.91006 1.59877 9.90989 1.68053C9.90988 1.73904 9.90988 1.79755 9.9099 1.85606C9.90991 2.01514 9.90973 2.17422 9.90951 2.3333C9.90931 2.49946 9.90929 2.66562 9.90926 2.83178C9.90916 3.14654 9.9089 3.4613 9.90859 3.77605C9.90824 4.13435 9.90807 4.49264 9.90791 4.85093C9.90759 5.58807 9.90704 6.3252 9.90634 7.06234C9.93489 7.06199 9.96345 7.06165 9.99287 7.06129C10.2623 7.05816 10.5317 7.05578 10.8012 7.05424C10.9397 7.05343 11.0782 7.05233 11.2167 7.05055C11.3504 7.04885 11.4841 7.04792 11.6179 7.04752C11.6688 7.04723 11.7198 7.04667 11.7708 7.04582C11.8423 7.04468 11.9137 7.04453 11.9853 7.0446C12.0259 7.04426 12.0666 7.04391 12.1085 7.04355C12.2545 7.06841 12.3044 7.11261 12.4063 7.21859C12.4402 7.40269 12.3743 7.52925 12.2894 7.68685C12.2709 7.72248 12.2709 7.72248 12.252 7.75882C12.2114 7.83678 12.1702 7.91439 12.129 7.99203C12.1003 8.04692 12.0716 8.10184 12.043 8.15678C11.9843 8.26923 11.9255 8.38158 11.8664 8.49383C11.7548 8.70624 11.6453 8.91968 11.5358 9.1332C11.4901 9.22225 11.4443 9.31123 11.3986 9.40022C11.2148 9.75737 11.0318 10.1149 10.8487 10.4724C10.66 10.8412 10.4709 11.2097 10.2813 11.578C10.0791 11.971 9.87732 12.3642 9.67587 12.7577C9.64835 12.8114 9.62084 12.8651 9.59332 12.9188C9.48166 13.1369 9.37001 13.3549 9.25842 13.573C9.1883 13.7101 9.11815 13.8471 9.04798 13.9841C9.02184 14.0351 8.99572 14.0862 8.96961 14.1372C8.90981 14.2542 8.84985 14.371 8.78946 14.4876C8.73999 14.5832 8.69167 14.6793 8.64383 14.7757C8.6192 14.8244 8.59456 14.8731 8.56991 14.9217C8.55892 14.9444 8.54793 14.967 8.53661 14.9903C8.48759 15.086 8.45227 15.1476 8.35815 15.2022C8.24962 15.2253 8.16985 15.2146 8.06259 15.1873C7.99432 15.1382 7.99432 15.1382 7.93759 15.0623C7.92557 14.9775 7.92121 14.9054 7.92256 14.8207C7.92245 14.7962 7.92234 14.7718 7.92223 14.7465C7.92203 14.6644 7.92272 14.5823 7.9234 14.5002C7.92343 14.4414 7.92341 14.3826 7.92334 14.3238C7.92331 14.164 7.92404 14.0042 7.92492 13.8444C7.9257 13.6775 7.92577 13.5105 7.92592 13.3435C7.92631 13.0273 7.92733 12.7112 7.92859 12.395C7.92998 12.035 7.93067 11.675 7.9313 11.3151C7.93261 10.5746 7.93481 9.83409 7.93759 9.09359C7.89476 9.0939 7.89476 9.0939 7.85106 9.09422C7.58163 9.0961 7.3122 9.09753 7.04277 9.09845C6.90426 9.09894 6.76575 9.0996 6.62724 9.10066C6.49351 9.10168 6.35978 9.10224 6.22605 9.10249C6.17509 9.10266 6.12413 9.103 6.07318 9.1035C6.00167 9.10419 5.93017 9.10428 5.85866 9.10423C5.79766 9.10455 5.79766 9.10455 5.73543 9.10487C5.58945 9.08995 5.48579 9.04338 5.37704 8.94515C5.32705 8.8393 5.35086 8.7698 5.37509 8.65609C5.41176 8.56786 5.45746 8.48555 5.504 8.40218C5.53265 8.34931 5.56125 8.29641 5.58981 8.24349C5.61331 8.2002 5.61331 8.2002 5.63728 8.15603C5.72087 8.00037 5.80166 7.84327 5.88259 7.6862C5.92264 7.60849 5.96278 7.53083 6.00291 7.45316C6.03365 7.39367 6.06437 7.33418 6.09509 7.27468C6.1942 7.08276 6.29343 6.89091 6.39267 6.69906C6.40722 6.67091 6.40722 6.67091 6.42207 6.6422C6.5805 6.33588 6.7392 6.0297 6.89799 5.72357C7.08971 5.35391 7.28098 4.98402 7.47224 4.61413C7.5798 4.40613 7.68739 4.19814 7.79497 3.99016C7.82424 3.93357 7.85351 3.87698 7.88278 3.8204C7.89244 3.80172 7.9021 3.78304 7.91206 3.7638C7.97097 3.64989 8.02988 3.53598 8.08878 3.42207C8.25247 3.10549 8.41617 2.78891 8.58017 2.4725C8.5983 2.43752 8.61643 2.40254 8.63511 2.36649C8.67109 2.29713 8.70712 2.22778 8.74319 2.15846C8.82827 1.99481 8.91294 1.83099 8.99623 1.66643C9.03595 1.58803 9.07589 1.50974 9.11584 1.43146C9.14396 1.37613 9.17177 1.32064 9.19956 1.26515C9.22518 1.21503 9.22518 1.21503 9.25131 1.1639C9.2662 1.13442 9.28109 1.10493 9.29643 1.07455C9.40121 0.909444 9.52815 0.871282 9.71884 0.906091Z" fill="#FF8C42"/>
</svg>
