<svg width="15" height="14" viewBox="0 0 15 14" fill="none" xmlns="http://www.w3.org/2000/svg">
<path fill-rule="evenodd" clip-rule="evenodd" d="M12.2349 0.378744C12.1913 0.203986 12.0569 0.0662386 11.8833 0.0181543C11.7097 -0.0299301 11.5237 0.019083 11.3963 0.146458L9.3963 2.14646C9.27211 2.27065 9.22218 2.45089 9.26478 2.62128L9.62559 4.06454C9.62076 4.06912 9.61598 4.07377 9.61125 4.07851L7.21909 6.47066C6.9262 6.76356 6.9262 7.23843 7.21909 7.53132C7.51199 7.82422 7.98686 7.82422 8.27975 7.53132L10.6719 5.13917C10.6767 5.13432 10.6815 5.12943 10.6862 5.12449L12.1286 5.48508C12.299 5.52768 12.4792 5.47776 12.6034 5.35357L14.6034 3.35356C14.7308 3.22619 14.7798 3.04014 14.7317 2.86654C14.6836 2.69295 14.5459 2.55863 14.3711 2.51494L12.6622 2.0877L12.2349 0.378744ZM8.06703 0.758091C8.09574 1.17131 7.78403 1.52956 7.37081 1.55827C6.32617 1.63084 5.32432 2.00176 4.48428 2.62696C3.64424 3.25216 3.00133 4.10537 2.63192 5.0852C2.26251 6.06504 2.18214 7.13032 2.40035 8.1545C2.61856 9.17867 3.12618 10.1187 3.8629 10.8628C4.59963 11.607 5.53448 12.124 6.55641 12.3525C7.57834 12.581 8.64437 12.5114 9.62787 12.1518C10.6114 11.7923 11.471 11.158 12.1046 10.3243C12.7382 9.49055 13.1192 8.49247 13.2023 7.44862C13.2351 7.03571 13.5965 6.72762 14.0094 6.76047C14.4223 6.79333 14.7304 7.1547 14.6975 7.56761C14.5917 8.89774 14.1063 10.1695 13.2989 11.2319C12.4915 12.2942 11.3961 13.1025 10.1429 13.5606C8.88968 14.0188 7.53129 14.1075 6.22911 13.8164C4.92693 13.5252 3.73569 12.8664 2.79693 11.9182C1.85816 10.9699 1.21133 9.77211 0.933276 8.46707C0.655224 7.16203 0.75764 5.8046 1.22835 4.55605C1.69907 3.3075 2.5183 2.22031 3.58871 1.42365C4.65913 0.626994 5.93573 0.15435 7.26686 0.0618737C7.68007 0.0331665 8.03832 0.344874 8.06703 0.758091ZM7.39529 4.05796C7.54629 4.44367 7.35602 4.87876 6.97031 5.02976C6.64209 5.15825 6.35108 5.36653 6.12359 5.63576C5.8961 5.90499 5.7393 6.22668 5.66739 6.57174C5.59547 6.91679 5.61069 7.27434 5.71169 7.61203C5.81268 7.94972 5.99626 8.25692 6.24581 8.50583C6.49537 8.75475 6.80303 8.93753 7.14099 9.03765C7.47894 9.13778 7.83652 9.15208 8.18139 9.07928C8.52626 9.00647 8.84755 8.84885 9.11619 8.62067C9.38483 8.39248 9.59236 8.10094 9.72001 7.77239C9.87001 7.38629 10.3046 7.1949 10.6907 7.34491C11.0768 7.49492 11.2682 7.92951 11.1182 8.31561C10.9003 8.87655 10.5459 9.37433 10.0873 9.76392C9.62859 10.1535 9.08004 10.4226 8.49123 10.5469C7.90241 10.6712 7.2919 10.6468 6.71489 10.4759C6.13789 10.3049 5.6126 9.99284 5.18652 9.56786C4.76044 9.14287 4.44701 8.61838 4.27458 8.04182C4.10215 7.46526 4.07615 6.85481 4.19894 6.26568C4.32173 5.67654 4.58944 5.12731 4.97784 4.66764C5.36625 4.20797 5.86311 3.85236 6.42349 3.63298C6.8092 3.48198 7.24429 3.67225 7.39529 4.05796Z" fill="#FF8C42"/>
</svg>
