<svg width="21" height="20" viewBox="0 0 21 20" fill="none" xmlns="http://www.w3.org/2000/svg">
<path fill-rule="evenodd" clip-rule="evenodd" d="M0.625 1.07143C0.625 0.479695 1.10469 0 1.69643 0H5.81731C5.84411 0 5.8707 0.000984685 5.89701 0.00291986H15.3554C15.381 0.00106605 15.4069 0.000129768 15.4327 0.000129768H19.5536C20.1453 0.000129768 20.625 0.479825 20.625 1.07156V5.19297C20.625 7.84906 18.6307 10.0393 16.0577 10.348C15.4186 12.304 13.7524 13.7955 11.6964 14.1856V17.8573H15.4327C16.0244 17.8573 16.5041 18.337 16.5041 18.9287C16.5041 19.5204 16.0244 20.0001 15.4327 20.0001H10.6625C10.6501 20.0006 10.6376 20.0008 10.625 20.0008C10.6124 20.0008 10.5999 20.0006 10.5875 20.0001H5.8173C5.22557 20.0001 4.74587 19.5204 4.74587 18.9287C4.74587 18.337 5.22557 17.8573 5.8173 17.8573H9.55357V14.1856C7.49756 13.7955 5.83144 12.304 5.19224 10.348C2.61934 10.0393 0.625 7.84906 0.625 5.19297V1.07143ZM4.74589 8.04889V2.14286H2.76786V5.19297C2.76786 6.5001 3.59027 7.61514 4.74589 8.04889ZM16.5041 2.14299V8.04889C17.6597 7.61514 18.4821 6.5001 18.4821 5.19297V2.14299H16.5041Z" fill="#C84E00"/>
</svg>
