<svg width="16" height="16" viewBox="0 0 16 16" fill="none" xmlns="http://www.w3.org/2000/svg">
<path fill-rule="evenodd" clip-rule="evenodd" d="M11.6717 2.90002C10.1932 1.83703 8.26799 1.42279 6.37367 1.93038C3.17888 2.78641 1.22142 5.95693 1.82263 9.15406C1.9101 9.61929 1.60389 10.0673 1.13865 10.1548C0.673417 10.2423 0.22535 9.93609 0.137866 9.47087C-0.627716 5.3996 1.86278 1.36431 5.92998 0.274502C8.43965 -0.397962 10.9893 0.201411 12.8962 1.67538L13.596 0.975699C13.9559 0.615719 14.5714 0.870672 14.5714 1.37976V4.00021C14.5714 4.31581 14.3157 4.57163 14 4.57163H11.3796C10.8705 4.57163 10.6155 3.95613 10.9755 3.59615L11.6717 2.90002ZM14.8618 5.84557C15.327 5.75808 15.7751 6.0643 15.8625 6.52953C16.6281 10.6008 14.1377 14.6361 10.0705 15.7259C7.56071 16.3984 5.01091 15.799 3.10398 14.3249L2.40414 15.0247C2.04415 15.3847 1.42864 15.1297 1.42864 14.6207V12.0002C1.42864 11.6846 1.68448 11.4288 2.00007 11.4288H4.62053C5.12961 11.4288 5.38456 12.0442 5.02458 12.4042L4.32859 13.1002C5.80707 14.1633 7.73237 14.5776 9.62677 14.0701C12.8216 13.2139 14.779 10.0435 14.1778 6.84634C14.0903 6.38111 14.3966 5.93305 14.8618 5.84557ZM9.71374 6.28646C9.71374 7.23285 8.94654 8.00005 8.00015 8.00005C7.05375 8.00005 6.28655 7.23285 6.28655 6.28646C6.28655 5.34006 7.05375 4.57286 8.00015 4.57286C8.94654 4.57286 9.71374 5.34006 9.71374 6.28646ZM7.99991 8.60021C6.79453 8.60021 5.73442 9.22224 5.12309 10.1628C4.90817 10.4935 5.18013 10.8859 5.57449 10.8859H10.4253C10.8197 10.8859 11.0916 10.4935 10.8767 10.1628C10.2654 9.22224 9.2053 8.60021 7.99991 8.60021Z" fill="#E5770A"/>
</svg>
