<svg width="21" height="17" viewBox="0 0 21 17" fill="none" xmlns="http://www.w3.org/2000/svg">
<path fill-rule="evenodd" clip-rule="evenodd" d="M0.875 2.7848C0.875 1.62072 1.88785 0.785645 2.99701 0.785645H14.9627C16.0719 0.785645 17.0847 1.62072 17.0847 2.7848V10.4941C17.0847 11.6582 16.0719 12.4932 14.9627 12.4932H2.99701C1.88785 12.4932 0.875 11.6582 0.875 10.4941V2.7848ZM6.79463 6.63949C6.79463 5.43266 7.77296 4.45434 8.97977 4.45434C10.1866 4.45434 11.1649 5.43266 11.1649 6.63949C11.1649 7.8463 10.1866 8.82463 8.97977 8.82463C7.77296 8.82463 6.79463 7.8463 6.79463 6.63949ZM2.79841 6.49993C2.79841 5.9082 3.27811 5.4285 3.86984 5.4285C4.4614 5.4285 4.94134 5.90803 4.94134 6.49993C4.94134 7.09183 4.4614 7.57136 3.86984 7.57136C3.27811 7.57136 2.79841 7.09166 2.79841 6.49993ZM14.0896 5.4285C13.4979 5.4285 13.0182 5.9082 13.0182 6.49993C13.0182 7.09166 13.4979 7.57136 14.0896 7.57136C14.6812 7.57136 15.1611 7.09183 15.1611 6.49993C15.1611 5.90803 14.6812 5.4285 14.0896 5.4285ZM20.8261 6.63944C20.8261 6.0477 20.3464 5.56802 19.7547 5.56802C19.163 5.56802 18.6833 6.0477 18.6833 6.63944V13.7824C18.6833 13.8771 18.6457 13.9678 18.5787 14.0348C18.5117 14.1018 18.4209 14.1395 18.3261 14.1395H5.46899C4.87726 14.1395 4.39756 14.6191 4.39756 15.2109C4.39756 15.8026 4.87726 16.2824 5.46899 16.2824H18.3261C18.9891 16.2824 19.625 16.0189 20.0939 15.5501C20.5627 15.0812 20.8261 14.4454 20.8261 13.7824V6.63944Z" fill="#C84E00"/>
</svg>
