<svg width="20" height="20" viewBox="0 0 20 20" fill="none" xmlns="http://www.w3.org/2000/svg">
<g clip-path="url(#clip0_262_21788)">
<path d="M16.7498 6.35536L17.9498 2.81251C18.0212 2.60929 17.9671 2.37128 17.8148 2.21898C17.6625 2.06666 17.4245 2.01251 17.2212 2.08393L13.6784 3.28393C13.5909 3.31472 13.4974 3.32429 13.4055 3.31188C13.3136 3.29945 13.226 3.26539 13.1498 3.2125L10.1498 0.969642C9.97951 0.871092 9.76068 0.868718 9.58827 0.963548C9.41584 1.05838 9.30067 1.24446 9.29268 1.44108V5.18393C9.28998 5.27566 9.26677 5.36562 9.22476 5.44721C9.18273 5.52878 9.12296 5.59991 9.04983 5.65536L5.99268 7.8125C5.8173 7.93485 5.72218 8.15733 5.75493 8.36865C5.78767 8.57998 5.94564 8.76325 6.14983 8.82679L9.72126 9.94108C9.80954 9.96649 9.88993 10.0139 9.95488 10.0789C10.0199 10.1438 10.0673 10.2242 10.0927 10.3125L11.207 13.8839C11.2705 14.0881 11.4543 14.2462 11.6657 14.279C11.877 14.3116 12.0989 14.2165 12.2213 14.0411L14.3069 11.0411C14.3624 10.9679 14.4335 10.9082 14.5151 10.8661C14.5966 10.8241 14.6866 10.8009 14.7784 10.7982H18.5212C18.7359 10.8036 18.9452 10.6797 19.0435 10.4888C19.1419 10.298 19.1216 10.0557 18.9926 9.88393L16.7498 6.88393C16.7084 6.80199 16.6868 6.71146 16.6868 6.61965C16.6868 6.52782 16.7084 6.43729 16.7498 6.35536Z" fill="#FF1D58"/>
<path fill-rule="evenodd" clip-rule="evenodd" d="M10.1855 2.11143L12.6152 3.92788C12.6235 3.9341 12.6319 3.94018 12.6404 3.94611C12.8327 4.07964 13.0539 4.16561 13.2859 4.19697C13.5157 4.22803 13.7496 4.20458 13.9686 4.12857L16.8974 3.13656L15.9199 6.02293C15.8369 6.21074 15.7939 6.41406 15.7939 6.61993C15.7939 6.85171 15.8484 7.08024 15.953 7.28708C15.9763 7.33328 16.0037 7.37737 16.0347 7.41883L17.8939 9.90564H14.7783L14.7521 9.90603C14.527 9.91264 14.3063 9.96958 14.1062 10.0727C13.906 10.1758 13.7315 10.3225 13.5955 10.5019C13.5881 10.5117 13.5808 10.5216 13.5738 10.5317L11.8637 12.9915L10.9472 10.054C10.8792 9.82511 10.7551 9.61674 10.5862 9.4478C10.4173 9.27887 10.2089 9.15481 9.98 9.08678L7.03704 8.16858L9.56454 6.38517C9.57289 6.37928 9.58113 6.37326 9.58926 6.36708C9.76867 6.23104 9.91531 6.05653 10.0184 5.85637C10.1215 5.65621 10.1785 5.4355 10.1851 5.21044L10.1855 5.18421V2.11143ZM10.3546 14.1501C10.3593 14.1654 10.3645 14.1804 10.37 14.1952C10.5465 14.7019 10.9966 15.0791 11.5289 15.1616C12.0771 15.2465 12.6367 15.0072 12.954 14.5524C12.9603 14.5434 12.9663 14.5345 12.9721 14.5254L14.9424 11.6914H18.5127C19.0643 11.6999 19.584 11.3893 19.8371 10.8983C20.0923 10.4035 20.0411 9.79434 19.7073 9.3489L17.6229 6.56097L18.7941 3.10286C18.9764 2.57711 18.8397 1.98154 18.4461 1.5879C18.0524 1.19426 17.4569 1.0576 16.9311 1.23978L13.5388 2.3888L10.6844 0.25482C10.6564 0.233887 10.6272 0.214617 10.5969 0.19711C10.156 -0.0580369 9.60431 -0.0640241 9.15793 0.181491C8.71154 0.427007 8.42117 0.89611 8.40051 1.40515C8.40003 1.41721 8.39979 1.42928 8.39979 1.44136V5.02153L5.47934 7.08221C5.026 7.39987 4.78777 7.95847 4.87254 8.50563C4.95744 9.05357 5.35453 9.51441 5.88386 9.6794L7.91813 10.3141L0.366114 17.8662C-0.12204 18.3544 -0.122038 19.1458 0.366119 19.6339C0.854276 20.1221 1.64573 20.1221 2.13389 19.6339L9.70373 12.064L10.3546 14.1501Z" fill="white"/>
</g>
<defs>
<clipPath id="clip0_262_21788">
<rect width="20" height="20" fill="white"/>
</clipPath>
</defs>
</svg>
