<svg width="15" height="14" viewBox="0 0 15 14" fill="none" xmlns="http://www.w3.org/2000/svg">
<path fill-rule="evenodd" clip-rule="evenodd" d="M6.71757 0.226033C6.95312 0.0820473 7.22384 0.00585938 7.49991 0.00585938C7.77598 0.00585938 8.04669 0.0820473 8.28224 0.226033C8.51779 0.370019 8.70903 0.576216 8.83491 0.821919L8.83714 0.826281L14.3364 11.8249C14.4512 12.053 14.5063 12.3075 14.4956 12.5627C14.4849 12.8182 14.4091 13.0667 14.2753 13.2846C14.1415 13.5025 13.9543 13.6826 13.7313 13.8078C13.5084 13.933 13.2571 13.9991 13.0014 13.9999H12.9999H1.99991H1.99839C1.7427 13.9991 1.49144 13.933 1.26849 13.8078C1.04554 13.6826 0.858294 13.5025 0.724535 13.2846C0.590777 13.0667 0.514946 12.8182 0.504244 12.5627C0.493555 12.3075 0.548198 12.0538 0.662987 11.8257L6.16269 0.826292L6.16488 0.821908C6.29075 0.576205 6.48203 0.370019 6.71757 0.226033ZM7.49988 4.125C7.91409 4.125 8.24988 4.46079 8.24988 4.875V8.125C8.24988 8.53921 7.91409 8.875 7.49988 8.875C7.08567 8.875 6.74988 8.53921 6.74988 8.125V4.875C6.74988 4.46079 7.08567 4.125 7.49988 4.125ZM8.49988 10.875C8.49988 11.4273 8.05216 11.875 7.49988 11.875C6.9476 11.875 6.49988 11.4273 6.49988 10.875C6.49988 10.3227 6.9476 9.875 7.49988 9.875C8.05216 9.875 8.49988 10.3227 8.49988 10.875Z" fill="#FFAA00"/>
</svg>
