<svg width="100" height="100" viewBox="0 0 100 100" fill="none" xmlns="http://www.w3.org/2000/svg">
<path d="M13.0007 80.8999C13.0007 80.8999 11.7607 86.7199 11.9007 86.7199C12.0407 86.7199 14.1807 86.6399 14.1807 86.6399V84.4999L15.2207 86.8399L22.3207 86.4199C22.3207 86.4199 22.5407 85.6399 20.9607 84.7999C19.3807 83.9599 16.8007 82.7399 16.8007 82.7399L18.5607 79.4799L13.0007 80.8999Z" fill="#FF8C42"/>
<path d="M30.9805 72.4599C30.9805 72.4599 25.9405 75.5999 26.0205 75.6999C26.1005 75.7999 27.6405 77.2799 27.6405 77.2799L29.1805 75.7999L28.2005 78.1799L33.4205 82.9999C33.4205 82.9999 34.1405 82.6399 33.6405 80.8799C33.1405 79.1199 32.2405 76.4599 32.2405 76.4599L35.8205 75.4599L30.9805 72.4599Z" fill="#FF8C42"/>
<path d="M17.3798 55.5599L11.2598 82.0599L19.2798 82.5799C19.2798 82.5799 22.9398 69.8599 23.8198 62.3599C23.8198 62.3599 31.1398 61.9999 32.3598 64.9799C33.5798 67.9599 28.6998 73.1799 28.6998 73.1799L34.4598 78.0599C34.4598 78.0599 39.8598 69.8799 39.8598 63.9399C39.8598 60.4599 37.4198 57.4799 27.4798 54.3399L17.3798 55.5599Z" fill="#FF8C42"/>
<path d="M16.8802 55.6199L16.2802 58.2799L14.8202 64.5999L13.0602 72.2599L11.5402 78.8799L11.0402 81.0599C10.9602 81.3999 10.8602 81.7399 10.8002 82.0799C10.8002 82.0999 10.8002 82.1199 10.7802 82.1199C10.7402 82.2799 10.9602 82.3199 11.0802 82.3399L18.1202 82.7999L19.1002 82.8599C19.3202 82.8799 19.7002 82.7599 19.7602 82.5199C20.2202 80.9399 20.6402 79.3599 21.0602 77.7599C21.9202 74.4599 22.7202 71.1399 23.4002 67.7999C23.7602 65.9799 24.1002 64.1399 24.3202 62.2799L23.6602 62.6199C24.4202 62.5999 25.1802 62.5999 25.9402 62.6599C27.3002 62.7599 28.7602 62.9399 30.0402 63.4799C30.6402 63.6999 31.1602 64.0799 31.5802 64.5599C31.9602 65.0399 32.1402 65.6599 32.0802 66.2799C32.0002 67.8199 31.1402 69.2999 30.3002 70.5599C29.8802 71.1999 29.4202 71.8199 28.9202 72.3999C28.8402 72.4999 28.7402 72.5999 28.6602 72.6999L28.5402 72.8199L28.5002 72.8799C28.4602 72.9399 28.5602 72.8199 28.5002 72.8799C28.4402 72.9399 28.3802 73.0199 28.3202 73.0799C28.2602 73.1399 28.1602 73.2799 28.2602 73.3599L33.3002 77.6399L34.0202 78.2399C34.2402 78.4399 34.7602 78.2999 34.9202 78.0599C36.3402 75.8999 37.5402 73.5999 38.5402 71.2199C39.3202 69.3599 39.9802 67.4199 40.2602 65.4199C40.4202 64.1999 40.4602 62.9199 40.0402 61.7399C39.6202 60.6599 38.9402 59.6999 38.0402 58.9399C36.7602 57.8199 35.2402 56.9799 33.7002 56.2799C32.6402 55.7799 31.5402 55.3599 30.4402 54.9599C29.7802 54.7199 29.1202 54.4999 28.4602 54.2799C28.1602 54.1799 27.8602 54.0399 27.5202 54.0799C26.6402 54.1799 25.7802 54.2799 24.9002 54.3999L17.6002 55.2799L17.4602 55.2999C17.2602 55.2999 16.9202 55.4199 16.8802 55.6199C16.8402 55.8399 17.1602 55.8599 17.3002 55.8399L23.5802 55.0799L26.9602 54.6799C27.0802 54.6599 27.2002 54.6399 27.3402 54.6399H27.4002C27.4602 54.6399 27.3202 54.5599 27.2802 54.6599C27.2802 54.6399 27.7802 54.8199 27.8402 54.8399C29.0402 55.2399 30.2402 55.6599 31.4202 56.1399C33.1402 56.8399 34.8402 57.6399 36.3402 58.7399C37.3002 59.4399 38.2202 60.3199 38.7602 61.3799C39.2202 62.2999 39.4202 63.2999 39.3802 64.3199C39.3202 66.2799 38.7602 68.2199 38.0802 70.0399C37.0402 72.7999 35.7002 75.4599 34.0802 77.9399L34.0002 78.0799L34.9002 77.8999L29.8602 73.6199L29.1402 73.0199L29.0802 73.2999C29.7202 72.5999 30.3402 71.8599 30.8802 71.0799C31.8002 69.7799 32.7402 68.2799 32.9802 66.6599C33.1202 65.9799 33.0202 65.2599 32.7202 64.6399C32.3802 64.0799 31.9002 63.6399 31.3202 63.3399C30.0002 62.5999 28.4202 62.3599 26.9202 62.2199C25.9402 62.1199 24.9602 62.0999 23.9802 62.1199C23.8002 62.1199 23.3402 62.1999 23.3202 62.4599C22.9202 65.8599 22.1802 69.2399 21.4002 72.5799C20.7402 75.4199 20.0202 78.2399 19.2402 81.0399C19.0802 81.5999 18.9402 82.1399 18.7802 82.6999L19.4402 82.3599L12.4002 81.8999L11.4202 81.8399L11.7202 82.0399L12.3402 79.3799L13.8002 73.0599L15.5602 65.3999L17.0802 58.7799L17.5802 56.5999C17.6602 56.2599 17.7602 55.9199 17.8202 55.5799C17.8202 55.5599 17.8202 55.5399 17.8202 55.5399C17.9402 55.1199 16.9602 55.2799 16.8802 55.6199Z" fill="#FF8C42"/>
<path d="M17.4803 45.5599C17.4803 45.5599 14.4403 56.0599 15.4603 56.6599C16.4803 57.2599 25.8603 57.1199 27.8603 55.9999C29.8603 54.8799 29.1803 46.7599 29.1803 46.7599C29.1803 46.7599 36.3803 37.6399 36.5203 30.4199C36.5203 30.4199 31.6603 28.3999 30.9403 28.7999C30.2203 29.1999 26.9203 41.6999 24.7803 42.1399C22.6403 42.5799 15.4603 26.5199 15.4603 26.5199C15.4603 26.5199 10.6603 26.6599 10.8203 27.4199C10.9803 28.1799 15.6203 40.9999 17.4803 45.5599Z" fill="white"/>
<path d="M17.0007 45.5799C16.4607 47.4599 15.9607 49.3599 15.5207 51.2399C15.2007 52.4999 14.9607 53.7999 14.8007 55.0999C14.7407 55.5199 14.7207 55.9399 14.7807 56.3599C14.8007 56.6399 15.0007 56.8799 15.2807 56.9399C15.7007 57.0599 16.1207 57.1199 16.5407 57.1399C17.1807 57.1999 17.8207 57.2199 18.4807 57.2399C20.1007 57.2599 21.7007 57.2199 23.3207 57.0799C24.7007 56.9599 26.1407 56.8399 27.4807 56.3999C27.9607 56.2799 28.3807 56.0199 28.7007 55.6599C29.0207 55.1999 29.2607 54.6799 29.3607 54.1399C29.7207 52.7599 29.7607 51.2799 29.7807 49.8599C29.7807 48.8399 29.7607 47.8199 29.6807 46.7799L29.6607 46.6199L29.6207 46.7599C30.5007 45.6199 31.3207 44.4399 32.0807 43.2199C33.6607 40.7199 35.1007 38.0599 36.0407 35.2399C36.6007 33.6599 36.9207 31.9799 36.9807 30.2999C36.9607 30.2599 36.9407 30.2199 36.9007 30.1999C35.6607 29.6599 34.3807 29.1999 33.0807 28.8199C32.4207 28.6199 31.6407 28.3799 30.9607 28.5199C30.4807 28.6199 30.3007 28.9399 30.1207 29.3599C29.5607 30.5999 29.1607 31.8999 28.7207 33.1799C28.1207 34.8999 27.5207 36.5999 26.8007 38.2799C26.5007 39.0199 26.1607 39.7399 25.7807 40.4399C25.5407 40.9399 25.2207 41.3799 24.8407 41.7799C24.9007 41.7199 24.8007 41.8199 24.7807 41.8399C24.7607 41.8599 24.6407 41.9399 24.7007 41.8999C24.7607 41.8599 24.6607 41.9199 24.6407 41.9399C24.6207 41.9599 24.7607 41.8999 24.6807 41.9199C24.6007 41.9399 24.7407 41.8999 24.7207 41.8999C24.6207 41.9199 24.8607 41.8799 24.7607 41.8999C24.7407 41.8999 24.9007 41.8999 24.8207 41.8999C24.7407 41.8999 24.8807 41.9199 24.8607 41.8999C24.8407 41.8799 24.8007 41.8799 24.7807 41.8799C24.7207 41.8599 24.8407 41.9199 24.8007 41.8799L24.7407 41.8599C24.6807 41.8199 24.6007 41.7799 24.5407 41.7399C24.5207 41.7199 24.4207 41.6399 24.4807 41.6999L24.3607 41.5999C24.1807 41.4399 24.0207 41.2799 23.8807 41.0999C22.9807 40.0599 22.2607 38.8599 21.5807 37.6799C20.7007 36.1799 19.9007 34.6399 19.1207 33.0999C18.4007 31.6999 17.7207 30.2999 17.0607 28.8799C16.7007 28.0999 16.3407 27.3399 15.9807 26.5599L15.9407 26.4599C15.8807 26.2999 15.6807 26.2999 15.5407 26.2999C14.1607 26.3399 12.7007 26.3999 11.3607 26.7799C10.9607 26.8799 10.2007 27.1199 10.3607 27.6599C10.4607 28.0399 10.6007 28.4399 10.7407 28.8199C11.3007 30.4399 11.8807 32.0399 12.4607 33.6399C13.2207 35.7399 14.0007 37.8199 14.7807 39.8999C15.4407 41.6999 16.1007 43.4799 16.8207 45.2399L17.0207 45.7199C17.1607 46.0599 18.1207 45.8199 18.0007 45.5399C17.3407 43.9199 16.7207 42.2799 16.1007 40.6599C15.3207 38.6199 14.5607 36.5799 13.8207 34.5199C13.2007 32.7999 12.5807 31.0999 11.9807 29.3799C11.8007 28.8599 11.6207 28.3599 11.4607 27.8399C11.4207 27.7199 11.3807 27.5799 11.3407 27.4599C11.3407 27.4399 11.3407 27.4199 11.3207 27.4199C11.3007 27.3399 11.3207 27.4399 11.3207 27.3799C11.3207 27.3599 11.3407 27.3599 11.3207 27.3599C11.2607 27.3999 11.3607 27.3399 11.3607 27.3399C11.3607 27.3399 11.4207 27.3199 11.4407 27.2999C11.3807 27.3199 11.3807 27.3399 11.4407 27.2999C11.5007 27.2799 11.6007 27.2599 11.6807 27.2199C11.7607 27.1799 11.6007 27.2399 11.7007 27.2199L11.8407 27.1799C11.9407 27.1599 12.0407 27.1399 12.1407 27.1199C12.3407 27.0799 12.5407 27.0599 12.7407 27.0199H12.8007H12.8407L12.9807 26.9999L13.3207 26.9599C13.9807 26.8999 14.6407 26.8599 15.2807 26.8399H15.4007L15.0007 26.6799C15.2407 27.2399 15.5007 27.7799 15.7607 28.3199C16.3807 29.6399 17.0007 30.9599 17.6607 32.2599C18.4407 33.8399 19.2407 35.3799 20.1007 36.9199C20.8207 38.2599 21.6207 39.5599 22.5007 40.7999C22.9807 41.4599 23.7007 42.4999 24.6407 42.4599C25.8207 42.4199 26.4807 41.0799 26.9607 40.1799C27.7207 38.6199 28.4007 37.0199 28.9607 35.3799C29.5407 33.7999 30.0607 32.2199 30.6407 30.6399C30.8007 30.1399 31.0007 29.6599 31.2207 29.1799L31.2807 29.0799L31.3007 29.0399C31.2607 29.0999 31.3207 28.9999 31.3007 29.0399C31.3407 28.9799 31.3607 28.9599 31.3807 28.9199C31.3407 28.9599 31.3007 28.9999 31.2407 29.0199C31.2007 29.0399 31.1807 29.0399 31.1407 29.0599C31.2407 29.0399 31.0207 29.0799 31.1007 29.0599C31.1207 29.0599 31.2207 29.0599 31.1407 29.0599C31.0607 29.0599 31.1607 29.0599 31.1807 29.0599C31.2607 29.0599 31.3407 29.0799 31.4007 29.0799C31.4607 29.0799 31.5007 29.0999 31.5607 29.0999C31.6607 29.1199 31.7407 29.1399 31.8407 29.1599C32.0407 29.1999 32.2407 29.2599 32.4207 29.3199C32.8607 29.4399 33.3007 29.5999 33.7207 29.7399C34.4407 29.9999 35.1207 30.2599 35.8007 30.5399L36.1407 30.6799L36.0607 30.5799C36.0007 33.1799 35.1207 35.7199 34.0607 38.0599C33.0607 40.2199 31.9007 42.2999 30.5607 44.2599C30.1407 44.8999 29.7007 45.5199 29.2607 46.1199C29.1407 46.2799 29.0207 46.4399 28.9007 46.5999C28.8207 46.6799 28.7807 46.7599 28.7607 46.8799C28.7607 46.9999 28.7607 47.1199 28.7807 47.2399C28.8007 47.5199 28.8207 47.7999 28.8207 48.0799C28.8607 48.9599 28.8807 49.8599 28.8407 50.7399C28.8207 51.7399 28.7407 52.7399 28.5607 53.7199C28.4207 54.4199 28.2407 55.2399 27.7607 55.7599C27.7007 55.8199 27.7607 55.7599 27.7207 55.7999C27.6807 55.8399 27.6807 55.8399 27.6607 55.8599C27.5807 55.9399 27.6807 55.8599 27.6407 55.8799L27.5607 55.9199C27.5207 55.9399 27.3407 56.0199 27.4807 55.9599C27.4007 55.9799 27.3407 56.0199 27.2607 56.0399L27.0407 56.1199L26.9207 56.1599L26.8607 56.1799C26.6607 56.2199 26.4607 56.2799 26.2407 56.2999C25.2807 56.4799 24.3207 56.5999 23.3407 56.6599C21.3007 56.8399 19.2607 56.8599 17.2207 56.7199C17.0407 56.6999 16.8607 56.6999 16.7007 56.6799C16.6207 56.6799 16.5607 56.6599 16.4807 56.6599L16.3807 56.6399C16.2807 56.6199 16.4407 56.6599 16.3407 56.6399C16.2407 56.6199 16.1207 56.5999 16.0207 56.5599L15.9607 56.5399C15.9807 56.5399 16.0407 56.5799 15.9807 56.5399L15.9407 56.5199C15.9007 56.4999 15.9807 56.5599 15.9607 56.5399C15.9407 56.5199 15.9207 56.4999 15.9007 56.4599C15.9607 56.5799 16.1007 56.6399 16.2207 56.5799C16.3407 56.5199 16.4007 56.3799 16.3407 56.2599C16.2807 56.1399 16.1407 56.0799 16.0207 56.1399C15.9207 56.1799 15.8607 56.2999 15.8807 56.3999C15.8607 56.2999 15.8407 56.2199 15.8407 56.1199C15.8207 55.8599 15.8207 55.5799 15.8607 55.3199C16.0207 53.5399 16.4607 51.7599 16.9007 50.0199C17.2407 48.6199 17.6207 47.2199 18.0207 45.8199C18.0407 45.7399 18.0607 45.6599 18.0807 45.5999C18.0807 45.1799 17.1007 45.2599 17.0007 45.5799Z" fill="#FF8C42"/>
<path d="M31.36 28.1199C31.36 28.1199 29.68 25.1999 30.54 24.8999C31.4 24.5999 32.2 26.1199 32.2 26.1199C32.2 26.1199 33.18 22.4199 33.86 22.4199C34.54 22.4199 34.32 25.5199 34.32 25.5199C34.32 25.5199 35.3 22.2799 35.96 22.8199C36.62 23.3599 35.8 25.7599 35.8 25.7599C35.8 25.7599 36.72 23.9999 37.16 24.4999C37.6 24.9999 35.82 30.5799 35.82 30.5799C34.2 30.7599 32.58 30.3599 31.24 29.4599C31.26 28.9999 31.3 28.5599 31.36 28.1199Z" fill="white"/>
<path d="M31.8398 27.9799C31.5198 27.4199 31.2398 26.8599 31.0198 26.2599C30.8998 25.9399 30.7398 25.5399 30.7798 25.1799C30.7798 25.1599 30.7798 25.1199 30.7998 25.0999C30.8198 25.0399 30.8198 25.0599 30.8198 25.0599C30.8398 24.9999 30.7798 25.0599 30.8198 25.0399C30.7598 25.0799 30.6798 25.0999 30.6398 25.1599C30.5998 25.1999 30.5798 25.1399 30.6398 25.1799C30.6798 25.1999 30.7198 25.2199 30.7598 25.2199C30.8598 25.2599 30.9598 25.3399 31.0398 25.3999C31.3198 25.6599 31.5598 25.9599 31.7398 26.2799C31.9198 26.5999 32.6198 26.3399 32.6998 26.0399C32.9398 25.0999 33.2398 24.1599 33.6398 23.2799C33.6998 23.1599 33.7598 23.0399 33.8198 22.9399C33.8598 22.8799 33.8798 22.8399 33.9198 22.7799C33.9598 22.7199 34.0198 22.6399 33.9798 22.6999C34.0198 22.6599 34.0398 22.6399 34.0798 22.5999C34.0598 22.6399 33.9798 22.6599 33.8998 22.6999C33.8198 22.7199 33.7398 22.7399 33.6598 22.7199C33.6198 22.7199 33.6198 22.7199 33.6198 22.7199C33.5998 22.7399 33.5798 22.6799 33.5998 22.7199C33.6198 22.7399 33.6398 22.7599 33.6598 22.7799C33.7598 22.9799 33.8198 23.1799 33.8398 23.3999C33.8798 23.6799 33.8998 23.9799 33.8998 24.2599C33.8998 24.7199 33.8998 25.1599 33.8598 25.6199C33.8198 26.0799 34.7398 25.7399 34.8198 25.4599C35.0198 24.7399 35.2998 24.0199 35.6798 23.3599C35.7398 23.2599 35.7998 23.1799 35.8598 23.0999C35.8998 23.0599 35.8398 23.0999 35.8998 23.0399L35.9398 22.9999L35.9598 22.9799C35.9798 22.9599 35.9798 22.9599 35.9598 22.9799C35.9598 22.9799 35.8798 23.0199 35.9198 22.9999C35.7998 23.0399 35.6598 23.0599 35.5398 23.0399C35.5998 23.0399 35.5598 23.0399 35.5798 23.0599C35.5998 23.0799 35.6398 23.1199 35.6598 23.1599C35.8998 23.5599 35.7598 24.2199 35.6598 24.6599C35.5798 25.0599 35.4798 25.4599 35.3398 25.8599C35.2798 26.0399 35.6198 26.0599 35.6998 26.0599C35.9198 26.0599 36.1198 25.9399 36.2598 25.7799C36.3598 25.5999 36.4598 25.4399 36.5598 25.2599C36.6398 25.1199 36.7398 24.9999 36.8398 24.8799C36.8798 24.8199 36.9398 24.7799 36.9998 24.7199C37.0798 24.6399 37.0998 24.6199 37.0398 24.6799C37.0998 24.6399 37.1198 24.6599 37.0598 24.6599L36.7798 24.6999C36.7798 24.6999 36.6598 24.6999 36.7398 24.6999C36.7598 24.6999 36.7598 24.7199 36.7598 24.7399C36.7398 24.6799 36.7398 24.6999 36.7398 24.7199C36.7398 24.7399 36.7598 24.7799 36.7598 24.7999C36.7598 24.8199 36.7798 24.9399 36.7798 24.8799C36.7798 25.0999 36.7598 25.3399 36.7198 25.5599C36.5198 26.9199 36.0998 28.2599 35.6998 29.5999C35.5998 29.9599 35.4798 30.3399 35.3598 30.6999L35.8998 30.3399C35.8598 30.3399 35.8398 30.3599 35.7998 30.3599C35.6998 30.3599 35.9198 30.3599 35.7798 30.3599H35.6198C35.3198 30.3799 34.9998 30.3599 34.6998 30.3399C33.6398 30.2199 32.6198 29.8599 31.7198 29.2799L31.7598 29.3999C31.7598 28.9599 31.7998 28.5199 31.8598 28.0799C31.9198 27.6999 30.9598 27.8999 30.8998 28.2399C30.8398 28.5999 30.8198 28.9399 30.7998 29.2999C30.7998 29.3799 30.7998 29.4599 30.7998 29.5399C30.8198 29.6799 30.8598 29.7199 30.9798 29.7799C31.6598 30.2199 32.4198 30.5399 33.2198 30.7199C34.0598 30.9399 34.9398 30.9799 35.7998 30.8799C35.9998 30.8399 36.2598 30.7399 36.3398 30.5199C36.6798 29.4399 36.9998 28.3399 37.2798 27.2399C37.4798 26.5399 37.6198 25.8399 37.7198 25.1399C37.7598 24.9199 37.7598 24.6999 37.7198 24.4799C37.6398 24.1599 37.2798 24.1199 36.9998 24.1599C36.2198 24.2999 35.7198 25.1399 35.3798 25.7799L36.2998 25.6999C36.4398 25.2999 36.5398 24.8999 36.6198 24.4799C36.7198 23.9599 36.8598 23.2199 36.5198 22.7399C36.1598 22.2399 35.3998 22.5799 35.0598 22.9599C34.7198 23.4199 34.4398 23.9199 34.2598 24.4799C34.0998 24.8599 33.9798 25.2399 33.8398 25.6399L34.7998 25.4799C34.8398 25.0399 34.8398 24.5799 34.8398 24.1199C34.8398 23.7799 34.8198 23.4399 34.7598 23.0799C34.7398 22.8199 34.6598 22.5599 34.4998 22.3599C34.2798 22.0999 33.8598 22.1399 33.5598 22.2799C33.2998 22.4199 33.0998 22.6199 32.9598 22.8599C32.6198 23.4599 32.3398 24.1199 32.1398 24.7799C31.9798 25.2599 31.8398 25.7399 31.6998 26.2199L32.6598 25.9799C32.4798 25.6199 32.2198 25.2799 31.9198 24.9999C31.4198 24.5599 30.6798 24.3999 30.1198 24.8199C29.7398 25.0999 29.7598 25.5399 29.8598 25.9599C29.9998 26.4599 30.1798 26.9399 30.3998 27.3999C30.5398 27.6999 30.6998 27.9999 30.8598 28.2799C31.0798 28.5999 31.9998 28.2399 31.8398 27.9799Z" fill="#FF8C42"/>
<path d="M32.5801 26.5999C32.7801 26.6999 33.0001 26.7799 33.2001 26.8799C33.2801 26.9199 33.3601 26.9599 33.4201 27.0199C33.4601 27.0599 33.5001 27.0799 33.5401 27.1199C33.5601 27.1399 33.5801 27.1599 33.5401 27.1199C33.5601 27.1399 33.5801 27.1599 33.6001 27.1799C33.6001 27.1999 33.6601 27.2599 33.6201 27.1999C33.5801 27.1399 33.6401 27.2199 33.6401 27.2199C33.6801 27.2799 33.6001 27.1599 33.6201 27.1999C33.6401 27.2399 33.6201 27.1999 33.6001 27.1599C33.6201 27.1799 33.6201 27.1999 33.6401 27.2199C33.6801 27.2999 33.6401 27.2199 33.6201 27.1999C33.6401 27.2199 33.6401 27.2399 33.6601 27.2599C33.7001 27.3199 33.6601 27.2799 33.6601 27.2399C33.7001 27.3399 33.7401 27.4199 33.7801 27.5199C33.7401 27.4399 33.8001 27.5599 33.7801 27.5199L33.8001 27.5799C33.8201 27.6199 33.8401 27.6799 33.8601 27.7199C33.9401 27.9399 34.0601 28.1599 34.2201 28.3399C34.2401 28.3599 34.3001 28.4599 34.3401 28.4399C34.3801 28.4199 34.3201 28.2999 34.3201 28.2799C34.1201 27.6999 33.8401 27.1399 33.4801 26.6399C33.3201 26.4199 33.1201 26.2199 32.9001 26.0799C32.6801 25.9399 32.4001 25.8599 32.1601 25.7199C32.1001 25.6999 32.1201 25.7799 32.1201 25.7999C32.1401 25.8999 32.1801 25.9999 32.2401 26.0799C32.3001 26.1999 32.3601 26.2999 32.4401 26.3999C32.4601 26.4999 32.5201 26.5599 32.5801 26.5999Z" fill="#FF8C42"/>
<path d="M15.4005 25.1799C15.4005 25.1799 17.2005 22.3399 16.3605 21.9999C15.5205 21.6599 14.6405 23.1399 14.6405 23.1399C14.6405 23.1399 13.8405 19.3999 13.1605 19.3599C12.4805 19.3199 12.5605 22.4199 12.5605 22.4199C12.5605 22.4199 11.7205 19.1399 11.0405 19.6399C10.3605 20.1399 11.0605 22.5799 11.0605 22.5799C11.0605 22.5799 10.2205 20.7799 9.76052 21.2599C9.30052 21.7399 10.8005 27.3999 10.8005 27.3999C12.4005 27.6399 14.0405 27.3199 15.4405 26.4999C15.4605 26.0599 15.4405 25.6199 15.4005 25.1799Z" fill="white"/>
<path d="M15.6203 25.62C16.0403 24.98 16.4003 24.28 16.6803 23.56C16.8803 23.12 16.8603 22.62 16.6603 22.18C16.5603 21.94 16.4203 21.64 16.1603 21.54C15.9203 21.46 15.6403 21.5 15.4203 21.64C15.0003 21.9 14.6803 22.26 14.4403 22.68L14.9003 23.5C14.6803 22.34 14.3403 21.22 13.8803 20.14C13.7403 19.8 13.5603 19.48 13.3403 19.2C13.2203 19.06 13.0603 18.86 12.8603 18.96C12.6603 19.06 12.6003 19.32 12.5403 19.48C12.4603 19.8 12.4003 20.12 12.3803 20.44C12.3403 20.98 12.3203 21.5 12.3403 22.04L12.8003 22.74C12.5803 21.76 12.2203 20.8 11.7403 19.92C11.6003 19.68 11.2003 18.94 10.8203 19.24C10.4203 19.58 10.5203 20.38 10.5803 20.82C10.6403 21.32 10.7403 21.82 10.8803 22.32L11.2203 22.68C10.9403 22.06 10.5803 21.34 10.0603 20.9C9.90026 20.76 9.62026 20.66 9.50026 20.9C9.44026 21.08 9.42026 21.26 9.46026 21.46C9.50026 22.16 9.62026 22.86 9.76026 23.54C9.92026 24.3 10.1003 25.06 10.2803 25.82C10.3803 26.26 10.5003 26.7 10.6203 27.14C10.6603 27.3 10.7403 27.44 10.8203 27.58C10.8603 27.64 10.9603 27.84 11.0403 27.86C11.8203 28 12.6203 28 13.4003 27.82C14.1803 27.7 14.9203 27.42 15.6003 27C15.7403 26.9 15.7003 26.76 15.7003 26.58C15.7003 26.24 15.6803 25.88 15.6403 25.54C15.6003 25.32 15.5003 25.1 15.3603 24.92C15.3203 24.86 15.1603 24.62 15.1803 24.82C15.2203 25.14 15.2403 25.48 15.2203 25.8C15.2403 25.88 15.2403 25.96 15.2203 26.04C15.1803 26.12 15.0603 26.16 14.9803 26.2C14.3203 26.56 13.6003 26.8 12.8603 26.94C12.1203 27.08 11.3603 27.1 10.6203 26.96L11.0403 27.68C10.7803 26.72 10.5603 25.76 10.3403 24.8C10.2003 24.12 10.0603 23.44 9.96026 22.74C9.92026 22.5 9.78026 21.8 10.0603 21.66C10.3403 21.52 10.5803 21.94 10.6803 22.1L10.7403 22.18L10.7803 22.26C10.7603 22.22 10.7603 22.22 10.7803 22.28C10.8003 22.34 10.9203 22.54 10.8603 22.4C10.9003 22.46 11.0403 22.78 10.9203 22.52C10.9803 22.66 11.0803 22.92 11.2203 23C11.3603 23.08 11.3203 22.98 11.2803 22.88C11.2003 22.56 11.1203 22.26 11.0603 21.94C10.9803 21.44 10.8803 20.84 11.0603 20.36C11.1203 20.22 11.2403 20.04 11.4003 20.06C11.4603 20.06 11.5003 20.08 11.5403 20.12C11.5803 20.16 11.6203 20.18 11.6403 20.24C11.6403 20.26 11.6803 20.3 11.6603 20.28C11.7203 20.38 11.6403 20.24 11.7003 20.34C11.6603 20.26 11.7403 20.4 11.7003 20.34C11.7003 20.36 11.7203 20.38 11.7203 20.4C11.7203 20.42 11.7403 20.46 11.7603 20.48C11.7603 20.48 11.8203 20.62 11.7803 20.54C11.8803 20.76 11.9403 20.98 12.0203 21.2C12.1203 21.52 12.2203 21.84 12.3003 22.16C12.3603 22.36 12.4603 22.54 12.5803 22.7C12.5803 22.72 12.7803 22.96 12.7803 22.86C12.7803 22.48 12.7803 22.12 12.8003 21.74C12.8203 21.2 12.8403 20.56 13.0803 20.06C13.1403 19.94 13.2603 19.78 13.4203 19.82C13.4403 19.84 13.4803 19.84 13.5003 19.86C13.5003 19.86 13.5803 19.94 13.5403 19.9C13.6003 19.98 13.5403 19.88 13.5803 19.96V19.98C13.5403 19.92 13.5403 19.92 13.5803 19.98C13.5803 19.94 13.5403 19.92 13.5803 20C13.5403 19.88 13.6203 20.08 13.6203 20.12C13.6203 20.16 13.6603 20.2 13.6203 20.14C13.6403 20.16 13.6403 20.2 13.6603 20.22C13.7203 20.36 13.7803 20.52 13.8203 20.66C13.9203 20.98 14.0203 21.28 14.1003 21.6C14.2003 22 14.3003 22.4 14.3803 22.8C14.4203 22.98 14.5003 23.16 14.6003 23.32C14.6203 23.34 14.8203 23.66 14.8403 23.6C15.0003 23.32 15.2003 23.06 15.4403 22.84C15.6003 22.66 15.8203 22.54 16.0403 22.46C16.1603 22.42 16.2603 22.4 16.3803 22.4C16.4603 22.4 16.5603 22.48 16.6203 22.48C16.6003 22.48 16.3403 21.88 16.3403 21.92C16.3403 21.94 16.3403 21.94 16.3403 21.96C16.3403 21.98 16.3403 22.02 16.3403 22.04C16.3403 22.12 16.3203 22.22 16.3003 22.3C16.2603 22.5 16.2003 22.7 16.1203 22.9C15.9603 23.32 15.7603 23.72 15.5403 24.1C15.4203 24.32 15.3003 24.54 15.1603 24.74C15.1003 24.86 15.2603 25.12 15.3003 25.22C15.3403 25.24 15.6003 25.68 15.6203 25.62Z" fill="#FF8C42"/>
<path d="M14.1407 22.9999C14.0607 23.0399 14.2007 22.9799 14.1407 22.9999L14.0407 23.0399L13.8607 23.0999C13.7207 23.1599 13.5807 23.2199 13.4407 23.2799C13.2407 23.3799 13.0407 23.5399 12.9007 23.7199C12.6207 24.0799 12.3807 24.4599 12.2207 24.8799C12.0607 25.2199 13.0407 25.2999 13.1807 24.9799C13.2607 24.7799 13.3607 24.5999 13.4607 24.3999C13.5007 24.3199 13.5607 24.2199 13.6207 24.1399C13.6407 24.0999 13.6807 24.0599 13.7207 23.9999C13.7607 23.9399 13.7007 24.0199 13.7207 23.9799L13.7807 23.9199C13.8407 23.8399 13.9007 23.7799 13.9807 23.7199L14.0407 23.6799C13.9807 23.7199 14.0807 23.6599 14.0407 23.6799C14.1007 23.6399 14.1407 23.6199 14.1807 23.5999C14.2007 23.5799 14.2407 23.5599 14.2607 23.5599C14.2207 23.5799 14.2207 23.5799 14.2607 23.5599L14.4207 23.4999C14.5607 23.4399 14.7007 23.3999 14.8407 23.3399C14.9407 23.3199 15.0007 23.2199 14.9807 23.1199C14.9607 23.0399 14.9007 22.9999 14.8407 22.9799C14.6207 22.8799 14.3607 22.8999 14.1407 22.9999Z" fill="#FF8C42"/>
<path d="M27.5604 37.0999C27.5604 37.0999 28.1404 33.1599 24.7404 32.3799C21.3404 31.5999 17.7804 34.8399 18.3604 38.9799C18.9404 43.1199 24.0404 42.6399 24.0404 42.6399L27.5604 37.0999Z" fill="#FF8C42"/>
<path d="M28.0398 37.2399C28.2998 35.4399 27.5998 33.4599 25.9398 32.5999C24.4998 31.8799 22.8198 31.8199 21.3398 32.4799C19.9198 33.1199 18.8198 34.2799 18.2598 35.7399C17.6998 37.1599 17.6398 38.9799 18.3798 40.3399C18.9798 41.4199 20.0398 42.1199 21.1998 42.4999C22.0998 42.7799 23.0198 42.9199 23.9598 42.8999C24.0998 42.8999 24.3998 42.9399 24.5198 42.8399C24.6598 42.6799 24.7598 42.5199 24.8398 42.3399L27.9798 37.3999L28.0398 37.2399C28.1598 37.0599 27.2598 36.6599 27.0998 36.9399L24.0198 41.7999L23.5798 42.4999L23.7598 42.4199C23.6798 42.4199 23.5998 42.4399 23.5398 42.4399H23.3198H23.2598H23.0598C22.9198 42.4399 22.7998 42.4199 22.6798 42.4199L22.4998 42.3999L22.3998 42.3799L22.3398 42.3599C22.1798 42.3399 22.0198 42.2999 21.8798 42.2799C21.8398 42.2799 21.6198 42.2199 21.7198 42.2399C21.6398 42.2199 21.5598 42.1999 21.4798 42.1599C21.3998 42.1199 21.3198 42.0999 21.2398 42.0799C21.0998 42.0399 21.3398 42.1199 21.1998 42.0599L21.0798 42.0199C20.9198 41.9599 20.7798 41.8799 20.6198 41.7999C20.3198 41.6399 20.0598 41.4199 19.8198 41.1599C19.2398 40.4599 18.8998 39.5999 18.8598 38.6999C18.6798 36.4999 19.7598 34.3799 21.6398 33.2199C23.1398 32.3199 25.2998 32.1399 26.4198 33.6599C27.0798 34.5599 27.2998 35.8799 27.1398 36.9799C27.0398 37.2599 27.9998 37.4999 28.0398 37.2399Z" fill="#FF8C42"/>
<path d="M28.1205 40.4599C29.0005 38.7999 26.9205 33.9399 26.9205 33.9399C25.8405 32.7999 21.6805 34.4799 21.6805 34.4799C22.5405 35.6599 22.7805 37.8399 22.7805 37.8399C22.0405 36.7599 20.7805 37.5599 21.0805 38.6799C21.3805 39.7999 22.8005 39.8799 22.8005 39.8799C22.8005 39.8799 22.9205 42.3799 23.1005 42.8199C23.2805 43.2599 25.5605 43.4799 26.4205 41.9599C26.4205 41.9599 27.3605 41.8999 28.1205 40.4599Z" fill="white"/>
<path d="M28.5606 40.3599C28.9806 39.5399 28.7806 38.4599 28.6006 37.5799C28.3806 36.5799 28.1006 35.5999 27.7206 34.6199C27.6206 34.3399 27.5206 34.0799 27.4006 33.7999C27.3006 33.5999 27.1006 33.4399 26.8806 33.3799C25.9606 33.0399 24.8206 33.2999 23.9006 33.5199C23.1606 33.6999 22.4206 33.9399 21.7006 34.2199C21.6206 34.2599 21.1006 34.4999 21.2406 34.6799C21.9006 35.6199 22.2006 36.8599 22.3206 37.9999L23.2206 37.5999C22.8006 37.0199 22.1606 36.8999 21.5006 37.2199C20.9206 37.4999 20.4806 38.0599 20.5806 38.7199C20.7006 39.5999 21.6006 40.1199 22.4406 40.1799L22.3206 40.0599C22.3406 40.9599 22.4206 41.8599 22.5606 42.7399C22.5606 42.8799 22.6206 43.0199 22.7206 43.1399C22.8606 43.2599 23.0406 43.3399 23.2206 43.3599C24.6206 43.6399 26.0606 43.0399 26.8606 41.8399L26.1806 42.2399C27.2406 42.1799 28.1006 41.2199 28.5606 40.3599C28.6606 40.1599 28.3806 40.1599 28.2806 40.1999C28.0406 40.2399 27.8406 40.3799 27.7006 40.5799C27.5806 40.7999 27.4406 41.0199 27.2806 41.2199C27.1606 41.3599 27.0406 41.4599 26.9006 41.5799L26.8206 41.6399C26.8406 41.6199 26.9006 41.5799 26.8206 41.6399C26.8006 41.6599 26.7006 41.6999 26.7806 41.6599C26.8606 41.6199 26.7406 41.6799 26.7406 41.6799C26.7206 41.6799 26.7006 41.6999 26.6806 41.6999C26.8006 41.6599 26.7406 41.6799 26.7006 41.6999C26.5206 41.7399 26.6606 41.7199 26.7006 41.6999C26.5606 41.7199 26.4406 41.7599 26.3206 41.8199C26.0606 41.9599 25.9606 42.1799 25.7806 42.3799C25.7206 42.4399 25.6606 42.4999 25.6006 42.5599C25.6006 42.5599 25.4406 42.6599 25.4806 42.6399C25.3606 42.7199 25.2406 42.7599 25.1006 42.7999C24.6606 42.9199 24.0006 42.9799 23.6006 42.7199C23.5006 42.6399 23.4606 42.4599 23.4406 42.2999C23.4006 41.9999 23.3606 41.6999 23.3406 41.3999C23.3006 40.8599 23.2606 40.3199 23.2406 39.7599C23.2406 39.6999 23.1806 39.6399 23.1206 39.6399C22.5806 39.6199 21.9806 39.3599 21.6806 38.8799C21.5606 38.6799 21.4806 38.4599 21.4806 38.2399C21.4806 38.0399 21.5406 37.8399 21.6606 37.6599C21.7206 37.5599 21.6606 37.6999 21.6206 37.6799C21.6606 37.6799 21.7206 37.6799 21.7606 37.6999C22.0006 37.7599 22.2006 37.9199 22.3406 38.1399C22.5006 38.3599 23.2606 37.9999 23.2406 37.7399C23.1206 36.5799 22.8206 35.2799 22.1406 34.3199L21.6806 34.7799C21.8406 34.7199 22.0006 34.6599 22.1406 34.5999C22.5606 34.4399 22.8206 34.3799 23.2406 34.2599C24.0806 34.0199 25.0606 33.7599 25.9406 33.9599C26.1606 33.9799 26.3806 34.0999 26.5206 34.2799C26.6206 34.4999 26.7006 34.7199 26.7806 34.9399C27.1206 35.8199 27.4006 36.7199 27.6206 37.6399C27.7606 38.1799 27.8406 38.7399 27.8806 39.2999C27.9406 39.7399 27.8606 40.1999 27.7006 40.5999C27.6006 40.7999 27.8606 40.7999 27.9806 40.7599C28.2206 40.6799 28.4206 40.5399 28.5606 40.3599Z" fill="#FF8C42"/>
<path d="M26.3606 38.4599C26.3606 38.4599 29.1406 38.1799 29.2806 36.6799C29.4206 35.1799 27.3206 34.9799 26.1006 36.5199" fill="white"/>
<path d="M26.5803 38.7399C26.8803 38.6999 27.1803 38.6599 27.4603 38.5799C28.0603 38.4599 28.6403 38.1999 29.1203 37.8399C29.6003 37.4399 29.9003 36.8599 29.7203 36.2199C29.5203 35.4799 28.7203 35.1799 28.0203 35.1599C27.0803 35.1399 26.2003 35.6399 25.6203 36.3599C25.4803 36.5399 25.7803 36.7199 25.9203 36.7599C26.1203 36.8199 26.4003 36.8399 26.5603 36.6599C26.7803 36.3799 27.0603 36.1399 27.3603 35.9799C27.4203 35.9399 27.4603 35.9199 27.5203 35.8999C27.6003 35.8599 27.6803 35.8399 27.7603 35.8199L27.8203 35.7999C27.8203 35.7999 27.7603 35.8199 27.8003 35.7999L27.9203 35.7799L28.0203 35.7599H28.0803C28.1403 35.7399 28.0003 35.7599 28.0603 35.7599H28.1603C28.2003 35.7599 28.2803 35.7799 28.2003 35.7599C28.1203 35.7399 28.2203 35.7599 28.2403 35.7599C28.2603 35.7599 28.3403 35.7599 28.3403 35.7799C28.3403 35.7999 28.2203 35.7399 28.2803 35.7599C28.3003 35.7599 28.3003 35.7599 28.3203 35.7799C28.3403 35.7799 28.4003 35.7999 28.4003 35.7999C28.4003 35.7999 28.3003 35.7599 28.3603 35.7799C28.3803 35.7799 28.3803 35.7999 28.4003 35.7999C28.4203 35.7999 28.5003 35.8599 28.4603 35.8199C28.4203 35.7799 28.4803 35.8399 28.5003 35.8399L28.5603 35.8999C28.5803 35.9199 28.5203 35.8599 28.5603 35.9199C28.5803 35.9399 28.6003 35.9599 28.6203 35.9999C28.6403 36.0399 28.6603 36.0399 28.6603 36.0799C28.6403 36.0399 28.6603 36.0799 28.6603 36.0999C28.6803 36.1599 28.7003 36.2199 28.7203 36.2799C28.7403 36.3999 28.7603 36.5199 28.7403 36.6599C28.7403 36.7199 28.7203 36.7799 28.7003 36.8399C28.7003 36.8599 28.6803 36.8999 28.6803 36.9199C28.6803 36.9199 28.6603 36.9599 28.6803 36.9399C28.7003 36.9199 28.6603 36.9599 28.6603 36.9599C28.6003 37.0799 28.5403 37.1799 28.4603 37.2599C28.4403 37.2799 28.4203 37.2999 28.4003 37.3199L28.3803 37.3399C28.3403 37.3799 28.2803 37.4199 28.2403 37.4599C28.1403 37.5399 28.0403 37.5999 27.9203 37.6599L27.8803 37.6799C27.8803 37.6799 27.9403 37.6599 27.9003 37.6799L27.8203 37.7199C27.7603 37.7399 27.7003 37.7799 27.6403 37.7999C27.5203 37.8399 27.4003 37.8999 27.2803 37.9399L27.1203 37.9999L27.0403 38.0199H27.0203C26.7203 38.0999 26.4203 38.1599 26.1203 38.1999C25.9403 38.2199 25.7603 38.3799 25.8803 38.5599C26.0003 38.7399 26.3203 38.7799 26.5403 38.7599L26.5803 38.7399Z" fill="#FF8C42"/>
<path d="M25.8002 35.6999C25.6802 35.7599 25.6402 35.8999 25.7002 35.9999C25.7002 36.0199 25.7202 36.0199 25.7202 36.0399C25.8602 36.2599 26.1202 36.0599 26.0602 35.8599C26.0202 35.7399 25.9202 35.6799 25.8002 35.6999Z" fill="#FF8C42"/>
<path d="M24.1598 36.1599C24.0398 36.2199 23.9998 36.3599 24.0598 36.4599C24.0598 36.4799 24.0798 36.4799 24.0798 36.4999C24.2198 36.6999 24.4798 36.5399 24.4198 36.3199C24.3998 36.1999 24.2998 36.1399 24.1598 36.1599C24.1798 36.1599 24.1798 36.1599 24.1598 36.1599Z" fill="#FF8C42"/>
<path d="M23.4001 38.9199C23.4001 39.0799 23.4401 39.2599 23.5601 39.3799C23.6201 39.4599 23.7001 39.5199 23.7801 39.5599C23.8601 39.5999 23.9601 39.6199 24.0601 39.5999C24.2201 39.5999 24.3801 39.5799 24.5401 39.5399C24.6801 39.4999 24.8201 39.4599 24.9401 39.3799C25.0201 39.3399 25.0801 39.2799 25.1201 39.1999C25.1601 39.1399 25.0801 39.0999 25.0601 39.0999C25.0201 39.0799 24.9801 39.0799 24.9201 39.0799C24.8601 39.0799 24.8001 39.0799 24.7401 39.0799C24.6201 39.0799 24.4801 39.1199 24.3601 39.1599C24.2801 39.1799 24.2001 39.2199 24.1401 39.2799L24.0801 39.3399L24.1201 39.2999C24.0801 39.3399 24.0401 39.3599 24.0001 39.3799L24.0801 39.3399L24.0601 39.3599H24.0401L24.1201 39.3199C24.0801 39.3399 24.0601 39.3399 24.2001 39.2999H24.1801C24.1401 39.3199 24.1801 39.2999 24.3001 39.2799C24.2401 39.2799 24.4601 39.2599 24.4001 39.2599C24.3801 39.2599 24.5601 39.2599 24.5001 39.2599C24.4801 39.2599 24.6201 39.2799 24.5801 39.2599H24.5601L24.6401 39.2799C24.6201 39.2799 24.6001 39.2599 24.5801 39.2599L24.6401 39.2799C24.5601 39.2399 24.5001 39.1799 24.4601 39.0999L24.4801 39.1399C24.4001 39.0199 24.3601 38.8799 24.3801 38.7399C24.3801 38.6799 24.2401 38.6599 24.2201 38.6599C24.1001 38.6399 23.9801 38.6399 23.8601 38.6799C23.7401 38.6999 23.6201 38.7199 23.5201 38.7799C23.4801 38.8199 23.4201 38.8399 23.4001 38.9199Z" fill="#FF8C42"/>
<path d="M41.5 12.3601L42.6 75.8001C42.6 75.8001 44.22 77.7801 45.22 77.5201C46.22 77.2601 44.6 11.4601 44.6 11.4601L41.5 12.3601Z" fill="white"/>
<path d="M41.0201 12.4001L41.0401 14.2401L41.1201 19.2401L41.2401 26.5601L41.4001 35.4001L41.5601 45.0001L41.7201 54.5401L41.8601 63.1601L41.9801 70.1001L42.0601 74.5801L42.0801 75.6201C42.0801 75.6801 42.0801 75.7401 42.0801 75.8201C42.1201 76.2001 42.6201 76.5601 42.8801 76.8001C43.4601 77.3601 44.2601 78.0001 45.1201 77.9001C45.3801 77.8801 45.6201 77.7201 45.7201 77.4601C45.8001 77.1601 45.8601 76.8401 45.8601 76.5001C45.9601 75.1401 45.9801 73.8001 45.9801 72.4401C46.0001 70.2401 46.0001 68.0401 46.0001 65.8401C45.9801 63.0601 45.9601 60.2801 45.9401 57.5001C45.9001 54.3801 45.8601 51.2601 45.8201 48.1201C45.7601 44.9001 45.7201 41.6601 45.6401 38.4401C45.5801 35.3601 45.5201 32.2801 45.4601 29.2201C45.4001 26.5601 45.3401 23.9001 45.2801 21.2401C45.2401 19.2201 45.2001 17.2201 45.1401 15.2001C45.1201 14.0801 45.0801 12.9601 45.0601 11.8401C45.0601 11.7001 45.0601 11.5601 45.0601 11.4001C45.0601 11.1001 44.7201 11.0001 44.4601 11.0801L41.4001 12.0001C41.2001 12.0601 40.9601 12.2601 41.0201 12.5001C41.0801 12.7401 41.4001 12.7801 41.6001 12.7201L44.6801 11.8201L44.0801 11.5001C44.1001 12.1201 44.1201 12.7601 44.1201 13.3801C44.1601 15.0801 44.2001 16.7601 44.2401 18.4601C44.3001 20.9401 44.3601 23.4401 44.4001 25.9201C44.4601 28.9401 44.5201 31.9801 44.5801 35.0001C44.6401 38.2601 44.7001 41.5401 44.7601 44.8001C44.8201 48.0601 44.8601 51.3401 44.9201 54.6401C44.9601 57.6401 44.9801 60.6201 45.0001 63.6201C45.0201 66.0601 45.0201 68.5201 45.0001 70.9601C45.0001 72.6001 44.9801 74.2401 44.9001 75.8801C44.8801 76.3001 44.8601 76.7401 44.8001 77.1601C44.8001 77.2201 44.7801 77.2801 44.7801 77.3401C44.7601 77.4401 44.8201 77.2601 44.7801 77.3201C44.7601 77.3401 44.7801 77.3601 44.7601 77.3801C44.7201 77.4401 44.7201 77.4201 44.8001 77.3201C44.7801 77.3401 44.9401 77.2001 44.9601 77.2001C45.1601 77.1001 45.0801 77.1801 44.9201 77.1201C44.7201 77.0601 44.5401 76.9601 44.3801 76.8401C43.8601 76.4801 43.4001 76.0401 43.0001 75.5601L43.0601 75.7601L43.0401 74.0601L42.9601 69.4401L42.8401 62.6201L42.7001 54.2801L42.5401 45.1601L42.3801 35.9601L42.2401 27.3601L42.1201 20.1201L42.0401 14.9001C42.0201 14.0801 42.0201 13.2601 42.0001 12.4201C42.0001 12.3801 42.0001 12.3601 42.0001 12.3201C41.9801 11.8001 41.0001 11.9401 41.0201 12.4001Z" fill="white"/>
<path d="M12.3204 89.5201L11.6204 17.6801L44.3004 12.6201L45.2204 77.5001L49.1404 76.8201L47.5204 8.70011L8.86035 14.6801L9.16035 91.3001L12.3204 89.5201Z" fill="white"/>
<path d="M12.74 89.8L12.7 85.84L12.6 75.6L12.46 61.62L12.32 46.36L12.18 32.34L12.08 22.04L12.06 19.06V18.24C12.06 18.18 12.02 18 12.06 17.94C12.04 17.96 12.1 17.94 12.16 17.92C12.28 17.88 12.42 17.88 12.56 17.86L14.08 17.62L19.36 16.8L33.96 14.54L44.2 12.96L44.72 12.88L43.9 12.34L43.92 14.08L43.96 18.8L44.06 25.8L44.18 34.32L44.32 43.64L44.46 53.06L44.58 61.84L44.68 69.28L44.76 74.6C44.78 75.42 44.7 76.3 44.8 77.12C44.8 77.16 44.8 77.2 44.8 77.22C44.8 77.38 45.48 77.78 45.62 77.76L49.54 77.06H49.56L49.52 75.24L49.4 70.26L49.22 62.96L49 54L48.78 44.24L48.54 34.34L48.32 25.1L48.14 17.3L48 11.72C47.98 10.84 48.02 9.93999 47.94 9.05999C47.94 9.01999 47.94 8.97999 47.94 8.93999C47.94 8.77999 47.26 8.37999 47.12 8.39999L43.26 8.99999L34 10.42L22.86 12.14L13.22 13.62L10.04 14.12L9.05996 14.28C8.87996 14.28 8.69996 14.32 8.53996 14.36C8.51996 14.36 8.49996 14.36 8.47996 14.36H8.45996V16.4L8.47996 21.98L8.51996 30.24L8.55996 40.32L8.59996 51.3L8.63996 62.44L8.67996 72.78L8.71996 81.56L8.73996 87.86C8.73996 88.86 8.67996 89.86 8.73996 90.84C8.73996 90.88 8.73996 90.92 8.73996 90.96C8.73996 91.1 9.45996 91.56 9.57996 91.48L12.74 89.8C12.78 89.78 12.38 89.5 12.36 89.48C12.28 89.44 12 89.22 11.9 89.28L8.73996 91.06L9.57996 91.58V90.4L9.55996 87.08L9.53996 81.98L9.51996 75.52L9.49996 68.04L9.45996 59.9L9.41996 51.4L9.39996 43.04L9.35996 35.14L9.33996 28.06L9.31996 22.16L9.29996 17.78V15.34C9.29996 15.26 9.25996 15.02 9.29996 14.96C9.29996 14.96 9.29996 14.98 9.35996 14.94C9.47996 14.92 9.59996 14.9 9.71996 14.88L13.6 14.28L20.32 13.24L28.44 11.98L36.58 10.72L43.36 9.67999L47.38 9.05999L47.92 8.97999L47.1 8.43999L47.14 10.48L47.26 15.98L47.46 24.04L47.68 33.72L47.92 44.2L48.16 54.52L48.38 63.76L48.56 71.1L48.66 75.58C48.7 75.88 48.7 76.18 48.68 76.48C48.66 76.6 48.7 76.54 48.5 76.58L46.3 76.96L44.78 77.22L45.6 77.76L45.58 76.02L45.52 71.3L45.42 64.3L45.3 55.78L45.16 46.44L45.02 37.02L44.9 28.24L44.8 20.8L44.72 15.46C44.7 14.64 44.78 13.76 44.68 12.94C44.68 12.9 44.68 12.86 44.68 12.84C44.68 12.68 44 12.28 43.86 12.3L40.6 12.8L32.82 14L23.4 15.52L15.26 16.78L12.56 17.2L11.74 17.32C11.58 17.32 11.44 17.34 11.3 17.38C11.28 17.38 11.26 17.38 11.24 17.38H11.2L11.22 19.3L11.26 24.54L11.34 32.24L11.44 41.68L11.54 52.02L11.64 62.46L11.74 72.2L11.82 80.4L11.88 86.32C11.88 87.24 11.84 88.2 11.9 89.12C11.9 89.16 11.9 89.2 11.9 89.24C11.9 89.36 12.2 89.52 12.28 89.56C12.42 89.66 12.58 89.74 12.74 89.8Z" fill="white"/>
<path d="M76.2201 12.1801L44.3 12.6001L45.2201 77.5001C45.2201 77.5001 75.12 81.2401 75.3 79.9601C75.48 78.6801 76.2201 12.1801 76.2201 12.1801Z" fill="white"/>
<path d="M75.9995 11.7401L72.8395 11.8001L65.2195 11.9001L55.9995 12.0201L48.0195 12.1201L45.3995 12.1601C44.9795 12.1401 44.5595 12.1401 44.1595 12.1801H44.0995C44.0395 12.1801 44.0195 12.2201 44.0195 12.2801L44.0395 14.0201L44.0995 18.7601L44.1995 25.7401L44.3195 34.2401L44.4595 43.5801L44.5995 53.0201L44.7195 61.7801L44.8195 69.2001L44.8995 74.5601C44.9195 75.4001 44.9195 76.2401 44.9395 77.0801V77.1801C44.9395 77.4001 45.1795 77.9201 45.4395 77.9401L47.4195 78.1801C49.0795 78.3801 50.7595 78.5801 52.4195 78.7801C54.6395 79.0401 56.8595 79.2801 59.0795 79.5201C61.3995 79.7601 63.7195 80.0001 66.0395 80.2001C67.9795 80.3801 69.9195 80.5401 71.8595 80.6201C72.9595 80.6601 74.1395 80.8001 75.2395 80.5801C75.4395 80.5401 75.5995 80.4801 75.6195 80.2601C75.6395 80.1001 75.6395 79.9401 75.6395 79.8001C75.6595 79.0601 75.6795 78.3001 75.6995 77.5601C75.7195 76.3001 75.7395 75.0401 75.7595 73.8001C75.7795 72.1401 75.8195 70.4601 75.8395 68.8001L75.9195 62.8401C75.9395 60.6201 75.9795 58.4001 75.9995 56.1601C76.0195 53.8201 76.0595 51.4801 76.0795 49.1201C76.0995 46.7401 76.1395 44.3601 76.1595 41.9801C76.1795 39.6601 76.2195 37.3401 76.2395 35.0201C76.2595 32.8601 76.2995 30.6801 76.3195 28.5201L76.3795 22.7601L76.4395 18.0201C76.4595 16.8801 76.4595 15.7201 76.4795 14.5801C76.4795 13.9601 76.4795 13.3601 76.4995 12.7401V12.5001C76.4795 12.2601 76.3595 12.0401 76.1995 11.8801C76.1195 11.8001 75.9195 11.6201 75.9195 11.8401C75.9195 12.1601 75.9195 12.4801 75.9195 12.8001L75.8995 15.4801C75.8795 16.8601 75.8595 18.2401 75.8595 19.6001L75.7995 24.8601C75.7795 26.9201 75.7595 28.9801 75.7195 31.0201C75.6995 33.2601 75.6595 35.5201 75.6395 37.7601L75.5595 44.8401C75.5195 47.2001 75.4995 49.5601 75.4795 51.9201C75.4395 54.2201 75.4195 56.5001 75.3995 58.8001C75.3795 60.9001 75.3395 63.0201 75.3195 65.1201C75.2995 66.9601 75.2595 68.8201 75.2395 70.6601C75.2195 72.1401 75.1995 73.6201 75.1595 75.1001C75.1395 76.1201 75.1195 77.1401 75.0995 78.1601C75.1195 78.6401 75.0995 79.1001 75.0595 79.5801C75.0595 79.5801 75.0795 79.5801 75.0195 79.6001C74.9195 79.6401 74.8195 79.6801 74.7195 79.7001C74.2995 79.7601 73.8595 79.7801 73.4195 79.7801C71.7995 79.7801 70.1995 79.6601 68.5795 79.5401C66.3795 79.4001 64.1995 79.2001 61.9995 79.0001C59.6795 78.7801 57.3595 78.5201 55.0395 78.2601C53.0595 78.0401 51.0795 77.8201 49.0995 77.5801C47.8995 77.4401 46.6995 77.3001 45.4995 77.1401L45.0195 77.0801L45.5195 77.8401L45.4995 76.1001L45.4395 71.3601L45.3395 64.3801L45.2195 55.8801L45.0795 46.5401L44.9395 37.1001L44.8195 28.3401L44.7195 20.9401L44.6395 15.6001L44.6195 13.9401C44.6395 13.6601 44.6195 13.3601 44.5995 13.0801C44.5995 13.0401 44.5995 13.0001 44.5995 12.9801L44.5195 13.0801L47.6995 13.0201L55.3195 12.9201L64.5395 12.8001L72.5195 12.7001L75.1395 12.6601C75.5595 12.6801 75.9795 12.6801 76.3795 12.6401C76.3995 12.6401 76.4195 12.6401 76.4395 12.6401C76.6395 12.6201 76.2795 11.7401 75.9995 11.7401Z" fill="white"/>
<path d="M71.7601 43.5401C71.7601 43.5401 71.7601 43.6201 71.7401 43.7601C71.6001 45.1801 70.8801 52.7201 72.1801 52.7801C73.6201 52.8401 74.6401 43.8401 73.5001 43.0601C72.3601 42.2801 71.8201 43.0001 71.7601 43.5401Z" fill="white"/>
<path d="M71.2799 43.4801C71.0999 45.1001 70.9799 46.7201 70.9399 48.3401C70.8999 49.2801 70.9199 50.2401 70.9999 51.1801C71.0599 51.7601 71.1199 52.6001 71.6399 53.0001C72.1799 53.4201 72.8199 53.0801 73.1599 52.6001C73.5399 52.0201 73.7399 51.3001 73.8999 50.6401C74.3399 48.8201 74.5399 46.9601 74.4999 45.1001C74.4799 44.4801 74.4599 43.7601 74.1799 43.2001C73.9799 42.8401 73.6199 42.5601 73.2199 42.4401C72.6199 42.2401 71.9199 42.3401 71.5199 42.8801C71.3999 43.0401 71.3199 43.2601 71.2799 43.4801C71.2399 43.7001 71.3999 43.9001 71.6199 43.9401C71.6399 43.9401 71.6599 43.9401 71.6599 43.9401C71.8599 43.9601 72.2199 43.8801 72.2599 43.6201C72.2599 43.5401 72.2799 43.4601 72.3199 43.3801C72.3399 43.3201 72.3199 43.3601 72.3599 43.3001C72.3599 43.2801 72.4399 43.1801 72.3999 43.2201C72.4399 43.1601 72.4999 43.1201 72.5599 43.1001C72.4999 43.1201 72.6199 43.1201 72.5399 43.1001C72.5999 43.1001 72.5599 43.0801 72.6599 43.1001C72.7799 43.1201 72.8999 43.1801 73.0199 43.2401C73.0799 43.2801 73.1399 43.3201 73.1999 43.3601C73.2199 43.3801 73.1399 43.2801 73.1799 43.3401C73.1999 43.3801 73.2199 43.4001 73.2599 43.4401C73.1799 43.3401 73.2599 43.4401 73.2799 43.4801C73.3199 43.5801 73.3599 43.6801 73.3799 43.8001C73.3999 43.8801 73.3799 43.7801 73.3799 43.8201L73.3999 43.9001C73.4199 43.9601 73.4199 44.0401 73.4399 44.1001C73.4799 44.4401 73.5199 44.7601 73.5199 45.1001C73.5599 46.7601 73.3999 48.4401 73.0399 50.0601C72.9599 50.4401 72.8599 50.8001 72.7599 51.1801C72.7199 51.3401 72.6599 51.4801 72.5999 51.6401C72.5799 51.7001 72.5399 51.7801 72.5199 51.8401C72.4799 51.9201 72.5199 51.8401 72.5199 51.8601C72.5199 51.8801 72.4999 51.9201 72.4799 51.9601C72.4199 52.0601 72.3599 52.1801 72.2999 52.2801C72.2599 52.3201 72.1799 52.4201 72.2799 52.3201C72.2399 52.3601 72.1999 52.3801 72.1799 52.4201C72.1399 52.4601 72.2599 52.3601 72.2199 52.4001C72.1999 52.4201 72.1999 52.4201 72.1799 52.4201C72.1199 52.4401 72.2999 52.3801 72.2399 52.4001C72.1799 52.4201 72.3199 52.4001 72.2999 52.4001C72.2799 52.4001 72.2199 52.4001 72.3199 52.4001C72.4199 52.4001 72.3599 52.4001 72.3399 52.4001C72.3199 52.4001 72.4399 52.4201 72.4199 52.4201C72.2999 52.3801 72.4999 52.4801 72.4199 52.4201C72.3399 52.3601 72.4599 52.4601 72.4399 52.4401C72.4199 52.4201 72.4199 52.4001 72.3999 52.4001L72.3599 52.3401C72.3799 52.4001 72.3999 52.4001 72.3599 52.3401C72.3199 52.2401 72.2599 52.1401 72.2399 52.0201L72.2199 51.9201C72.1999 51.8401 72.2199 51.9201 72.2199 51.9001C72.1999 51.8201 72.1799 51.7401 72.1799 51.6801C72.1399 51.5001 72.1199 51.3401 72.0999 51.1601C72.0199 50.3001 71.9999 49.4401 72.0199 48.5801C72.0599 47.0401 72.1599 45.4801 72.3199 43.9401C72.3199 43.9201 72.3199 43.9001 72.3199 43.8601C72.3199 43.7801 72.3199 43.8801 72.3199 43.8801C72.3199 43.8001 72.3399 43.7201 72.3399 43.6201C72.3599 43.4001 72.1999 43.1801 71.9799 43.1601H71.9599C71.6799 43.1201 71.2999 43.2201 71.2799 43.4801Z" fill="white"/>
<path d="M71.9399 49.1801C72.8015 49.1801 73.4999 48.4011 73.4999 47.4401C73.4999 46.4791 72.8015 45.7001 71.9399 45.7001C71.0783 45.7001 70.3799 46.4791 70.3799 47.4401C70.3799 48.4011 71.0783 49.1801 71.9399 49.1801Z" fill="white"/>
<path d="M73.1401 47.1401C73.1401 47.7601 72.8201 48.3401 72.2801 48.6601C72.0201 48.8001 71.7001 48.8601 71.4001 48.8001C71.2801 48.7801 71.1801 48.7401 71.0801 48.6801C71.0001 48.6401 71.0401 48.6601 71.0601 48.6601C70.9601 48.6201 71.1001 48.7001 71.0201 48.6201L71.0801 48.6801C70.9801 48.6001 71.1001 48.7401 71.0401 48.6401C70.3801 47.6601 71.0601 45.9601 72.3801 46.0401C72.5201 46.0401 72.6801 46.0801 72.8001 46.1401C72.8401 46.1601 72.9201 46.2201 72.8801 46.1801C72.9601 46.2201 72.8801 46.2001 72.8601 46.1601C72.8401 46.1201 72.8401 46.1401 72.8801 46.1801C72.8601 46.1401 72.8601 46.1601 72.8801 46.2001C73.0401 46.5001 73.1401 46.8201 73.1401 47.1401C73.1401 47.3201 73.4001 47.5201 73.5201 47.6201C73.5601 47.6401 73.8801 47.9001 73.8801 47.7401C73.8601 46.8201 73.2001 45.9601 72.4001 45.5401C71.7401 45.1801 70.9001 45.3401 70.4201 45.9201C69.9401 46.5601 69.8801 47.4401 70.2801 48.1401C70.6801 48.8601 71.5201 49.6001 72.4001 49.5201C73.2801 49.4401 73.8601 48.5801 73.8801 47.7401C73.8801 47.5601 73.6201 47.3601 73.5001 47.2601C73.4601 47.2201 73.1401 46.9801 73.1401 47.1401Z" fill="white"/>
<path d="M76.2203 12.1801L77.4003 12.2201L76.5003 78.5401L75.3203 79.9801L76.2203 12.1801Z" fill="white"/>
<path d="M76.4395 12.6201L77.6195 12.6601L77.1195 11.9001L77.0995 13.6801L77.0395 18.5201L76.9395 25.6401L76.8195 34.3601L76.6995 43.9201L76.5795 53.5201L76.4595 62.4801L76.3595 70.0801L76.2795 75.5401C76.2595 76.4001 76.1995 77.2601 76.2395 78.1201C76.2395 78.1601 76.2395 78.2001 76.2395 78.2401L76.2595 78.1401L75.0595 79.5801L75.5995 80.3401L75.6195 78.5201L75.6795 73.6001L75.7795 66.2801L75.8995 57.4001L76.0195 47.6201L76.1595 37.8201L76.2795 28.6201L76.3795 20.8801L76.4595 15.2801C76.4795 14.4001 76.4995 13.5201 76.4995 12.6401C76.4995 12.6001 76.4995 12.5601 76.4995 12.5201C76.4595 12.2801 76.3595 12.0801 76.1995 11.9001C76.1395 11.8201 75.9395 11.6401 75.9395 11.8601L75.9195 13.6801L75.8395 18.6001L75.7395 25.9201L75.6195 34.8001L75.4795 44.5801L75.3595 54.3801L75.2395 63.5801L75.1395 71.3001L75.0595 76.9001C75.0395 77.7801 75.0195 78.6601 75.0195 79.5401C75.0195 79.5801 75.0195 79.6201 75.0195 79.6601C75.0195 79.7801 75.4395 80.5801 75.5595 80.4201C75.9395 79.9601 76.3795 79.5201 76.6995 79.0401C76.7595 78.9801 76.7795 78.8801 76.7795 78.8001C76.7795 78.5001 76.7795 78.2201 76.7995 77.9401L76.8595 73.7201L76.9595 66.8601L77.0795 58.1601L77.1995 48.4401L77.3395 38.4601L77.4595 29.1401L77.5595 21.1601L77.6395 15.4001C77.6595 14.4801 77.6795 13.5801 77.6795 12.6601C77.6795 12.6201 77.6795 12.5801 77.6795 12.5401C77.6795 12.3601 77.4195 11.7801 77.1795 11.7801L75.9995 11.7401C75.8195 11.7401 76.1795 12.6201 76.4395 12.6201Z" fill="white"/>
<path d="M83.1996 49.94C83.6796 49.88 84.1596 49.88 84.6396 49.9C84.6396 49.9 87.6196 47.74 88.0596 48.64C88.4996 49.54 86.9196 50.6 86.9196 50.6C86.9196 50.6 91.0396 51.24 91.1196 51.98C91.1996 52.72 87.8196 52.82 87.8196 52.82C87.8196 52.82 91.4396 53.52 90.9396 54.3C90.4396 55.08 87.7396 54.46 87.7396 54.46C87.7396 54.46 89.7396 55.26 89.2596 55.8C88.9596 56.14 86.4596 55.76 84.5796 55.44C83.2396 55.2 81.9596 54.78 80.7396 54.2L69.0996 47.74L74.2596 43.12L83.1996 49.94Z" fill="white"/>
<path d="M83.1 50.12C83.18 50.12 82.98 50.12 83.04 50.12L83.2 50.1C83.38 50.08 83.56 50.08 83.74 50.08C84.2 50.08 84.68 50.16 85.08 49.86C85.14 49.82 85.02 49.9 85.06 49.86L85.12 49.82L85.34 49.66C85.54 49.52 85.74 49.4 85.96 49.26C86.18 49.12 86.44 48.98 86.66 48.86C86.78 48.8 86.92 48.74 87.04 48.68C87.12 48.64 87.08 48.66 87.06 48.68L87.14 48.66L87.24 48.62C87.28 48.6 87.16 48.66 87.26 48.62C87.28 48.62 87.36 48.6 87.28 48.62C87.2 48.64 87.32 48.62 87.32 48.62C87.32 48.62 87.22 48.62 87.3 48.62C87.34 48.62 87.3 48.6 87.38 48.64C87.4 48.66 87.44 48.66 87.46 48.68C87.66 48.84 87.64 49.18 87.56 49.4C87.42 49.72 87.22 50 86.96 50.24C86.86 50.34 86.76 50.42 86.64 50.52L86.52 50.6C86.5 50.62 86.6 50.56 86.54 50.6C86.48 50.64 86.34 50.78 86.5 50.8C87.58 50.94 88.64 51.18 89.66 51.52C89.9 51.6 90.7 51.84 90.6 52.2C90.58 52.26 90.54 52.3 90.48 52.32C90.56 52.28 90.42 52.34 90.38 52.36C90.52 52.3 90.16 52.42 90.32 52.38C90.24 52.4 90.18 52.42 90.12 52.44C90.1 52.44 89.96 52.48 90.08 52.46L89.98 52.48C89.8 52.52 89.64 52.54 89.46 52.56C89.06 52.62 88.5 52.66 88.02 52.68C87.82 52.68 87.62 52.74 87.44 52.84C87.36 52.88 87.24 53 87.4 53.04C88.24 53.18 89.04 53.42 89.82 53.74C90.02 53.84 90.62 54.08 90.46 54.4C90.44 54.44 90.42 54.46 90.38 54.48C90.36 54.5 90.3 54.52 90.34 54.5C90.26 54.5 90.34 54.52 90.34 54.5L90.2 54.52C90.26 54.52 90.18 54.52 90.18 54.52H90.06C90 54.52 89.94 54.52 89.88 54.52C89.72 54.52 89.56 54.52 89.4 54.5C88.96 54.46 88.52 54.4 88.1 54.3C87.88 54.28 87.68 54.3 87.48 54.4C87.44 54.42 87.1 54.58 87.24 54.64C87.5 54.74 87.76 54.86 88 55C88.24 55.14 88.8 55.4 88.82 55.74C88.82 55.76 88.8 55.88 88.78 55.88C88.76 55.88 89.04 55.76 89.04 55.76C89.04 55.76 89.06 55.76 89.08 55.76C88.86 55.76 88.64 55.76 88.4 55.76C87.72 55.72 87.04 55.62 86.36 55.52C84.72 55.28 83.12 54.94 81.6 54.26C81.28 54.12 80.98 53.96 80.68 53.78L76.98 51.72L72.28 49.1L70.48 48.1L69.9 47.78C69.8 47.7 69.7 47.64 69.58 47.6C69.56 47.6 69.56 47.58 69.54 47.58L69.52 47.7L74.02 43.66L74.66 43.08L73.76 43.26L76.78 45.58L81.6 49.26L82.7 50.1C82.84 50.22 83.18 50.1 83.32 50.06C83.38 50.04 83.74 49.9 83.62 49.8L80.6 47.48L75.82 43.8L74.72 42.96C74.52 42.8 73.98 43 73.82 43.14L69.32 47.2L68.68 47.78C68.66 47.8 68.6 47.88 68.66 47.9L71.04 49.22L75.9 51.92L79.78 54.08C80.16 54.3 80.56 54.5 80.96 54.66C82.52 55.32 84.16 55.64 85.82 55.88C86.52 55.98 87.22 56.08 87.92 56.1C88.46 56.12 89.08 56.14 89.56 55.86C90.44 55.36 88.82 54.58 88.44 54.4C88.36 54.36 88.28 54.32 88.2 54.3L87.34 54.64C87.8 54.74 88.24 54.82 88.7 54.86C89.48 54.94 90.34 54.94 91.04 54.56C91.22 54.46 91.46 54.3 91.46 54.06C91.46 53.88 91.3 53.74 91.16 53.66C90.68 53.32 90.06 53.14 89.5 52.98C89.08 52.86 88.64 52.76 88.2 52.66L87.58 53.02C88.08 53 88.58 52.96 89.08 52.9C89.82 52.82 90.66 52.72 91.3 52.3C91.48 52.18 91.68 52 91.56 51.78C91.44 51.6 91.24 51.46 91.04 51.38C90.34 51.08 89.62 50.86 88.88 50.74C88.36 50.62 87.82 50.52 87.3 50.44L87.26 50.64C87.64 50.38 87.98 50.06 88.26 49.7C88.5 49.36 88.82 48.62 88.3 48.34C87.84 48.1 87.12 48.34 86.68 48.52C86.12 48.74 85.58 49.02 85.08 49.34C84.76 49.54 84.46 49.74 84.14 49.96L84.9 49.74C84.34 49.7 83.78 49.72 83.24 49.78C83.1 49.8 82.72 49.86 82.66 50.02C82.6 50.18 83.04 50.12 83.1 50.12Z" fill="#FF8C42"/>
<path d="M86.5603 50.38C86.4603 50.64 86.4003 50.9 86.3003 51.16C86.2003 51.36 86.0603 51.54 85.9003 51.7C85.5603 52 85.1603 52.26 84.7403 52.44C84.6803 52.48 84.9803 52.84 85.0003 52.88C85.0803 52.98 85.1603 53.06 85.2403 53.14C85.2603 53.16 85.3403 53.24 85.3803 53.22C85.8003 53.02 86.1803 52.78 86.5403 52.48C86.7003 52.32 86.8403 52.14 86.9403 51.94C87.0603 51.7 87.1003 51.42 87.2003 51.16C87.2203 51.12 87.1603 51.04 87.1403 51.02C87.0803 50.92 87.0203 50.82 86.9403 50.74C86.8603 50.64 86.7803 50.56 86.7003 50.48C86.7003 50.44 86.5803 50.36 86.5603 50.38Z" fill="#FF8C42"/>
<path d="M69.6199 82.34C69.6199 82.34 70.9799 88.72 70.8199 88.72C70.6599 88.72 68.3199 88.64 68.3199 88.64V86.3L67.1999 88.88L59.3999 88.42C59.3999 88.42 59.1599 87.58 60.8999 86.64C62.6399 85.7 65.4599 84.38 65.4599 84.38L63.5399 80.8L69.6199 82.34Z" fill="#FF8C42"/>
<path d="M59.26 76.38C59.26 76.38 61.8 81.02 61.68 81.12C61.56 81.22 60.2 82.54 60.2 82.54L58.56 80.86L59.54 83.5L53.66 88.62C53.66 88.62 52.88 88.2 53.48 86.3C54.08 84.4 56.82 81.44 56.82 81.44L55.38 77.96L59.26 76.38Z" fill="#FF8C42"/>
<path d="M66.0599 61.38C66.0599 61.38 59.9599 62.14 59.0399 65.18C58.1199 68.22 61.9399 79.12 61.9399 79.12C61.9399 79.12 56.3399 80.38 55.9199 79.96C55.4999 79.54 49.6799 69.94 50.9799 64.44C52.2599 58.94 61.0399 54.1 61.0399 54.1L66.0599 61.38Z" fill="white"/>
<path d="M65.7001 61.12C64.5201 61.28 63.3601 61.56 62.2201 61.98C60.7201 62.54 58.8401 63.5 58.5001 65.22C58.3801 65.92 58.3801 66.62 58.4801 67.32C58.5801 68.24 58.7201 69.14 58.9201 70.04C59.3201 71.96 59.8401 73.84 60.4201 75.72C60.6401 76.44 60.8601 77.14 61.1001 77.84C61.1801 78.06 61.2601 78.3 61.3201 78.52C61.3401 78.64 61.3801 78.78 61.4401 78.88C61.4401 78.9 61.4601 78.92 61.4601 78.92L61.5601 78.82C60.7401 79 59.9001 79.18 59.0801 79.32C58.4201 79.44 57.7801 79.56 57.1201 79.64C56.8601 79.68 56.6001 79.7 56.3201 79.72C56.2201 79.72 56.1201 79.72 56.0201 79.74C56.0001 79.74 55.9601 79.74 55.9401 79.74L55.8201 79.72C55.7401 79.72 55.9201 79.74 55.8401 79.72C55.8001 79.72 55.7801 79.7 55.9201 79.74C56.0401 79.8 56.1601 79.86 56.2601 79.94C56.3201 79.98 56.3001 79.98 56.2601 79.92C56.2201 79.86 56.1401 79.72 56.0601 79.64C55.8401 79.3 55.6401 78.96 55.4401 78.62C54.7801 77.48 54.1801 76.32 53.6401 75.12C52.9401 73.64 52.3601 72.1 51.9001 70.52C51.4801 69.04 51.1601 67.48 51.2201 65.92C51.3401 62.8 53.6401 60.22 55.8601 58.24C57.5401 56.76 59.3601 55.46 61.3201 54.34L61.4201 54.28L60.5801 53.92L62.2801 56.38L64.9801 60.32L65.6001 61.22C65.7401 61.4 65.9601 61.52 66.1801 61.58C66.2801 61.6 66.5801 61.62 66.4401 61.44L64.7601 58.98L62.0401 55.04L61.4201 54.14C61.3001 53.96 60.8201 53.66 60.5801 53.78C58.8401 54.76 57.2201 55.9 55.7001 57.18C54.4201 58.22 53.2601 59.4 52.2401 60.7C51.3201 61.92 50.5801 63.3 50.3801 64.82C50.1801 66.34 50.4201 67.94 50.7801 69.42C51.2001 71.06 51.7601 72.64 52.4601 74.18C53.0401 75.48 53.6801 76.78 54.3801 78.02C54.6001 78.42 54.8401 78.82 55.0801 79.22C55.2001 79.44 55.3401 79.64 55.5001 79.84C55.8601 80.22 56.4001 80.26 56.8801 80.24C57.4801 80.2 58.0601 80.12 58.6601 80.02C59.7801 79.84 60.9201 79.6 62.0401 79.36L62.2401 79.32C62.2801 79.32 62.3601 79.3 62.3401 79.22C62.0401 78.38 61.7601 77.52 61.5001 76.66C60.9201 74.84 60.4001 73.02 59.9801 71.16C59.7601 70.24 59.5801 69.3 59.4401 68.36C59.3201 67.6 59.2601 66.84 59.3001 66.08C59.4201 64.36 60.8801 63.34 62.3401 62.7C63.6001 62.18 64.9201 61.8 66.2801 61.6C66.3001 61.6 66.3201 61.6 66.3601 61.58C66.5801 61.56 66.3801 61.36 66.3001 61.28C66.1601 61.2 65.9401 61.12 65.7001 61.12Z" fill="#FF8C42"/>
<path d="M58.96 55.76C58.96 55.76 56.4 72.52 63.26 83.44H71.18C71.18 83.44 65.24 67.26 69.2 59.48L58.96 55.76Z" fill="white"/>
<path d="M58.4595 55.8C58.2795 56.96 58.1995 58.14 58.1195 59.32C57.9395 62.14 57.9595 64.98 58.1795 67.78C58.4595 71.3 59.0795 74.82 60.2395 78.16C60.8395 79.88 61.5995 81.56 62.5395 83.12C62.6395 83.3 62.7395 83.56 62.9395 83.64C63.0195 83.66 63.0995 83.68 63.1995 83.68H71.0795C71.1595 83.68 71.7795 83.62 71.6795 83.38C71.4795 82.84 71.2995 82.28 71.1195 81.72C70.6795 80.32 70.2595 78.9 69.9195 77.46C69.4395 75.56 69.0595 73.64 68.7595 71.72C68.4395 69.68 68.2995 67.62 68.3595 65.56C68.4195 63.7 68.6795 61.8 69.4195 60.06C69.4995 59.86 69.5995 59.66 69.6995 59.48C69.7595 59.38 69.6395 59.28 69.5395 59.26L66.0795 58L60.5595 56L59.2795 55.54C59.0395 55.46 58.7795 55.48 58.5795 55.6C58.4195 55.7 58.4195 55.88 58.6195 55.94L62.0795 57.2L67.5995 59.2L68.8795 59.66L68.7195 59.44C67.8795 61.1 67.5395 62.96 67.3995 64.8C67.2795 66.86 67.3595 68.92 67.6395 70.96C67.8995 72.94 68.2595 74.92 68.7395 76.86C69.0995 78.38 69.5195 79.9 69.9795 81.4C70.1195 81.88 70.2795 82.34 70.4395 82.8C70.4995 83.02 70.5795 83.24 70.6595 83.44V83.46L71.2595 83.16H63.3595L63.7195 83.3C62.3995 81.16 61.3795 78.84 60.6995 76.4C60.0195 74.04 59.5595 71.62 59.2995 69.2C59.0595 67.04 58.9595 64.86 58.9795 62.68C58.9995 61.06 59.0595 59.46 59.1995 57.84C59.2395 57.36 59.2995 56.86 59.3595 56.36C59.3995 56.14 59.4395 55.92 59.4395 55.68V55.66C59.4995 55.42 58.4995 55.44 58.4595 55.8Z" fill="#FF8C42"/>
<path d="M63.5196 39.1C63.5196 39.1 59.3996 37.74 53.5996 44.34L58.9196 48.22L63.5196 39.1Z" fill="#FF8C42"/>
<path d="M63.8999 38.88C63.2599 38.68 62.4999 38.72 61.8399 38.8C60.0199 39.04 58.2999 39.9 56.8199 40.96C55.4799 41.94 54.2399 43.08 53.1599 44.36C53.1199 44.4 53.1199 44.48 53.1599 44.52L57.7999 47.92L58.4799 48.4C58.7199 48.58 59.2799 48.36 59.3999 48.12L60.9599 45.02L63.4399 40.12L64.0199 38.98C64.1199 38.8 63.6799 38.82 63.6199 38.84C63.3999 38.86 63.1999 38.98 63.0799 39.16L61.5199 42.26L58.9999 47.2L58.4199 48.32L59.3399 48.04L54.6999 44.64L54.0199 44.14V44.3C55.5999 42.52 57.4599 40.8 59.6399 39.84C59.8199 39.76 59.9999 39.68 60.1799 39.62C60.0799 39.66 60.2199 39.6 60.2199 39.6L60.3399 39.56C60.4399 39.52 60.5399 39.5 60.6399 39.48L60.8799 39.42H60.8999L61.0199 39.4C61.1799 39.36 61.3199 39.34 61.4799 39.32L61.6799 39.3C61.5399 39.32 61.7399 39.3 61.7799 39.3C61.8999 39.28 62.0199 39.28 62.1599 39.28H62.3199C62.4599 39.28 62.2799 39.28 62.3799 39.28C62.4799 39.28 62.5599 39.28 62.6599 39.3C62.7599 39.32 62.8199 39.32 62.8999 39.32L62.9999 39.34C62.9399 39.32 63.0999 39.36 62.9999 39.34C63.0599 39.36 63.0999 39.36 63.1399 39.38C63.3799 39.42 63.6199 39.36 63.7999 39.22C63.8999 39.14 64.0999 38.96 63.8999 38.88Z" fill="#FF8C42"/>
<path d="M55.8797 56.46C55.8797 56.46 64.4797 60.92 70.0997 60.42C70.0997 60.42 71.9198 37.94 65.2998 38.6C58.6798 39.26 55.6997 55.8 55.8797 56.46Z" fill="#FF8C42"/>
<path d="M55.7804 56.84C56.8604 57.4 58.0004 57.9 59.1204 58.36C61.3804 59.3 63.7204 60.1 66.1204 60.56C67.4604 60.84 68.8404 60.94 70.2004 60.86C70.3204 60.86 70.4804 60.78 70.4804 60.64C70.5404 60.02 70.5604 59.38 70.6004 58.76C70.6804 57.3 70.7204 55.82 70.7204 54.34C70.7204 52.46 70.6804 50.58 70.5204 48.7C70.4004 46.86 70.1204 45.02 69.6804 43.22C69.3204 41.84 68.8204 40.34 67.8204 39.28C67.4004 38.8 66.8604 38.44 66.2604 38.24C65.6004 38.06 64.9204 38.1 64.2804 38.3C62.6204 38.8 61.3804 40.16 60.4204 41.52C59.2404 43.22 58.4204 45.12 57.7004 47.06C57.0404 48.88 56.5004 50.72 56.0604 52.6C55.8004 53.74 55.5204 54.9 55.4404 56.06C55.4204 56.18 55.4404 56.3 55.4604 56.42C55.5204 56.66 55.7404 56.84 55.9804 56.88C56.2204 56.88 56.3004 56.64 56.2604 56.44C56.2804 56.54 56.2604 56.56 56.2804 56.46C56.2804 56.44 56.2804 56.42 56.2804 56.38C56.2804 56.26 56.2804 56.42 56.2804 56.38C56.3004 56.2 56.3204 56.02 56.3404 55.84C56.4204 55.26 56.5404 54.7 56.6404 54.12C57.0004 52.4 57.4404 50.68 58.0004 49C58.6004 47.08 59.3804 45.22 60.3604 43.46C61.2004 41.96 62.2404 40.48 63.7404 39.6C64.3204 39.26 64.9804 39.04 65.6604 39.02C65.7804 39.02 65.9204 39.02 66.0404 39.04C65.9804 39.02 66.1404 39.06 66.0404 39.04L66.1404 39.06C66.2004 39.08 66.2604 39.08 66.3204 39.1L66.5004 39.16C66.4004 39.12 66.5804 39.18 66.5004 39.16L66.6004 39.2C66.6604 39.22 66.7004 39.26 66.7604 39.28C66.7804 39.3 66.8204 39.32 66.8404 39.32C66.8604 39.32 66.9604 39.4 66.9004 39.36C66.8404 39.32 66.9804 39.42 67.0004 39.44C67.0204 39.46 67.1004 39.54 67.1604 39.58C67.2204 39.62 67.2604 39.66 67.3004 39.72C67.2004 39.62 67.3404 39.76 67.3804 39.82C67.4804 39.92 67.5604 40.04 67.6404 40.16C67.6604 40.2 67.6804 40.22 67.7204 40.26C67.7604 40.3 67.8004 40.38 67.7604 40.3C67.7204 40.22 67.7804 40.32 67.7804 40.34L67.8404 40.46C68.0004 40.76 68.1604 41.06 68.2804 41.36L68.3804 41.6C68.3404 41.48 68.3804 41.62 68.4004 41.66L68.4404 41.8C68.5004 41.98 68.5604 42.16 68.6204 42.34C68.8604 43.12 69.0604 43.92 69.2004 44.74C69.3404 45.54 69.4804 46.48 69.5604 47.38C69.7604 49.24 69.8204 51.1 69.8404 52.96C69.8604 54.54 69.8404 56.1 69.7604 57.66C69.7204 58.48 69.6804 59.32 69.6204 60.16C69.6204 60.24 69.6204 60.04 69.6204 60.18L69.9004 59.96C67.4804 60.16 65.0204 59.56 62.7204 58.84C60.7604 58.22 58.8604 57.46 57.0004 56.58C56.6204 56.4 56.2604 56.22 55.9004 56.04C55.7004 55.94 55.4604 55.96 55.4004 56.2C55.4404 56.48 55.5604 56.72 55.7804 56.84Z" fill="#FF8C42"/>
<path d="M68.6003 48.84L76.2003 43.06C76.2003 43.06 66.1203 36.28 65.3003 38.6C64.4803 40.92 68.6003 48.84 68.6003 48.84Z" fill="#FF8C42"/>
<path d="M69.0397 48.96L71.5997 47L75.6997 43.88L76.6397 43.16C76.7197 43.1 76.7197 43 76.6597 42.92C76.6597 42.9 76.6397 42.9 76.6197 42.9C75.6797 42.28 74.7197 41.68 73.7597 41.1C72.0797 40.1 70.3597 39.1 68.5197 38.4C67.7797 38.12 66.9797 37.84 66.1797 37.84C65.5997 37.84 64.9397 38.04 64.7597 38.64C64.5397 39.44 64.7397 40.32 64.9197 41.1C65.1997 42.18 65.5597 43.26 65.9997 44.3C66.3997 45.28 66.8197 46.26 67.2797 47.22C67.5397 47.76 67.7797 48.32 68.0797 48.84C68.0997 48.86 68.0997 48.9 68.1197 48.92C68.2797 49.24 69.2597 49.08 69.0797 48.74C68.4597 47.56 67.8997 46.36 67.3797 45.14C66.9397 44.12 66.5397 43.08 66.1997 42.02C65.9397 41.16 65.6797 40.24 65.6797 39.34C65.6597 39.06 65.7197 38.78 65.8197 38.52C65.8397 38.48 65.8597 38.48 65.8197 38.52C65.8397 38.5 65.8597 38.48 65.8597 38.46C65.9397 38.36 65.8197 38.46 65.9197 38.42C66.0197 38.38 65.8397 38.44 65.9597 38.4C65.9997 38.38 66.0797 38.38 65.9397 38.4C65.9597 38.4 65.9997 38.38 66.0197 38.38C66.1197 38.36 65.9797 38.38 65.9997 38.38H66.0997C66.1197 38.38 66.1597 38.38 66.1797 38.38C66.0597 38.36 66.2597 38.38 66.1797 38.38C66.2597 38.38 66.3197 38.38 66.3797 38.4L66.4797 38.42C66.5997 38.44 66.4197 38.4 66.5197 38.42C66.6797 38.46 66.8397 38.5 67.0197 38.54C67.0997 38.56 67.1997 38.6 67.2797 38.62L67.3997 38.66L67.4997 38.7C69.2797 39.32 70.9397 40.28 72.5597 41.24C73.2797 41.66 73.9197 42.06 74.5997 42.48C74.8397 42.64 75.0797 42.78 75.2997 42.94C75.4197 43.04 75.5397 43.12 75.6797 43.2C75.6997 43.2 75.7197 43.22 75.7197 43.24L75.6997 42.98L73.1397 44.94L69.0397 48.06L68.0997 48.78C67.9197 48.92 68.1597 49.1 68.2997 49.14C68.5997 49.16 68.8397 49.1 69.0397 48.96Z" fill="#FF8C42"/>
<path d="M62.0599 55.3C62.0599 55.3 60.5199 56.98 58.5199 54.54C58.5199 54.54 55.3199 55.54 51.6799 52.78C51.6799 52.78 48.0999 50.3 53.9799 44.68L58.3399 47.62L57.2399 50.5L58.8199 51.78C58.8199 51.78 62.6799 51.66 64.7199 52.96C66.7599 54.26 67.2399 55.6 66.8599 55.84C66.4799 56.08 64.4599 54.34 64.4599 54.34C64.4599 54.34 64.6799 55.38 64.0399 55.98C63.3999 56.58 62.9199 56.2 62.9199 56.2C62.9199 56.2 61.3599 56.92 61.2399 55.94C61.2399 55.94 59.8399 56.2 58.8399 54.78" fill="white"/>
<path d="M61.78 54.9C61.76 54.92 61.74 54.94 61.72 54.96C61.8 54.88 61.7 54.98 61.68 55L61.58 55.08C61.38 55.22 61.16 55.32 60.92 55.38C60.02 55.58 59.24 54.96 58.68 54.3C58.58 54.18 58.44 54.04 58.28 54.1L58.24 54.12H58.26L58.18 54.14C58.02 54.18 57.86 54.2 57.7 54.22C57.14 54.28 56.58 54.28 56.02 54.22C54.4 54.04 52.98 53.32 51.68 52.38C51.6 52.32 51.66 52.36 51.68 52.38C51.76 52.44 51.68 52.38 51.66 52.36C51.6 52.3 51.54 52.24 51.48 52.18C51.42 52.12 51.48 52.18 51.5 52.2C51.48 52.18 51.46 52.16 51.44 52.14C51.42 52.12 51.36 52.04 51.34 52L51.28 51.92C51.22 51.84 51.34 52.04 51.28 51.92C51.24 51.86 51.2 51.8 51.18 51.72L51.14 51.62C51.16 51.66 51.16 51.7 51.14 51.6C51.12 51.5 51.08 51.44 51.06 51.36C51.04 51.28 51.04 51.28 51.04 51.32C51.04 51.28 51.02 51.22 51.02 51.18C51 51.08 50.98 50.98 50.98 50.9C50.98 50.82 50.98 50.96 50.98 50.9V50.8C50.98 50.76 50.98 50.7 50.98 50.66C50.98 50.54 50.98 50.42 51 50.3C51.02 50.06 51.06 49.84 51.14 49.62C51.64 47.82 53.02 46.32 54.32 45.06L54.02 45.08L57.82 47.64L58.36 48.02L58.04 47.3L56.94 50.18C56.84 50.44 57.08 50.76 57.26 50.9L58.1 51.58L58.64 52C58.74 52.1 58.86 52.18 59 52.22C59.22 52.24 59.46 52.22 59.68 52.22C60.24 52.24 60.78 52.28 61.32 52.34C62.7 52.5 64.04 52.84 65.18 53.66C65.52 53.9 65.82 54.16 66.1 54.46C66.2 54.56 66.28 54.66 66.36 54.78C66.4 54.84 66.44 54.9 66.48 54.96C66.52 55.04 66.44 54.9 66.48 54.98C66.5 55.02 66.52 55.04 66.54 55.08C66.56 55.12 66.62 55.22 66.58 55.18C66.54 55.14 66.6 55.26 66.62 55.28C66.64 55.34 66.6 55.2 66.62 55.26C66.62 55.28 66.62 55.3 66.62 55.3C66.62 55.32 66.62 55.34 66.62 55.36C66.62 55.36 66.64 55.34 66.62 55.38C66.6 55.42 66.66 55.38 66.62 55.38C66.62 55.38 66.66 55.38 66.6 55.38C66.54 55.38 66.62 55.4 66.54 55.36L66.4 55.3C66.3 55.26 66.22 55.22 66.14 55.16C65.88 55 65.64 54.84 65.4 54.66C65.18 54.5 64.98 54.34 64.76 54.16L64.64 54.06L64.56 54C64.34 53.8 64.08 53.88 64.14 54.22C64.16 54.32 64.18 54.42 64.16 54.52C64.16 54.78 64.1 55.04 63.98 55.28C63.82 55.58 63.56 55.78 63.22 55.84C63.14 55.84 63.04 55.84 62.96 55.82C62.88 55.8 62.98 55.84 62.92 55.8C62.86 55.74 62.76 55.74 62.68 55.76C62.48 55.84 62.28 55.92 62.08 55.96C61.92 56 61.74 56.02 61.56 55.98C61.52 55.98 61.48 55.96 61.46 55.94C61.48 55.9 61.56 56.18 61.56 56.04C61.54 55.86 61.32 55.42 61.08 55.46C60.28 55.6 59.48 55.16 59 54.52C58.9 54.4 58.68 54.2 58.54 54.36C58.4 54.52 58.56 54.86 58.66 55C59.26 55.82 60.32 56.56 61.4 56.38L60.92 55.8C61.02 56.44 61.5 56.92 62.16 56.88C62.5 56.86 62.84 56.76 63.16 56.62L62.92 56.58C63.48 56.98 64.2 56.62 64.54 56.1C64.84 55.6 64.92 55 64.8 54.42L64.38 54.64C64.94 55.14 65.54 55.58 66.18 55.98C66.42 56.12 66.86 56.4 67.14 56.22C67.46 56.02 67.34 55.5 67.24 55.22C67.04 54.68 66.72 54.2 66.32 53.8C65.8 53.24 65.2 52.78 64.54 52.4C63.46 51.8 62.22 51.56 61.02 51.4C60.24 51.3 59.46 51.26 58.68 51.28L58.84 51.34L57.26 50.06L57.58 50.78L58.68 47.9C58.78 47.66 58.56 47.3 58.36 47.18L54.54 44.6L54 44.24C53.92 44.16 53.78 44.16 53.7 44.26C51.88 46.02 49.46 48.84 50.54 51.6C50.74 52.16 51.08 52.64 51.52 53.04C52.7 54.02 54.12 54.7 55.62 55C56.62 55.2 57.76 55.28 58.74 54.96L58.34 54.76C59.02 55.58 60 56.46 61.16 56.28C61.62 56.22 62.04 56 62.36 55.68C62.6 55.44 62.08 54.6 61.78 54.9Z" fill="#FF8C42"/>
<path d="M58.48 55.04C58.72 55 58.94 54.9 59.1 54.74C59.18 54.68 59.36 54.48 59.16 54.48C58.92 54.52 58.72 54.62 58.54 54.78C58.46 54.84 58.28 55.04 58.48 55.04Z" fill="#FF8C42"/>
<path d="M63.2404 54.26C63.2404 54.26 63.8604 55.36 62.9004 56.18L63.2404 54.26Z" fill="white"/>
<path d="M62.7996 54.28C62.8396 54.34 62.8596 54.4 62.8796 54.46C62.8996 54.48 62.8996 54.52 62.9196 54.56C62.8996 54.46 62.9396 54.6 62.9196 54.56L62.9396 54.6C62.9596 54.68 62.9796 54.76 62.9796 54.86C62.9796 54.9 62.9796 54.96 62.9796 55C62.9796 55.04 62.9796 55.1 62.9796 55.14C62.9796 55.12 62.9996 55.08 62.9796 55.14C62.9796 55.16 62.9796 55.2 62.9596 55.22C62.9396 55.28 62.9396 55.32 62.9196 55.38C62.8996 55.44 62.8796 55.48 62.8596 55.54C62.8396 55.56 62.8396 55.58 62.8196 55.6C62.8596 55.54 62.7996 55.62 62.7996 55.64C62.7196 55.76 62.6196 55.86 62.5196 55.94C62.4596 56 62.4596 56.1 62.4996 56.18C62.5596 56.28 62.6396 56.36 62.7396 56.4C62.9396 56.52 63.1996 56.52 63.3796 56.4C63.7796 56.06 63.9996 55.54 63.9596 55C63.9396 54.74 63.8596 54.48 63.7396 54.26C63.5996 54.06 63.3796 53.94 63.1196 53.94C63.0196 53.94 62.9196 53.98 62.8396 54.04C62.7596 54.1 62.7596 54.2 62.7996 54.28Z" fill="#FF8C42"/>
<path d="M60.02 38C61.98 39.5 63.2 38.92 63.1 40.48C63.1 40.48 65.4 43.54 66.16 40.72C66.28 40.28 68.26 34.92 65.16 32.6C65.16 32.6 63.36 31.4 64 29.64C64 29.64 62.44 30.94 61.02 30.66C59.6 30.38 56.92 29.42 56.38 30.8C55.84 32.18 57.68 32.98 58.92 32.94L58.78 35.06C60.08 35.6 60.84 34.24 60.84 34.24C60.84 34.24 61.54 35.68 61.18 36.22C60.82 36.76 59.42 36.74 59.42 36.74C59.4 37.24 59.62 37.7 60.02 38Z" fill="white"/>
<path d="M60.26 38.38C60.74 38.74 61.26 39.04 61.82 39.3C62.18 39.42 62.52 39.58 62.86 39.76C62.9 39.8 62.94 39.82 62.98 39.84C62.88 39.74 62.8 39.64 62.72 39.52C62.72 39.54 62.74 39.58 62.74 39.6C62.78 39.8 62.74 40.02 62.8 40.2C62.86 40.38 63.1 40.68 63.24 40.84C63.8 41.5 65.26 43.08 66.1 41.96C66.38 41.58 66.5 41.06 66.62 40.6C66.8 40.02 66.94 39.42 67.04 38.82C67.32 37.2 67.28 35.46 66.44 34C66.14 33.48 65.78 33.02 65.34 32.62C65.2 32.48 65.04 32.36 64.9 32.24L64.82 32.18L64.74 32.1L64.64 32C64.6 31.96 64.56 31.92 64.52 31.88C64.5 31.86 64.48 31.82 64.44 31.8C64.4 31.72 64.36 31.64 64.32 31.58C64.12 31.1 64.1 30.54 64.28 30.06C64.34 29.9 63.78 29.18 63.66 29.28C63.1 29.74 62.46 30.08 61.76 30.26C60.82 30.48 59.86 30.1 58.96 29.9C58.22 29.74 57.22 29.52 56.52 29.92C56.22 30.1 56 30.4 55.96 30.76C55.88 31.24 56.14 31.7 56.42 32.06C57.08 32.92 58.1 33.4 59.18 33.38L58.58 32.62L58.44 34.74C58.44 34.86 58.62 35.08 58.68 35.16C58.76 35.3 58.88 35.42 59.04 35.5C59.86 35.82 60.7 35.42 61.14 34.68L60.56 34.06C60.58 34.12 60.62 34.18 60.64 34.22C60.7 34.38 60.76 34.54 60.82 34.72C60.92 35.04 61.06 35.52 60.88 35.84C60.7 36.16 60.26 36.26 59.92 36.32C59.66 36.36 59.4 36.4 59.12 36.4C59.1 36.4 59.08 36.4 59.08 36.44C59.02 37.18 59.64 37.96 60.18 38.4C60.32 38.5 60.36 38.48 60.28 38.32C60.18 38.1 60.02 37.92 59.84 37.76C59.8 37.74 59.76 37.7 59.74 37.68C59.84 37.82 59.86 37.86 59.82 37.78C59.82 37.74 59.76 37.64 59.76 37.6C59.74 37.52 59.72 37.42 59.72 37.32C59.72 37.24 59.74 37.18 59.68 37.22C59.72 37.22 59.76 37.22 59.8 37.22C60.28 37.24 60.76 37.14 61.2 36.94C61.68 36.68 61.62 36.14 61.5 35.66C61.4 35.28 61.28 34.92 61.1 34.56C61.06 34.48 60.58 33.84 60.52 33.92C60.1 34.64 59.3 35.04 58.5 34.74L59.1 35.5L59.24 33.38C59.24 33.26 59.06 33.04 59 32.96C58.94 32.88 58.76 32.62 58.64 32.62C58.22 32.62 57.82 32.56 57.42 32.42C57.24 32.36 57.06 32.28 56.9 32.18C56.82 32.14 56.74 32.08 56.68 32.02C56.62 31.96 56.52 31.86 56.66 32.02C56.74 32.12 56.66 31.98 56.64 31.92C56.62 31.84 56.62 31.76 56.62 31.68C56.62 31.48 56.68 31.26 56.8 31.1C56.96 30.84 57.22 30.68 57.52 30.62C58.3 30.42 59.18 30.64 59.94 30.82C60.76 31 61.56 31.3 62.4 31.1C63.12 30.92 63.78 30.58 64.34 30.12L63.72 29.34C63.26 30.72 64.18 32.1 65.24 32.92C65.38 33.02 65.52 33.12 65.64 33.24C65.82 33.38 65.96 33.56 66.06 33.78C66.36 34.38 66.54 35.04 66.58 35.7C66.66 36.94 66.52 38.18 66.18 39.38C66.1 39.7 66 40.02 65.9 40.36C65.76 40.8 65.6 41.38 65.12 41.58C64.64 41.78 64.1 41.42 63.74 41.1C63.66 41.02 63.58 40.96 63.5 40.88C63.46 40.84 63.42 40.8 63.38 40.76C63.46 40.86 63.36 40.74 63.34 40.7C63.32 40.66 63.28 40.64 63.26 40.6C63.18 40.5 63.32 40.7 63.26 40.6C63.24 40.58 63.22 40.56 63.2 40.52L63.44 40.94C63.46 40.14 63.02 39.4 62.32 39.02C62 38.84 61.66 38.74 61.32 38.6C60.78 38.36 60.28 38.08 59.82 37.72C59.66 37.6 59.8 37.92 59.82 37.94C59.9 38.04 60.06 38.22 60.26 38.38Z" fill="#FF8C42"/>
<path d="M67.9601 37.94C67.9601 37.94 69.6001 39.16 70.3001 38.28C71.0001 37.4 69.7201 37.16 69.7201 37.16C69.7201 37.16 71.9001 35.68 70.1801 34.54C70.1801 34.54 72.3601 33.62 71.7001 31.68C71.0401 29.74 68.2201 29.7 68.2201 29.7C68.2201 29.7 69.1801 27.5 67.1401 27.02C65.1001 26.54 65.0401 28.06 65.0401 28.06C65.0401 28.06 63.7601 27.74 63.4201 28.48C63.0801 29.22 63.8801 29.9 63.8801 29.9C63.8801 29.9 63.3601 32.22 65.1401 32.58L65.6401 35.96C65.0601 36.46 64.7601 37.24 64.8801 38C65.1201 39.3 67.4801 39.38 67.9601 37.94Z" fill="#FF8C42"/>
<path d="M68.1001 38.14C68.6801 38.58 69.8201 39.3 70.5201 38.76C70.7401 38.6 70.8601 38.38 70.8801 38.12C70.8801 37.82 70.6001 37.58 70.4001 37.4C70.1201 37.12 69.7801 36.92 69.3801 36.82L70.1001 37.5C70.5001 37.24 70.8401 36.86 71.0801 36.44C71.5401 35.52 70.6801 34.76 69.9601 34.28L70.5601 34.9C71.4601 34.52 72.2601 33.66 72.2001 32.64C72.1601 31.76 71.6001 31.08 70.9601 30.52C70.4201 30.06 69.7801 29.72 69.0801 29.54C68.7001 29.44 68.3001 29.38 67.9001 29.36L68.6201 30.04C68.8001 29.6 68.8801 29.12 68.8201 28.64C68.7401 28.22 68.5201 27.82 68.2001 27.54C67.8001 27.1 67.2801 26.8 66.7001 26.66C65.9801 26.5 65.0801 26.58 64.7801 27.38C64.7401 27.46 64.7201 27.54 64.7201 27.64C64.7201 27.68 64.7001 27.74 64.7201 27.72C64.6601 27.74 64.4201 27.68 64.3601 27.66C64.1801 27.64 63.9801 27.64 63.8001 27.66C63.3201 27.7 62.9601 28.14 63.0001 28.62C63.0001 28.68 63.0201 28.74 63.0401 28.8C63.1601 29.3 63.6001 29.7 63.9601 30.02L63.5401 29.54C63.4401 30 63.4401 30.5 63.5401 30.96C63.6401 31.36 63.8401 31.72 64.1201 32C64.4801 32.42 64.9801 32.74 65.5201 32.88L64.8201 32.24L65.0601 33.78L65.2401 34.92L65.3001 35.3C65.3201 35.38 65.3401 35.48 65.3401 35.58C65.3401 35.64 65.3601 35.56 65.3001 35.62C65.2001 35.72 65.1201 35.82 65.0201 35.92C64.7401 36.28 64.5601 36.72 64.5401 37.2C64.5001 37.64 64.6601 38.08 64.9801 38.4C65.3001 38.78 65.7201 39.08 66.1801 39.24C67.0201 39.48 68.0401 39.12 68.3401 38.24C68.3801 38.14 68.0801 37.9 68.0201 37.86C68.0001 37.84 67.6201 37.54 67.6001 37.58C67.3201 38.28 66.6001 38.72 65.8601 38.64C65.6801 38.62 65.5201 38.6 65.3601 38.54C65.3001 38.52 65.2401 38.46 65.1601 38.44C65.0001 38.38 65.4201 38.6 65.4401 38.68C65.4401 38.74 65.4001 38.62 65.4001 38.6C65.2001 38.2 65.2601 37.66 65.4001 37.26C65.5201 36.94 65.7001 36.64 65.9401 36.4C66.0401 36.3 66.0601 36.3 66.0401 36.18C65.9601 35.6 65.8601 35.04 65.7801 34.48L65.5401 32.88C65.5201 32.76 65.3001 32.6 65.2201 32.52C65.1201 32.4 64.9801 32.3 64.8201 32.24C64.7201 32.22 64.6201 32.2 64.5401 32.16C64.5201 32.16 64.3401 32.06 64.3401 32.06C64.3601 32.04 64.5801 32.34 64.5401 32.22C64.5201 32.16 64.4601 32.1 64.4401 32.04C64.3201 31.78 64.2601 31.5 64.2401 31.22C64.2001 30.88 64.2401 30.54 64.3001 30.22C64.3201 30.08 63.9401 29.8 63.8801 29.74C63.9601 29.8 63.9601 29.8 64.0201 29.88C64.0401 29.9 64.0201 29.88 64.0001 29.84C63.9001 29.7 63.8201 29.56 63.7801 29.38C63.6801 29.02 63.8401 28.66 64.1401 28.46C64.5201 28.24 65.0401 28.28 65.4401 28.38H65.4601C65.5001 27.8 65.9401 27.34 66.5201 27.28C66.8601 27.24 67.2001 27.26 67.5201 27.36C67.6601 27.4 67.8001 27.44 67.9401 27.5C67.9801 27.52 68.0201 27.54 68.0601 27.56C68.0201 27.58 67.7401 27.18 67.8801 27.42C68.0801 27.78 68.1401 28.22 68.0601 28.62C68.0201 28.88 67.9601 29.12 67.8601 29.34C67.8001 29.46 68.4401 30.02 68.5801 30.02C69.4001 30.02 70.1801 30.24 70.9001 30.66C70.9801 30.7 71.0801 30.8 70.9801 30.7C71.0801 30.82 71.1801 30.96 71.2401 31.1C71.4001 31.42 71.4801 31.78 71.4601 32.14C71.4201 32.72 71.1401 33.26 70.7001 33.62C70.4401 33.86 70.1401 34.06 69.8201 34.2C69.7601 34.22 70.3601 34.78 70.4201 34.82C70.5801 34.94 70.3401 34.72 70.3401 34.72C70.3401 34.72 70.3601 34.76 70.3801 34.78C70.4001 34.84 70.4401 34.9 70.4601 34.98C70.5001 35.12 70.5001 35.24 70.4801 35.38C70.4201 35.64 70.3001 35.9 70.1401 36.1C69.9201 36.38 69.6801 36.62 69.3801 36.82C69.3201 36.86 69.9801 37.48 70.1001 37.5C70.1601 37.52 70.2401 37.54 70.3001 37.56C70.3601 37.58 70.4201 37.6 70.4601 37.62C70.4601 37.62 70.5401 37.66 70.5201 37.66L70.1201 37.3C70.1201 37.32 70.1401 37.34 70.1401 37.34C70.1601 37.52 70.1201 37.7 70.0201 37.86C69.9001 38.04 69.7401 38.16 69.5401 38.22C69.1601 38.32 68.7201 38.18 68.3601 38.02C68.2201 37.96 68.0401 37.86 67.9401 37.8C67.9001 37.78 67.6401 37.6 67.8401 37.72C67.7801 37.68 67.5801 37.5 67.6401 37.66C67.7001 37.82 67.9601 38.04 68.1001 38.14Z" fill="#FF8C42"/>
<path d="M64.7199 32.9C64.7199 32.9 65.5799 31.52 66.5199 32.24C67.4599 32.96 66.5199 36.5 64.6599 35.62" fill="white"/>
<path d="M65.1203 33.16C65.3003 32.84 65.5603 32.6 65.8803 32.44C65.9203 32.42 65.9803 32.4 66.0203 32.4L66.0803 32.38C66.1803 32.36 66.0203 32.38 66.1203 32.38C66.1403 32.38 66.2403 32.4 66.1603 32.38C66.1803 32.38 66.3003 32.42 66.2003 32.38L66.2803 32.42C66.2203 32.38 66.2203 32.38 66.2803 32.42C66.3403 32.46 66.3403 32.46 66.2603 32.4C66.2603 32.42 66.3003 32.42 66.3003 32.44C66.2003 32.32 66.2403 32.38 66.2603 32.4C66.2603 32.42 66.2803 32.42 66.3003 32.44C66.3603 32.5 66.2603 32.34 66.2803 32.42C66.3003 32.46 66.3203 32.48 66.3403 32.52C66.3603 32.56 66.3603 32.56 66.3603 32.58C66.3203 32.48 66.3603 32.58 66.3603 32.6C66.3803 32.7 66.4003 32.78 66.4203 32.88C66.4203 32.9 66.4403 33.04 66.4203 32.96C66.4203 33.02 66.4203 33.1 66.4203 33.16C66.4203 33.4 66.3803 33.64 66.3203 33.86C66.2603 34.06 66.2003 34.28 66.1003 34.46C66.0003 34.66 65.8603 34.86 65.7003 35.02C65.7003 35.02 65.6403 35.08 65.6003 35.12C65.5603 35.16 65.5203 35.18 65.4603 35.22C65.4203 35.24 65.3603 35.28 65.3003 35.3C65.2203 35.32 65.2803 35.3 65.3003 35.3L65.2003 35.34C65.1403 35.36 65.1003 35.36 65.0403 35.36C65.1403 35.34 65.0403 35.36 65.0203 35.36H64.9003C64.8203 35.36 64.9003 35.36 64.9203 35.36L64.8003 35.34C64.6803 35.3 64.7803 35.34 64.8003 35.34L64.6803 35.28C64.5403 35.22 64.2203 35.16 64.2003 35.38C64.1803 35.6 64.4403 35.8 64.6003 35.88C65.1603 36.14 65.8003 36.16 66.3203 35.78C66.7603 35.42 67.0603 34.92 67.2003 34.38C67.3603 33.88 67.3803 33.32 67.2603 32.8C67.0403 32.06 66.3403 31.56 65.5803 31.62C65.0403 31.68 64.5603 32.14 64.2803 32.58C64.1603 32.78 64.4003 33 64.5403 33.1C64.6803 33.2 65.0203 33.36 65.1203 33.16Z" fill="#FF8C42"/>
<path d="M62.1995 31.8C62.0395 31.84 61.9395 32 61.9795 32.16C61.9795 32.18 61.9795 32.18 61.9995 32.2C62.1195 32.5 62.4995 32.36 62.4795 32.06C62.4795 31.92 62.3795 31.8 62.2395 31.8C62.2195 31.8 62.2195 31.8 62.1995 31.8Z" fill="#FF8C42"/>
</svg>
