<svg width="31" height="32" viewBox="0 0 31 32" fill="none" xmlns="http://www.w3.org/2000/svg">
<rect x="1.42754" y="1.92754" width="27.8261" height="27.8261" rx="13.913" fill="white" stroke="#FFD2B6" stroke-width="1.85507"/>
<path d="M24.5 6.99878V24.9988H6.5V6.99878H24.5Z" fill="white" fill-opacity="0.01"/>
<path d="M21.3144 10.4927C21.5872 10.1809 21.5556 9.70711 21.2439 9.43435C20.9322 9.16159 20.4583 9.19317 20.1856 9.5049L21.3144 10.4927ZM9.68557 21.5049C9.41281 21.8166 9.44439 22.2905 9.75612 22.5632C10.0678 22.836 10.5417 22.8044 10.8144 22.4927L9.68557 21.5049ZM9.5 9.99878V9.24878C9.21592 9.24878 8.95622 9.40928 8.82918 9.66337C8.70214 9.91746 8.72955 10.2215 8.9 10.4488L9.5 9.99878ZM12.5 9.99878L13.1 9.54878C12.9584 9.35992 12.7361 9.24878 12.5 9.24878V9.99878ZM21.5 21.9988V22.7488C21.7841 22.7488 22.0438 22.5883 22.1708 22.3342C22.2979 22.0801 22.2704 21.776 22.1 21.5488L21.5 21.9988ZM18.5 21.9988L17.9 22.4488C18.0416 22.6376 18.2639 22.7488 18.5 22.7488V21.9988ZM20.1856 9.5049L15.7433 14.5818L16.8721 15.5696L21.3144 10.4927L20.1856 9.5049ZM14.1279 16.428L9.68557 21.5049L10.8144 22.4927L15.2567 17.4157L14.1279 16.428ZM9.5 10.7488H12.5V9.24878H9.5V10.7488ZM11.9 10.4488L20.9 22.4488L22.1 21.5488L13.1 9.54878L11.9 10.4488ZM21.5 21.2488H18.5V22.7488H21.5V21.2488ZM19.1 21.5488L10.1 9.54878L8.9 10.4488L17.9 22.4488L19.1 21.5488Z" fill="#10161F"/>
</svg>
